<?xml version="1.0" encoding="UTF-8" standalone="no"?>
<svg
   viewBox="0 -100 500 500"
   version="1.1"
   id="svg1368"
   sodipodi:docname="calipso2v0.svg"
   inkscape:version="1.1 (c68e22c387, 2021-05-23)"
   xmlns:inkscape="http://www.inkscape.org/namespaces/inkscape"
   xmlns:sodipodi="http://sodipodi.sourceforge.net/DTD/sodipodi-0.dtd"
   xmlns="http://www.w3.org/2000/svg"
   xmlns:svg="http://www.w3.org/2000/svg"
   xmlns:c2pa="http://c2pa.org/manifest">
  <sodipodi:namedview
     id="namedview1370"
     pagecolor="#ffffff"
     bordercolor="#666666"
     borderopacity="1.0"
     inkscape:pageshadow="2"
     inkscape:pageopacity="0.0"
     inkscape:pagecheckerboard="0"
     showgrid="false"
     inkscape:zoom="0.60697936"
     inkscape:cx="-219.94158"
     inkscape:cy="467.06696"
     inkscape:window-width="1920"
     inkscape:window-height="1129"
     inkscape:window-x="-8"
     inkscape:window-y="-8"
     inkscape:window-maximized="1"
     inkscape:current-layer="svg1368" />
  <metadata
     id="metadata1098">
  </metadata>
  <defs
     id="defs1100">
    <rect
       x="295.26302"
       y="460.68211"
       width="41.246367"
       height="41.894216"
       id="rect51150" />
  </defs>
  <g
     id="g7098"
     transform="matrix(0.43189913,0,0,0.43189913,78.373611,-50.319444)">
    <path
       d="m 563,223 c 2.693,2.518 1.837,27.32 1,28.5 -0.443,0.625 -11.989,0.861 -12.5,0.5 -1.67,-1.18 0.951,-9.244 -1.5,-11 0.004,-0.333 0.003,-0.667 0,-1 -0.034,-3.343 1.05,-15.258 -1.5,-17 -4.214,-0.703 -26.229,-2.24 -28,0 -1.607,2.034 0.386,13.246 -0.5,14.5 -1.28,1.812 -13.535,-1.305 -15,2 -1.014,2.287 0.264,27.128 0,32.5 -2.132,43.433 -9.471,83.448 -22,125 -4.796,15.905 -10.793,32.596 -17,48 -2.684,6.662 -6.054,13.413 -9,20 -5.533,12.372 -11.883,24.433 -17,37 -2.76,3.624 -4.815,8.013 -7,12 -2.689,2.904 -4.418,9.23 -7,12.5 0.025,0.604 11.41,1.631 12,1.5 2.818,-0.625 14.857,-26.628 17,-31 2.409,-4.915 4.754,-10.009 7,-15 2.067,-4.592 4.055,-9.353 6,-14 6.199,-14.806 11.837,-29.788 17,-45 10.407,-30.664 17.182,-58.406 24,-90 0,0 8.5,-30 8.5,-30 5.579,16.673 6.96,35.834 10.5,54.5 -5.878,4.385 -3.255,-12.308 -8,-14.5 -1.428,-2.311 -1.215,-1.436 -2,0.5 -4.97,12.255 -7.722,37.486 -12,52 -10.726,36.39 -25.712,73.773 -42,108 -1.66,3.489 -14.684,21.351 -11.5,23.5 0,0 58,0 58,0 2.019,0.896 1.352,12.208 1.5,15 0,0 -64,2 -64,2 -10.542,-0.687 -21.414,0.305 -32,0 -15.987,-0.461 -17.173,4.398 -16,-15 0.14,-0.021 1.86,-1.521 2,-2 5.366,-0.148 9.124,2.789 14,-1.5 8.09,-7.117 40.951,-84.62 46,-99 1.755,-4.999 13.466,-38.9 13,-41 -0.275,-1.238 -0.378,-1.702 -1.5,-2.5 -3.154,-0.128 -6.364,0.181 -9.5,0 -0.332,-0.019 -0.667,0.013 -1,0 0,0 0,-2 0,-2 13.38,0.219 13.945,5.199 15,-8.5 0.06,-0.773 1.973,-0.235 2,-1 0.124,-3.524 -1.845,-1.504 -2,-4.5 -0.249,-4.797 0.18,-9.684 0,-14.5 -0.778,-1.096 -11.705,-0.31 -14,-0.5 -0.07,-0.006 0.318,-0.944 -1,-1 0,0 0,-2 0,-2 0,0 16,0.5 16,0.5 0.977,-1.378 -0.542,-20.459 -4,-22.5 4.255,-3.808 2.563,-6.008 3,-6.5 0.89,-1.002 1.529,1.046 2,0.5 0,0 2.5,32 2.5,32 0.254,-7.361 8.752,-28.965 4.5,-34 1.689,-5.125 0.796,-10.701 1,-16 0.183,-4.756 -0.412,-9.787 0,-14.5 0.208,-2.371 3.851,-2.616 4,-3 0.481,-1.238 -1.388,-23.948 -2,-26.5 -0.137,-0.571 0.066,-1.362 0,-2 0,0 -1.5,-2 -1.5,-2 -13.442,-0.074 -27.025,0.155 -40.5,0 -15.636,-0.18 -31.375,0.407 -47,0 -4.981,-0.13 -10.018,0.094 -15,0 0,0 -1,-1 -1,-1 0,0 0.5,-14 0.5,-14 0,0 117,-1 117,-1 1.891,-26.188 4.561,-11.366 15,-16 3.374,-1.498 0.293,-13.3 1.5,-15.5 0.766,-1.395 30.202,-1.421 31.5,-0.5 1.617,1.147 -0.44,12.381 0.5,14.5 1.287,2.902 9.448,0.861 12,1.5 z m -176.5,18 c -0.388,5.006 -2.672,11.797 3,13 0,0 96,0 96,0 0,0 3.5,-12.5 3.5,-12.5 0,0 -102.5,-0.5 -102.5,-0.5 z"
       fill="#203e62"
       id="path1104" />
    <path
       d="m 550,240 c -24.129,-4.354 -10.953,10.503 -16,14.5 -2.102,1.665 -11.004,-0.482 -13.5,0.5 -2.006,0.789 -0.271,4.058 -0.5,6 -0.29,2.466 0.7,8.485 -0.5,10 -1.454,1.835 -11.759,0.662 -14.5,1 0.264,-5.372 -1.014,-30.213 0,-32.5 1.465,-3.305 13.72,-0.188 15,-2 0.886,-1.254 -1.107,-12.466 0.5,-14.5 1.771,-2.24 23.786,-0.703 28,0 2.55,1.742 1.466,13.657 1.5,17 z"
       fill="#e4c5ab"
       id="path1106" />
    <path
       d="m 640,529 c 0,0 0,14 0,14 -10.356,-0.282 -21.407,1.306 -32,1 -2.455,-0.071 -14.868,0.448 -15.5,0 -1.273,-0.903 -0.07,-10.698 -0.5,-13 -0.205,-1.098 0.512,-3.397 -0.5,-4 -4.682,-2.787 -39.939,3.629 -47.5,-2 0.476,-2.78 -1.313,-12.752 1.5,-14 4.019,-1.783 39.622,2.448 40.5,-1.5 -23.62,-42.576 -43.702,-87.34 -58,-134 -1.877,-6.125 -6.047,-29.339 -8,-32.5 4.745,2.192 2.122,18.885 8,14.5 -3.54,-18.666 -4.921,-37.827 -10.5,-54.5 0,0 -8.5,30 -8.5,30 4.059,-18.807 8.405,-38.149 12,-57 5.222,44.237 13.177,85.992 28,128 1.389,3.936 3.778,7.763 5,11 2.612,6.919 5.166,13.202 8,20 6.361,15.257 12.57,30.218 20,45 3.209,6.385 6.558,12.74 10,19 2.095,3.811 4.891,7.333 7,11 3.213,5.588 5.186,12.347 10,17 -14.785,0.334 -15.818,-6.01 -15.5,15 0,0 44,0 44,0 -0.129,-10.449 0.379,-14.771 -11.5,-16 0,0 -18,-28.5 -18,-28.5 -1.031,-7.296 -5.775,-13.201 -9,-19.5 -25.949,-50.682 -43.246,-95.229 -49,-145.5 -2.689,-23.495 -3.103,-50.185 -2,-77.5 0.078,-1.939 1.946,-9.879 2,-14 2.451,1.756 -0.17,9.82 1.5,11 0.511,0.361 12.057,0.125 12.5,-0.5 0.837,-1.18 1.693,-25.982 -1,-28.5 0.85,0.213 2.48,-0.49 3,0.5 0.698,1.328 0.865,28.775 0,30 -1.28,1.812 -13.534,-1.305 -15,2 -0.77,1.735 -1.987,29.923 -2,34 -0.172,55.47 43.739,194.888 82,235 4.249,4.454 4.279,1.336 9,4.5 z m -52.5,-17 c -10.866,-1.235 -29.11,2.991 -41,1 -0.617,0.438 -0.85,8.713 -0.5,9.5 1.084,2.441 47.061,2.247 48,0 -1.913,-3.534 -1.052,-9.881 -6.5,-10.5 z"
       fill="#17495d"
       id="path1108" />
    <path
       d="m 550,240 c 0.003,0.333 0.004,0.667 0,1 -0.054,4.121 -1.922,12.061 -2,14 -17.453,-1.216 -13.792,0.67 -14,15 0,0 -11,0 -11,0 0.117,-1.58 -0.786,-8.327 -3,-9 0.229,-1.942 -1.506,-5.211 0.5,-6 2.496,-0.982 11.398,1.165 13.5,-0.5 5.047,-3.997 -8.129,-18.854 16,-14.5 z"
       fill="#cc7059"
       id="path1110" />
    <path
       d="m 386.5,241 c 0,0 102.5,0.5 102.5,0.5 0,0 -3.5,12.5 -3.5,12.5 0,0 -96,0 -96,0 -5.672,-1.203 -3.388,-7.994 -3,-13 z"
       fill="#1e5c77"
       id="path1112" />
    <path
       d="m 386,255 c 0,0 -1,15 -1,15 -5.14,0.171 -10.769,0.72 -16,1 -15.129,0.809 -17.308,-4.554 -16,15 -0.954,0.041 -1.046,0.958 -2,1 -2.223,0.097 -13.274,-0.524 -14,0.5 -0.679,0.958 0.502,12.103 0,14.5 -0.954,0.041 -1.046,0.958 -2,1 -2.223,0.097 -13.274,-0.524 -14,0.5 -0.679,0.958 0.502,12.103 0,14.5 -0.948,0.043 -1.04,0.941 -2,1 -3.96,0.242 -8.031,-0.174 -12,0 0,0 -2,-15.5 -2,-15.5 26.188,2.463 11.716,-9.976 16,-16 1.153,-1.621 12.646,0.459 14.5,-0.5 2.952,-1.527 0.568,-14.19 1.5,-15.5 1.15,-1.617 12.727,0.457 14.5,-0.5 2.365,-1.276 0.783,-14.14 2,-15 2.696,-1.904 27.094,2.8 31.5,-2 0,0 1,1 1,1 z"
       fill="#1f5d78"
       id="path1114" />
    <path
       d="m 401,255 c -1.977,2.838 -0.09,15 -1.5,16 -1.796,1.273 -12.387,-1.07 -14.5,-1 0,0 1,-15 1,-15 4.982,0.094 10.019,-0.13 15,0 z"
       fill="#f7f8ec"
       id="path1116" />
    <path
       d="m 448,255 c 0,0 0,16 0,16 -5.311,0.142 -10.691,-0.178 -16,0 -4.811,0.161 -9.674,-0.117 -14.5,0 -1.31,4.961 -1.334,9.917 -1.5,15 -0.011,0.333 0.013,0.667 0,1 -20.323,-1.478 -14.581,1.125 -15,16 -4.648,0.042 -9.353,0.061 -14,0 -0.195,-0.003 -0.438,-3.111 -2.5,-3 -0.25,0.013 -1.704,2.913 -4,3 -1.982,0.075 -8.683,-2.201 -11,-1 -3.022,1.566 -0.461,13.496 -1.5,15.5 -1.518,2.929 -12.341,0.539 -14.5,1.5 -3.322,1.478 -0.347,12.277 -1.5,14.5 -1.235,2.381 -12.091,0.429 -14.5,1.5 -3.322,1.478 -0.348,12.274 -1.5,14.5 -1.42,2.743 -14.33,-0.779 -16,3 -0.877,1.983 0.818,12.845 0,14 -1.131,1.596 -13.47,-0.618 -15,1 -1.069,1.131 0.133,14.425 0,16.5 -0.142,2.217 -0.782,14.718 -1.5,15 -4.888,0.081 -9.653,-0.278 -14.5,0 0.339,-10.624 -0.455,-21.386 0,-32 17.971,1.309 14.936,-0.023 16,-16 0.351,-5.276 -0.272,-10.712 0,-16 0,0 15,-0.5 15,-0.5 0,0 -1,-15.5 -1,-15.5 0.96,-0.059 1.052,-0.957 2,-1 2.209,-0.099 13.507,2.604 15,0.5 0,0 -1,-15.5 -1,-15.5 0.954,-0.042 1.046,-0.959 2,-1 2.212,-0.095 13.508,2.601 15,0.5 0,0 -1,-15.5 -1,-15.5 0.954,-0.042 1.046,-0.959 2,-1 2.067,-0.088 12.698,2.278 14.5,1 1.41,-1 -0.477,-13.162 1.5,-16 5.231,-0.28 10.86,-0.829 16,-1 2.113,-0.07 12.704,2.273 14.5,1 1.41,-1 -0.477,-13.162 1.5,-16 15.625,0.407 31.364,-0.18 47,0 z"
       fill="#d0ee9a"
       id="path1118" />
    <path
       d="m 490,257 c -3.938,0.861 -22.579,-1.148 -24.5,0 -2.375,1.419 -0.245,13.317 -2,14 -1.679,0.654 -12.4,-0.083 -15.5,0 0,0 0,-16 0,-16 13.475,0.155 27.058,-0.074 40.5,0 0,0 1.5,2 1.5,2 z"
       fill="#c6e449"
       id="path1120" />
    <path
       d="m 548,255 c -1.103,27.315 -0.689,54.005 2,77.5 5.754,50.271 23.051,94.818 49,145.5 -5.632,1.519 -0.368,3.145 -3,6 -0.338,-0.639 -0.665,-1.359 -1,-2 -0.572,-1.093 -1.688,-2.394 -2,-3 -16.064,-31.158 -30.931,-64.339 -41,-98 -10.06,-33.631 -18.514,-75.593 -18,-111 0.208,-14.33 -3.453,-16.216 14,-15 z"
       fill="#1c3657"
       id="path1122" />
    <path
       d="m 490,257 c 0.066,0.638 -0.137,1.429 0,2 -2.879,-0.706 -4.669,1.041 -7,2 -12.199,5.021 -26.47,18.931 -36.5,28 -54.077,48.893 -104.252,106.845 -156.5,158 -0.329,0.038 -0.67,-0.032 -1,0 -0.329,0.032 -0.668,-0.021 -1,0 -0.855,-5.36 0.718,-10.796 1,-16 1.535,-28.364 0.953,-9.991 14.5,-16 3.338,-1.48 0.159,-14.696 2,-16 1.642,-1.163 14.016,1.839 15.5,-1.5 1.311,-2.951 -1.107,-11.531 -1,-14.5 2.676,-0.007 14.34,0.514 15.5,0 3.338,-1.48 0.159,-14.696 2,-16 1.642,-1.163 14.018,1.839 15.5,-1.5 0.941,-2.119 -1.117,-13.35 0.5,-14.5 1.634,-1.162 14.018,1.838 15.5,-1.5 0.941,-2.119 -1.117,-13.35 0.5,-14.5 1.634,-1.162 14.018,1.838 15.5,-1.5 0.941,-2.119 -1.117,-13.35 0.5,-14.5 1.73,-1.23 12.91,1.929 15.5,-1.5 0.437,-0.578 -0.066,-12.143 0,-14.5 2.943,-0.027 14.899,0.977 16,-1.5 1.136,-4.376 -1.143,-10.889 -1,-14.5 0.013,-0.333 -0.011,-0.667 0,-1 15.102,3.592 19.973,1.121 16,-15 5.309,-0.178 10.689,0.142 16,0 3.1,-0.083 13.821,0.654 15.5,0 1.755,-0.683 -0.375,-12.581 2,-14 1.921,-1.148 20.562,0.861 24.5,0 z"
       fill="#a6c440"
       id="path1124" />
    <path
       d="m 490,259 c 0.612,2.552 2.481,25.262 2,26.5 -0.149,0.384 -3.792,0.629 -4,3 -0.412,4.713 0.183,9.744 0,14.5 0,0 -40,0 -40,0 -0.058,-0.853 -1.346,-3.936 -1,-6 12.103,-11.865 24.591,-23.444 36,-36 2.331,-0.959 4.121,-2.706 7,-2 z"
       fill="#5b977c"
       id="path1126" />
    <path
       d="m 483,261 c -11.409,12.556 -23.897,24.135 -36,36 -44.868,43.988 -93.705,100.417 -140.5,140 -6.027,5.098 -8.941,9.126 -16.5,10 52.248,-51.155 102.423,-109.107 156.5,-158 10.03,-9.069 24.301,-22.979 36.5,-28 z"
       fill="#10406b"
       id="path1128" />
    <path
       d="m 523,270 c -0.023,0.315 -1.497,3.364 -2,6 -3.595,18.851 -7.941,38.193 -12,57 -6.818,31.594 -13.593,59.336 -24,90 0,0 -2,-26 -2,-26 12.529,-41.552 19.868,-81.567 22,-125 2.741,-0.338 13.046,0.835 14.5,-1 1.2,-1.515 0.21,-7.534 0.5,-10 2.214,0.673 3.117,7.42 3,9 z"
       fill="#d5c265"
       id="path1130" />
    <path
       d="m 534,270 c -0.514,35.407 7.94,77.369 18,111 -7.516,1.514 -0.574,16.747 -3,23 -14.823,-42.008 -22.778,-83.763 -28,-128 0.503,-2.636 1.977,-5.685 2,-6 0,0 11,0 11,0 z"
       fill="#bfc453"
       id="path1132" />
    <path
       d="m 369,271 c -1.977,2.838 -0.09,15 -1.5,16 -1.802,1.278 -12.433,-1.088 -14.5,-1 -1.308,-19.554 0.871,-14.191 16,-15 z"
       fill="#f8f9f0"
       id="path1134" />
    <path
       d="m 432,271 c 3.973,16.121 -0.898,18.592 -16,15 0.166,-5.083 0.19,-10.039 1.5,-15 4.826,-0.117 9.689,0.161 14.5,0 z"
       fill="#c9e950"
       id="path1136" />
    <path
       d="m 351,287 c 0,0 1,15.5 1,15.5 -1.492,2.101 -12.788,-0.595 -15,-0.5 0.502,-2.397 -0.679,-13.542 0,-14.5 0.726,-1.024 11.777,-0.403 14,-0.5 z"
       fill="#f8f8ee"
       id="path1138" />
    <path
       d="m 416,287 c -0.143,3.611 2.136,10.124 1,14.5 -1.101,2.477 -13.057,1.473 -16,1.5 0.419,-14.875 -5.323,-17.478 15,-16 z"
       fill="#c7e64b"
       id="path1140" />
    <path
       d="m 448,303 c 0.547,8.105 0.349,23.676 0,32 -23.796,-4.648 -12.897,11.769 -17,15.5 -1.145,1.041 -14.054,0.661 -15,2 -0.863,1.222 1.044,13.405 -0.5,14.5 -1.065,0.755 -13.935,-0.755 -15,0 -1.564,1.109 0.389,14.247 -0.5,15.5 -1.11,1.564 -14.246,-0.389 -15.5,0.5 -1.565,1.11 0.39,14.245 -0.5,15.5 -1.112,1.569 -14.888,-0.569 -16,1 -0.448,0.632 0.1,13.018 0,15.5 -0.013,0.333 0.017,0.667 0,1 0,0 -15.5,-1 -15.5,-1 0,0 -0.5,16 -0.5,16 -5.387,0.153 -10.727,0.766 -16,1 -14.698,0.653 -17.439,-7.101 -16,15 -16.093,0.739 -17.133,-3.763 -16,16 -4.977,-0.01 -10.028,0.143 -15,0 0,0 0,-16 0,-16 0.33,-0.032 0.671,0.038 1,0 7.559,-0.874 10.473,-4.902 16.5,-10 46.795,-39.583 95.632,-96.012 140.5,-140 -0.346,2.064 0.942,5.147 1,6 z"
       fill="#68a377"
       id="path1142" />
    <path
       d="m 387,303 c -4.318,1.317 -2.05,14.972 -3.5,16 -1.03,0.731 -12.967,-0.731 -14,0 -1.757,1.243 -0.907,13.357 -1.5,14.5 -1.492,2.877 -13.272,0.628 -14.5,1.5 -1.383,0.981 -0.857,13.77 -1.5,14.5 -2.747,3.12 -13.813,0.324 -15,2 -0.498,0.703 0.576,14.266 -1.5,15.5 -9.135,5.43 -14.482,-12.144 -15.5,16 -4.705,0.013 -10.66,-0.83 -15,1 0.133,-2.075 -1.069,-15.369 0,-16.5 1.53,-1.618 13.869,0.596 15,-1 0.818,-1.155 -0.877,-12.017 0,-14 1.67,-3.779 14.58,-0.257 16,-3 1.152,-2.226 -1.822,-13.022 1.5,-14.5 2.409,-1.071 13.265,0.881 14.5,-1.5 1.153,-2.223 -1.822,-13.022 1.5,-14.5 2.159,-0.961 12.982,1.429 14.5,-1.5 1.039,-2.004 -1.522,-13.934 1.5,-15.5 2.317,-1.201 9.018,1.075 11,1 2.296,-0.087 3.75,-2.987 4,-3 2.062,-0.111 2.305,2.997 2.5,3 z"
       fill="#ceef79"
       id="path1144" />
    <path
       d="m 335,303 c 0,0 1,15.5 1,15.5 -1.493,2.104 -12.791,-0.599 -15,-0.5 0.502,-2.397 -0.679,-13.542 0,-14.5 0.726,-1.024 11.777,-0.403 14,-0.5 z"
       fill="#f8f8ef"
       id="path1146" />
    <path
       d="m 387,303 c 4.647,0.061 9.352,0.042 14,0 -0.066,2.357 0.437,13.922 0,14.5 -2.59,3.429 -13.77,0.27 -15.5,1.5 -1.617,1.15 0.441,12.381 -0.5,14.5 -1.482,3.338 -13.866,0.338 -15.5,1.5 -1.617,1.15 0.441,12.381 -0.5,14.5 -1.482,3.338 -13.866,0.338 -15.5,1.5 -1.617,1.15 0.441,12.381 -0.5,14.5 -1.482,3.339 -13.858,0.337 -15.5,1.5 -1.841,1.304 1.338,14.52 -2,16 -1.16,0.514 -12.824,-0.007 -15.5,0 1.018,-28.144 6.365,-10.57 15.5,-16 2.076,-1.234 1.002,-14.797 1.5,-15.5 1.187,-1.676 12.253,1.12 15,-2 0.643,-0.73 0.117,-13.519 1.5,-14.5 1.228,-0.872 13.008,1.377 14.5,-1.5 0.593,-1.143 -0.257,-13.257 1.5,-14.5 1.033,-0.731 12.97,0.731 14,0 1.45,-1.028 -0.818,-14.683 3.5,-16 z"
       fill="#c6e548"
       id="path1148" />
    <path
       d="m 488,303 c -0.204,5.299 0.689,10.875 -1,16 -5.101,-6.039 -5.947,0.78 -7,2 -0.471,0.546 -1.11,-1.502 -2,-0.5 -0.437,0.492 1.255,2.692 -3,6.5 -8.191,7.329 -10.71,-2.956 -12,8 0,0 -15,1 -15,1 0.015,-0.333 -0.014,-0.667 0,-1 0.349,-8.324 0.547,-23.895 0,-32 0,0 40,0 40,0 z"
       fill="#4b7e77"
       id="path1150" />
    <path
       d="m 487,319 c 4.252,5.035 -4.246,26.639 -4.5,34 0,0 -2.5,-32 -2.5,-32 1.053,-1.22 1.899,-8.039 7,-2 z"
       fill="#fafaf9"
       id="path1152" />
    <path
       d="m 305,321 c -0.172,4.638 0.238,9.369 0,14 -0.272,5.288 0.351,10.724 0,16 -19.816,-0.963 -15.315,0.012 -16,16 -0.455,10.614 0.339,21.376 0,32 -4.625,0.265 -9.366,-0.192 -14,0 0,0 -2,-47.5 -2,-47.5 27.436,3.65 10.773,-16.133 17.5,-32.5 0,0 14.5,2 14.5,2 z"
       fill="#1e5d77"
       id="path1154" />
    <path
       d="m 319,319 c 0,0 1,15.5 1,15.5 0,0 -15,0.5 -15,0.5 0.238,-4.631 -0.172,-9.362 0,-14 0,0 2,-2 2,-2 3.969,-0.174 8.04,0.242 12,0 z"
       fill="#f9f8f0"
       id="path1156" />
    <path
       d="m 463,349 c 0,-4.339 -0.484,-9.887 0,-14 1.29,-10.956 3.809,-0.671 12,-8 3.458,2.041 4.977,21.122 4,22.5 0,0 -16,-0.5 -16,-0.5 z"
       fill="#1a6a80"
       id="path1158" />
    <path
       d="m 448,335 c -0.014,0.333 0.015,0.667 0,1 -0.103,2.319 -0.551,14.867 -1,15.5 -1.104,1.556 -13.897,-0.556 -15,1 -0.509,0.719 0.164,12.202 0,14.5 -2.002,0.013 -14.867,0.55 -15.5,1 -1.098,0.78 -0.311,12.605 -0.5,15 -5.384,0.271 -10.757,-0.314 -16,1.5 -0.323,4.777 0.447,9.759 0,14.5 -15.88,0.799 -17.139,-3.359 -16,16 -0.333,-0.004 -0.667,0.01 -1,0 -4.978,-0.157 -10.019,0.114 -15,0 0.1,-2.482 -0.448,-14.868 0,-15.5 1.112,-1.569 14.888,0.569 16,-1 0.89,-1.255 -1.065,-14.39 0.5,-15.5 1.254,-0.889 14.39,1.064 15.5,-0.5 0.889,-1.253 -1.064,-14.391 0.5,-15.5 1.065,-0.755 13.935,0.755 15,0 1.544,-1.095 -0.363,-13.278 0.5,-14.5 0.946,-1.339 13.855,-0.959 15,-2 4.103,-3.731 -6.796,-20.148 17,-15.5 z"
       fill="#528f78"
       id="path1160" />
    <path
       d="m 463,335 c -0.484,4.113 0,9.661 0,14 0,0 0,2 0,2 -2.681,-0.115 -14.886,-0.016 -16,2.5 -0.157,4.82 0.217,9.697 0,14.5 -0.225,4.984 1.126,10.586 1,15 -0.027,0.948 -0.958,1.041 -1,2 -5.04,-2.02 -10.838,-0.779 -16,-1 0.192,-5.796 0.589,-11.255 1,-17 0.164,-2.298 -0.509,-13.781 0,-14.5 1.103,-1.556 13.896,0.556 15,-1 0.449,-0.633 0.897,-13.181 1,-15.5 0,0 15,-1 15,-1 z"
       fill="#337e83"
       id="path1162" />
    <path
       d="m 520,343 c 1.953,3.161 6.123,26.375 8,32.5 14.298,46.66 34.38,91.424 58,134 -0.878,3.948 -36.481,-0.283 -40.5,1.5 -2.813,1.248 -1.024,11.22 -1.5,14 -0.024,0.139 -1.519,1.861 -2,2 -23.545,-1.079 -9.837,4.19 -14,14.5 -1.468,3.636 -11.495,2.271 -15,2.5 0.028,-0.916 -0.948,-1.013 -1,-2 -0.148,-2.792 0.519,-14.104 -1.5,-15 0,0 -58,0 -58,0 -3.184,-2.149 9.84,-20.011 11.5,-23.5 16.288,-34.227 31.274,-71.61 42,-108 4.278,-14.514 7.03,-39.745 12,-52 0.785,-1.936 0.572,-2.811 2,-0.5 z"
       fill="#fefaf3"
       id="path1164" />
    <path
       d="m 305,351 c -1.064,15.977 1.971,17.309 -16,16 0.685,-15.988 -3.816,-16.963 16,-16 z"
       fill="#f9f8ef"
       id="path1166" />
    <path
       d="m 463,351 c 1.318,0.056 0.93,0.994 1,1 -1.342,3.49 -2.483,14.584 1,15 -0.18,0.012 -1.66,1.934 -3,2 -4.118,0.202 -10.422,-2.203 -15,-1 0.217,-4.803 -0.157,-9.68 0,-14.5 1.114,-2.516 13.319,-2.615 16,-2.5 z"
       fill="#267889"
       id="path1168" />
    <path
       d="m 478,367 c -4.297,0.206 -8.715,-0.286 -13,0 -3.483,-0.416 -2.342,-11.51 -1,-15 2.295,0.19 13.222,-0.596 14,0.5 0.18,4.816 -0.249,9.703 0,14.5 z"
       fill="#2bb1e7"
       id="path1170" />
    <path
       d="m 432,367 c -0.411,5.745 -0.808,11.204 -1,17 -4.635,-0.198 -10.311,-1.236 -15,-1 0.189,-2.395 -0.598,-14.22 0.5,-15 0.633,-0.45 13.498,-0.987 15.5,-1 z"
       fill="#3e827f"
       id="path1172" />
    <path
       d="m 478,367 c 0.155,2.996 2.124,0.976 2,4.5 -0.027,0.765 -1.94,0.227 -2,1 -1.055,13.699 -1.62,8.719 -15,8.5 0,-4.064 0.411,-8.07 -1,-12 1.34,-0.066 2.82,-1.988 3,-2 4.285,-0.286 8.703,0.206 13,0 z"
       fill="#166077"
       id="path1174" />
    <path
       d="m 462,369 c 1.411,3.93 1,7.936 1,12 0,0 0,2 0,2 -4.974,-0.193 -10.022,0.14 -15,0 0.126,-4.414 -1.225,-10.016 -1,-15 4.578,-1.203 10.882,1.202 15,1 z"
       fill="#25ace3"
       id="path1176" />
    <path
       d="m 593,479 c 0,0 -11,1 -11,1 -7.43,-14.782 -13.639,-29.743 -20,-45 -0.258,-7.084 2.06,-23.579 -8,-20 -1.222,-3.237 -3.611,-7.064 -5,-11 2.426,-6.253 -4.516,-21.486 3,-23 10.069,33.661 24.936,66.842 41,98 z"
       fill="#90b369"
       id="path1178" />
    <path
       d="m 320,383 c -0.107,2.969 2.311,11.549 1,14.5 -1.484,3.339 -13.858,0.337 -15.5,1.5 -1.841,1.304 1.338,14.52 -2,16 -13.547,6.009 -12.965,-12.364 -14.5,16 -16.065,-1.615 -15.783,0.878 -13,16 0,0 -1,0 -1,0 0,0 -2,0 -2,0 -0.285,-10.401 -0.42,-21.623 0,-32 2.211,-0.482 14.867,-0.55 15.5,-1 1.007,-0.715 0.427,-12.699 0.5,-15 4.847,-0.278 9.612,0.081 14.5,0 0.718,-0.282 1.358,-12.783 1.5,-15 4.34,-1.83 10.295,-0.987 15,-1 z"
       fill="#cbeb61"
       id="path1180" />
    <path
       d="m 416,383 c -0.406,5.153 -1.038,10.308 -1,15.5 -4.733,2.398 -11.047,0.301 -15,0.5 0.447,-4.741 -0.323,-9.723 0,-14.5 5.243,-1.814 10.616,-1.229 16,-1.5 z"
       fill="#40827e"
       id="path1182" />
    <path
       d="m 431,384 c -0.165,4.977 0.144,10.021 0,15 -0.019,0.66 0.025,1.34 0,2 0,0 -14.5,-2 -14.5,-2 -1.996,0.679 -2.916,14.755 0.5,16 -0.111,0.01 0.509,0.782 -2,1 -2.3,0.2 -14.638,-1.157 -15,-0.5 -0.995,1.805 1.009,13.129 0,15.5 -0.182,0.428 0.088,1.149 -1,1 0,0 -15,-0.5 -15,-0.5 0,0 0,15.5 0,15.5 -10.15,0.325 -20.947,0.586 -31,-1 4.766,-0.371 9.705,0.268 14.5,0 -0.535,-17.183 0.325,-13.208 15.5,-15.5 0,0 0,-15.5 0,-15.5 0.333,0.01 0.667,-0.004 1,0 4.61,0.057 8.928,0.684 13.5,1 1.781,-0.823 2.219,-14.016 2.5,-17 3.953,-0.199 10.267,1.898 15,-0.5 -0.038,-5.192 0.594,-10.347 1,-15.5 4.689,-0.236 10.365,0.802 15,1 z"
       fill="#268298"
       id="path1184" />
    <path
       d="m 447,385 c -0.097,2.223 0.524,13.274 -0.5,14 -0.993,0.704 -12.988,-0.522 -15.5,0 0.144,-4.979 -0.165,-10.023 0,-15 5.162,0.221 10.96,-1.02 16,1 z"
       fill="#199ed5"
       id="path1186" />
    <path
       d="m 463,383 c 0.333,0.013 0.668,-0.019 1,0 -0.304,26.407 -5.241,11.45 -15.5,16 -3.338,1.48 -0.159,14.696 -2,16 -1.642,1.163 -14.018,-1.839 -15.5,1.5 -0.941,2.119 1.117,13.35 -0.5,14.5 -1.634,1.162 -14.019,-1.838 -15.5,1.5 -0.877,1.975 0.818,12.847 0,14 -1.389,1.959 -14.109,-1.874 -16,3 -0.854,2.201 1.059,12.395 -0.5,13.5 -2.549,1.808 -54.805,-1.382 -62.5,0 0.153,-5.302 0,-10.692 0,-16 5.783,-0.256 11.239,-0.552 17,-1 10.053,1.586 20.85,1.325 31,1 2.301,-0.074 14.286,0.507 15,-0.5 0.679,-0.958 -0.502,-12.103 0,-14.5 1.088,0.149 0.818,-0.572 1,-1 2.478,-0.416 14.097,0.774 15,-0.5 0.679,-0.958 -0.502,-12.103 0,-14.5 2.509,-0.218 1.889,-0.99 2,-1 4.42,-0.397 9.047,0.287 13.5,0 1.014,-0.719 0.415,-11.788 0.5,-14 0.025,-0.66 -0.019,-1.34 0,-2 2.512,-0.522 14.507,0.704 15.5,0 1.024,-0.726 0.403,-11.777 0.5,-14 0.042,-0.959 0.973,-1.052 1,-2 4.978,0.14 10.026,-0.193 15,0 z"
       fill="#175e77"
       id="path1188" />
    <path
       d="m 485,423 c -5.163,15.212 -10.801,30.194 -17,45 0,0 -2,-23 -2,-23 6.207,-15.404 12.204,-32.095 17,-48 0,0 2,26 2,26 z"
       fill="#5da73e"
       id="path1190" />
    <path
       d="m 289,399 c -0.073,2.301 0.507,14.285 -0.5,15 -0.633,0.45 -13.289,0.518 -15.5,1 0.188,-4.639 -0.136,-9.356 0,-14 0,0 2,-2 2,-2 4.634,-0.192 9.375,0.265 14,0 z"
       fill="#d5eebc"
       id="path1192" />
    <path
       d="m 400,399 c -0.281,2.984 -0.719,16.177 -2.5,17 -4.572,-0.316 -8.89,-0.943 -13.5,-1 -1.139,-19.359 0.12,-15.201 16,-16 z"
       fill="#41817e"
       id="path1194" />
    <path
       d="m 431,401 c -0.085,2.212 0.514,13.281 -0.5,14 -4.453,0.287 -9.08,-0.397 -13.5,0 -3.416,-1.245 -2.496,-15.321 -0.5,-16 0,0 14.5,2 14.5,2 z"
       fill="#1ea6dd"
       id="path1196" />
    <path
       d="m 273,401 c -0.136,4.644 0.188,9.361 0,14 -0.42,10.377 -0.285,21.599 0,32 0.141,5.147 -0.102,10.339 0,15.5 0,0 2,0.5 2,0.5 4.649,0.097 9.354,-0.134 14,0 4.972,0.143 10.023,-0.01 15,0 10.582,0.022 21.532,-0.833 32,1 -0.081,2.307 0.513,14.282 -0.5,15 0,0 -78.5,-0.5 -78.5,-0.5 0,0 0,-78 0,-78 0,0 16,0.5 16,0.5 z"
       fill="#1b5e78"
       id="path1198" />
    <path
       d="m 368,416 c -0.143,2.879 1.042,15.132 -1.5,16 -4.396,-1.58 -9.991,-1.128 -14.5,-1 0,0 0.5,-16 0.5,-16 0,0 15.5,1 15.5,1 z"
       fill="#508e7a"
       id="path1200" />
    <path
       d="m 383,415 c 0,0 0,15.5 0,15.5 -15.175,2.292 -16.035,-1.683 -15.5,15.5 -4.795,0.268 -9.734,-0.371 -14.5,0 -5.761,0.448 -11.217,0.744 -17,1 0,0 0,-15 0,-15 5.273,-0.234 10.613,-0.847 16,-1 4.509,-0.128 10.104,-0.58 14.5,1 2.542,-0.868 1.357,-13.121 1.5,-16 0.017,-0.333 -0.013,-0.667 0,-1 4.981,0.114 10.022,-0.157 15,0 z"
       fill="#3e8481"
       id="path1202" />
    <path
       d="m 415,416 c -0.502,2.397 0.679,13.542 0,14.5 -0.903,1.274 -12.522,0.084 -15,0.5 1.009,-2.371 -0.995,-13.695 0,-15.5 0.362,-0.657 12.7,0.7 15,0.5 z"
       fill="#24ace4"
       id="path1204" />
    <path
       d="m 562,435 c -2.834,-6.798 -5.388,-13.081 -8,-20 10.06,-3.579 7.742,12.916 8,20 z"
       fill="#c8bb7c"
       id="path1206" />
    <path
       d="m 289,431 c -0.282,5.204 -1.855,10.64 -1,16 -3.934,0.244 -8.047,0 -12,0 -2.783,-15.122 -3.065,-17.615 13,-16 z"
       fill="#c3e455"
       id="path1208" />
    <path
       d="m 336,432 c 0,0 0,15 0,15 -5.3,0.234 -10.701,-0.243 -16,0 -1.439,-22.101 1.302,-14.347 16,-15 z"
       fill="#569379"
       id="path1210" />
    <path
       d="m 399,432 c -0.502,2.397 0.679,13.542 0,14.5 -0.714,1.007 -12.699,0.426 -15,0.5 0,0 0,-15.5 0,-15.5 0,0 15,0.5 15,0.5 z"
       fill="#24abe1"
       id="path1212" />
    <path
       d="m 468,468 c -1.945,4.647 -3.933,9.408 -6,14 -9.202,-2.739 -2.557,-10.679 -5,-17 2.946,-6.587 6.316,-13.338 9,-20 0,0 2,23 2,23 z"
       fill="#a4c468"
       id="path1214" />
    <path
       d="m 275,447 c 0,0 0,16 0,16 0,0 -2,-0.5 -2,-0.5 -0.102,-5.161 0.141,-10.353 0,-15.5 0,0 2,0 2,0 z"
       fill="#9fd3e4"
       id="path1216" />
    <path
       d="m 288,447 c 0.332,-0.021 0.671,0.032 1,0 0,0 0,16 0,16 -4.646,-0.134 -9.351,0.097 -14,0 0,0 0,-16 0,-16 0,0 1,0 1,0 3.953,0 8.066,0.244 12,0 z"
       fill="#5ebcdb"
       id="path1218" />
    <path
       d="m 320,447 c 5.299,-0.243 10.7,0.234 16,0 0,5.308 0.153,10.698 0,16 -0.01,0.333 0.012,0.667 0,1 -10.468,-1.833 -21.418,-0.978 -32,-1 -1.133,-19.763 -0.093,-15.261 16,-16 z"
       fill="#3d8f93"
       id="path1220" />
    <path
       d="m 462,482 c -2.246,4.991 -4.591,10.085 -7,15 -2.591,-0.109 -4.222,-1.076 -7,-1 -4.727,0.129 -4.341,1.196 -8,6 5.117,-12.567 11.467,-24.628 17,-37 2.443,6.321 -4.202,14.261 5,17 z"
       fill="#dbc781"
       id="path1222" />
    <path
       d="m 626,526 c -2.604,-0.269 -4.363,1.03 -5,1 -2.933,-4.664 -6.167,-9.281 -9,-14 -1.354,-2.255 -2.669,-4.718 -4,-7 -2.304,-3.95 -4.816,-8.01 -7,-12 -1.78,-3.252 -3.266,-6.721 -5,-10 2.632,-2.855 -2.632,-4.481 3,-6 3.225,6.299 7.969,12.204 9,19.5 0,0 18,28.5 18,28.5 z"
       fill="#174256"
       id="path1224" />
    <path
       d="m 593,479 c 0.312,0.606 1.428,1.907 2,3 -3.238,-0.161 -2.074,8.696 -2,12 0.026,1.148 2.044,3.389 -1,5 -3.442,-6.26 -6.791,-12.615 -10,-19 0,0 11,-1 11,-1 z"
       fill="#aebe6b"
       id="path1226" />
    <path
       d="m 595,482 c 0.335,0.641 0.662,1.361 1,2 1.734,3.279 3.22,6.748 5,10 0,0 -8,0 -8,0 -0.074,-3.304 -1.238,-12.161 2,-12 z"
       fill="#57a844"
       id="path1228" />
    <path
       d="m 601,494 c 2.184,3.99 4.696,8.05 7,12 -1.422,5.9 -3.694,3.723 -9,4 -2.109,-3.667 -4.905,-7.189 -7,-11 3.044,-1.611 1.026,-3.852 1,-5 0,0 8,0 8,0 z"
       fill="#8fb45c"
       id="path1230" />
    <path
       d="m 448,496 c 1.062,18.061 -0.58,10.758 -9,14 -0.975,0.375 -5.69,3.665 -6,4 2.185,-3.987 4.24,-8.376 7,-12 3.659,-4.804 3.273,-5.871 8,-6 z"
       fill="#b4bd70"
       id="path1232" />
    <path
       d="m 455,497 c -2.143,4.372 -14.182,30.375 -17,31 0,0 1,-18 1,-18 8.42,-3.242 10.062,4.061 9,-14 2.778,-0.076 4.409,0.891 7,1 z"
       fill="#d2c485"
       id="path1234" />
    <path
       d="m 612,513 c -4.668,2.962 -3.232,9.076 -2,14 -0.333,0.008 -0.667,-0.008 -1,0 -4.814,-4.653 -6.787,-11.412 -10,-17 5.306,-0.277 7.578,1.9 9,-4 1.331,2.282 2.646,4.745 4,7 z"
       fill="#c8b676"
       id="path1236" />
    <path
       d="m 439,510 c 0,0 -1,18 -1,18 -0.59,0.131 -11.975,-0.896 -12,-1.5 2.582,-3.27 4.311,-9.596 7,-12.5 0.31,-0.335 5.025,-3.625 6,-4 z"
       fill="#7cb449"
       id="path1238" />
    <path
       d="m 400,526 c -14.507,0.385 -28.91,1.492 -43.5,1 -1.828,-0.062 -4.935,1.009 -4.5,-2 0.473,-2.779 -1.311,-12.753 1.5,-14 2.102,-0.933 44.124,-1.331 46,0 1.274,0.903 0.084,12.522 0.5,15 z"
       fill="#283f67"
       id="path1240" />
    <path
       d="m 703,525 c 0,0 -63,2 -63,2 0.023,-2.349 -0.467,-15.314 0.5,-16 7.651,1.37 59.471,-1.793 62,0 1.589,1.127 -0.363,11.675 0.5,14 z"
       fill="#283e67"
       id="path1242" />
    <path
       d="m 587.5,512 c 5.448,0.619 4.587,6.966 6.5,10.5 -0.939,2.247 -46.916,2.441 -48,0 -0.35,-0.787 -0.117,-9.062 0.5,-9.5 11.89,1.991 30.134,-2.235 41,-1 z"
       fill="#273f66"
       id="path1244" />
    <path
       d="m 621,527 c -3.602,-0.168 -7.391,-0.091 -11,0 -1.232,-4.924 -2.668,-11.038 2,-14 2.833,4.719 6.067,9.336 9,14 z"
       fill="#9bb467"
       id="path1246" />
    <path
       d="m 400,526 c 0.112,-0.003 -0.484,1.069 2,1 -0.14,0.479 -1.86,1.979 -2,2 -14.344,2.143 -33.222,-1.638 -48,0 0.149,-1.088 -0.573,-0.818 -1,-1 -0.811,-2.213 0.973,-2.844 1,-3 -0.435,3.009 2.672,1.938 4.5,2 14.59,0.492 28.993,-0.615 43.5,-1 z"
       fill="#f4b3d4"
       id="path1248" />
    <path
       d="m 592,531 c -1.802,-2.53 -1.787,-1.79 -4.5,-2 -14.237,-1.1 -29.11,-0.321 -43.5,-1 -2.515,-0.119 -1.888,-0.995 -2,-1 0.481,-0.139 1.976,-1.861 2,-2 7.561,5.629 42.818,-0.787 47.5,2 1.012,0.603 0.295,2.902 0.5,4 z"
       fill="#f5b4d5"
       id="path1250" />
    <path
       d="m 609,527 c 0.333,-0.008 0.667,0.008 1,0 3.609,-0.091 7.398,-0.168 11,0 0.637,0.03 2.396,-1.269 5,-1 11.879,1.229 11.371,5.551 11.5,16 0,0 -44,0 -44,0 -0.318,-21.01 0.715,-14.666 15.5,-15 z"
       fill="#234267"
       id="path1252" />
    <path
       d="m 705,527 c -0.018,0.838 -0.738,1.039 -1,2 -2.517,0.524 -14.498,-0.708 -15.5,0 -1.812,1.28 1.305,13.535 -2,15 -10.654,4.724 -14.289,-10.584 -16,16 0,0 -14.5,-2 -14.5,-2 -0.169,-4.475 0.122,-9.009 0,-13.5 -0.727,-1.025 -11.776,-0.402 -14,-0.5 -2.516,-0.111 -1.888,-0.997 -2,-1 0,0 0,-14 0,-14 0,-0.661 -0.006,-1.339 0,-2 0,0 63,-2 63,-2 0.049,0.133 1.514,1.841 2,2 z"
       fill="#fe7aad"
       id="path1254" />
    <path
       d="m 351,528 c 0.427,0.182 1.149,-0.088 1,1 1.167,3.904 -1.166,11.054 -1,14 -23.533,-3.772 -11.385,10.402 -15,15.5 -1.389,1.959 -14.11,-1.874 -16,3 -0.813,2.095 0.779,11.897 0,13 -1.28,1.812 -13.535,-1.305 -15,2 -1.662,3.749 1.662,23.256 0,27 -1.753,3.95 -12.584,-0.939 -15,2.5 -1.083,-3.605 -1.852,-28.295 -1,-29.5 0.703,-0.995 13.853,-0.078 15,-2 0.936,-1.567 -1.098,-13.364 0.5,-14.5 1.311,-0.932 13.97,1.453 15.5,-1.5 1.199,-2.313 -1.869,-14.005 1.5,-15.5 8.849,-3.928 14.542,11.455 16,-16 0.619,-0.275 12.877,0.735 13.5,1 z"
       fill="#273e67"
       id="path1256" />
    <path
       d="m 542,527 c 0.112,0.005 -0.515,0.881 2,1 1.066,4.869 -1.012,10.373 -1,15 -23.536,-3.766 -11.382,10.386 -15,15.5 -1.132,1.601 -11.624,-0.804 -14.5,1.5 -3.395,2.72 -0.311,12.828 -1.5,14.5 -1.169,1.644 -14.237,-1.378 -16,3 -1.419,3.524 -0.024,53.93 0,62.5 0.022,8.051 -1.247,58.689 0,61.5 1.292,2.911 12.116,0.919 15,1.5 -0.19,26.425 5.461,11.544 15.5,16 3.338,1.482 0.338,13.866 1.5,15.5 1.15,1.617 12.381,-0.441 14.5,0.5 5.161,2.291 -4.067,15.237 6.5,17 2.061,0.344 10.148,-0.702 11,0.5 0.861,1.214 -1.042,13.406 0.5,14.5 5.139,3.644 110.964,-2.8 126,0 -2.463,-26.188 9.976,-11.716 16,-16 1.617,-1.15 -0.441,-12.381 0.5,-14.5 1.482,-3.338 13.866,-0.338 15.5,-1.5 1.617,-1.15 -0.441,-12.381 0.5,-14.5 1.482,-3.339 13.858,-0.337 15.5,-1.5 1.841,-1.304 -1.338,-14.52 2,-16 2.119,-0.94 13.354,1.117 14.5,-0.5 3.659,-5.159 -3.535,-111.408 1,-126.5 2.478,0.416 14.097,-0.774 15,0.5 3.644,5.139 -2.8,110.964 0,126 -26.188,-2.463 -11.716,9.976 -16,16 -1.15,1.617 -12.381,-0.441 -14.5,0.5 -3.338,1.482 -0.338,13.866 -1.5,15.5 -1.15,1.617 -12.381,-0.441 -14.5,0.5 -3.339,1.482 -0.337,13.858 -1.5,15.5 -1.304,1.841 -14.52,-1.338 -16,2 -0.76,1.715 0.424,10.434 0,13.5 -0.045,0.325 0.071,0.688 0,1 -24.6,-5.513 -12.642,13.274 -16.5,16 -5.145,3.635 -110.961,-2.793 -126,0 -1.616,-1.146 0.44,-12.379 -0.5,-14.5 -0.673,-1.52 -13.536,-2.238 -16,-2.5 3.821,-24.47 -9.939,-11.061 -15.5,-15 -1.841,-1.304 1.338,-14.52 -2,-16 -0.64,-0.284 -13.36,-0.284 -14,0 -3.339,1.482 -0.337,13.858 -1.5,15.5 -2.724,3.846 -21.353,-7.879 -16,15.5 -0.071,-10e-4 0.292,1.018 -1,1 -4.651,-0.063 -9.348,0.044 -14,0 -0.005,-4.826 -0.295,-9.672 -1,-14.5 27.921,-1.666 11.85,-6.65 16,-16 1.799,-4.054 14.902,1.6 17,-4 7.079,-18.891 -14.607,-12.037 -16,-14 -5.871,-8.276 13.284,-16.29 -16,-15.5 0.173,-26.315 -0.232,-52.686 0,-79 0.094,-10.637 -0.306,-21.372 0,-32 0.071,-2.456 -0.448,-14.867 0,-15.5 0.882,-1.246 14.024,0.268 15.5,-1.5 1.598,-1.913 -0.381,-13.258 0.5,-14.5 1.389,-1.959 14.11,1.874 16,-3 0.577,-1.489 -0.123,-8.911 0,-11.5 0.12,-2.516 0.997,-1.888 1,-2 3.505,-0.229 13.532,1.136 15,-2.5 4.163,-10.31 -9.545,-15.579 14,-14.5 z"
       fill="#263a65"
       id="path1258" />
    <path
       d="m 735,559 c 0,0 -15.5,0 -15.5,0 -5.364,-3.804 11.567,-18.721 -16.5,-17 -0.094,-4.34 -0.15,-8.779 1,-13 0.262,-0.961 0.982,-1.162 1,-2 2.585,0.848 10.448,-0.907 12.5,0 3.609,1.595 -0.609,14.4 3,16 12.266,5.437 13.885,-11.491 14.5,16 z"
       fill="#283b66"
       id="path1260" />
    <path
       d="m 400,529 c -1.173,19.398 0.013,14.539 16,15 0,0 0,16 0,16 -5.321,0 -10.679,-0.002 -16,0 -14.944,0.006 -30.073,-0.456 -45,0 -3.985,-1.821 -3.736,-12.306 -4,-17 -0.166,-2.946 2.167,-10.096 1,-14 14.778,-1.638 33.656,2.143 48,0 z"
       fill="#fe78a9"
       id="path1262" />
    <path
       d="m 592,531 c 0.43,2.302 -0.773,12.097 0.5,13 0.632,0.448 13.045,-0.071 15.5,0 0,0 0,16 0,16 -5.32,0.003 -10.68,-0.012 -16,0 -14.297,0.032 -28.713,-0.348 -43,0 -6.211,0.548 -5.985,-11.24 -6,-17 -0.012,-4.627 2.066,-10.131 1,-15 14.39,0.679 29.263,-0.1 43.5,1 2.713,0.21 2.698,-0.53 4.5,2 z"
       fill="#fe79aa"
       id="path1264" />
    <path
       d="m 704,529 c -1.15,4.221 -1.094,8.66 -1,13 -0.103,0.006 0.335,1.909 -0.5,2 -2.983,0.325 -13.304,-1.195 -14.5,1.5 -1.424,6.429 2.139,42.973 0,46 -1.301,1.841 -14.52,-1.337 -16,2 -0.591,1.334 0.126,11.672 0,14.5 -0.235,5.299 0.161,10.694 0,16 -25.937,3.835 -11.887,-9.715 -16,-15.5 -0.42,-0.591 -13.593,-0.903 -14.5,-0.5 -3.338,1.482 -0.338,13.866 -1.5,15.5 -1.15,1.617 -12.381,-0.441 -14.5,0.5 -3.339,1.482 -0.337,13.858 -1.5,15.5 -1.304,1.841 -14.52,-1.338 -16,2 -0.94,2.119 1.117,13.353 -0.5,14.5 -2.366,1.679 -29.814,-2.296 -31.5,1.5 -0.396,0.893 -0.081,13.087 0.5,13.5 5.866,4.171 20.349,-8.517 15,17 -13.977,0.426 -28.071,-0.466 -42,0 -0.292,0.01 -4.799,1.969 -5.5,2 -4.522,0.198 -10.354,-3.035 -15,0 -0.051,-0.132 -1.868,-1.949 -2,-2 3.459,-0.946 1.962,-11.572 2,-16 26.727,-0.596 9.583,-2.296 15,-14.5 1.482,-3.338 13.866,-0.338 15.5,-1.5 1.617,-1.15 -0.441,-12.381 0.5,-14.5 1.482,-3.339 13.858,-0.337 15.5,-1.5 1.841,-1.304 -1.338,-14.52 2,-16 3.452,-1.531 28.116,1.336 30,0 1.617,-1.147 -0.44,-12.382 0.5,-14.5 1.482,-3.338 13.866,-0.338 15.5,-1.5 1.013,-0.72 0.417,-11.788 0.5,-14 0.013,-0.333 -0.01,-0.667 0,-1 26.407,-0.304 11.45,-5.241 16,-15.5 1.48,-3.337 14.699,-0.159 16,-2 0.447,-0.633 -0.033,-13.085 0,-15.5 0.009,-0.66 0.025,-1.341 0,-2 0,0 14.5,2 14.5,2 1.711,-26.584 5.346,-11.276 16,-16 3.305,-1.465 0.188,-13.72 2,-15 1.002,-0.708 12.983,0.524 15.5,0 z"
       fill="#fd5e91"
       id="path1266" />
    <path
       d="m 513,544 c -0.003,0.112 -0.88,-0.516 -1,2 -3.883,-1.014 -30.213,-1.909 -31.5,-1 -1.813,1.28 1.306,13.528 -2,15 0,0 -14.5,-2 -14.5,-2 -0.098,-2.126 0.523,-12.274 -0.5,-13 -5.225,0.818 -10.439,-0.67 -15.5,-1 0,0 64,-2 64,-2 0.052,0.987 1.028,1.084 1,2 z"
       fill="#ff7eb0"
       id="path1268" />
    <path
       d="m 735,559 c 0.015,0.66 0,1.339 0,2 0,0 0,14 0,14 -3.852,0.044 -28.151,0.401 -29.5,1 -3.287,1.459 -0.398,12.02 -1.5,14.5 -1.501,3.378 -12.571,0.071 -15,2 -4.747,3.77 8.426,20.402 -17,15.5 0.126,-2.828 -0.591,-13.166 0,-14.5 1.48,-3.337 14.699,-0.159 16,-2 2.139,-3.027 -1.424,-39.571 0,-46 1.196,-2.695 11.517,-1.175 14.5,-1.5 0.835,-0.091 0.397,-1.994 0.5,-2 28.067,-1.721 11.136,13.196 16.5,17 0,0 15.5,0 15.5,0 z"
       fill="#e13877"
       id="path1270" />
    <path
       d="m 351,543 c 0.264,4.694 0.015,15.179 4,17 -2.512,0.077 -1.888,0.997 -2,1 -2.416,0.073 -14.508,-2.6 -16,-0.5 -0.377,0.531 -1.272,12.408 -1,13 1.517,3.299 8.912,-0.12 11,2.5 -2.883,0.367 -6.445,-0.128 -9.5,0 -0.821,0.034 -0.397,1.996 -0.5,2 -1.492,0.058 -0.747,-2.029 -1.5,-2 -2.507,0.096 -13.078,-0.477 -14,0 -4.568,2.362 0.506,15.161 0.5,16 -0.034,4.417 -1,9.324 -1,14 -3.488,0.497 -13.726,-1.26 -16,1.5 -5.913,7.176 9.334,20.217 -16,16.5 0.148,-4.613 -0.776,-11.992 0,-16 0.021,-0.11 0.936,-1.909 1,-2 2.416,-3.439 13.247,1.45 15,-2.5 1.662,-3.744 -1.662,-23.251 0,-27 1.465,-3.305 13.72,-0.188 15,-2 0.779,-1.103 -0.813,-10.905 0,-13 1.89,-4.874 14.611,-1.041 16,-3 3.615,-5.098 -8.533,-19.272 15,-15.5 z"
       fill="#fe8aba"
       id="path1272" />
    <path
       d="m 543,543 c 0.015,5.76 -0.211,17.548 6,17 -2.398,0.058 -3.794,0.992 -4,1 -3.283,0.128 -12.653,-2.611 -16,-0.5 -0.074,9.514 -5.335,14.905 8,15.5 -2.214,0.328 -5.102,-0.1 -7.5,0 -0.821,0.034 -0.397,1.994 -0.5,2 -1.481,0.081 -0.751,-2.029 -1.5,-2 -4.653,0.181 -9.343,-0.13 -14,0 0,0 -1.5,14.5 -1.5,14.5 2.652,-0.218 9.314,1.582 11,1.5 -2.362,0.393 -8.822,-1.159 -10,1.5 -1.008,2.275 0.046,40.141 0,46.5 0,0 -17,0 -17,0 -0.024,-8.57 -1.419,-58.976 0,-62.5 1.763,-4.378 14.831,-1.356 16,-3 1.189,-1.672 -1.895,-11.78 1.5,-14.5 2.876,-2.304 13.368,0.101 14.5,-1.5 3.618,-5.114 -8.536,-19.266 15,-15.5 z"
       fill="#ff86b6"
       id="path1274" />
    <path
       d="m 642,544 c -3.953,3.26 -1.224,10.792 -2,16 -5.655,-0.08 -11.389,-0.002 -17,0 -4.988,0.002 -10.012,-0.003 -15,0 0,0 0,-16 0,-16 10.593,0.306 21.644,-1.282 32,-1 0.112,0.003 -0.516,0.889 2,1 z"
       fill="#e13a77"
       id="path1276" />
    <path
       d="m 448,544 c 5.061,0.33 10.275,1.818 15.5,1 1.023,0.726 0.402,10.874 0.5,13 0.043,0.925 -1,1.04 -1,2 0,0 -31,0 -31,0 0,0 -16,0 -16,0 0,0 0,-16 0,-16 10.586,0.305 21.458,-0.687 32,0 z"
       fill="#d83173"
       id="path1278" />
    <path
       d="m 656,558 c 0.025,0.659 0.009,1.34 0,2 -5.319,-0.054 -10.682,0.075 -16,0 0.776,-5.208 -1.953,-12.74 2,-16 2.224,0.098 13.273,-0.525 14,0.5 0.122,4.491 -0.169,9.025 0,13.5 z"
       fill="#cd2870"
       id="path1280" />
    <path
       d="m 512,546 c -0.123,2.589 0.577,10.011 0,11.5 -1.89,4.874 -14.611,1.041 -16,3 -0.881,1.242 1.098,12.587 -0.5,14.5 -1.476,1.768 -14.618,0.254 -15.5,1.5 -0.448,0.633 0.071,13.044 0,15.5 -20.156,-0.97 -15.267,-0.405 -16,16 -25.937,-3.835 -11.887,9.715 -16,15.5 -1.15,1.617 -12.381,-0.441 -14.5,0.5 -3.339,1.482 -0.337,13.858 -1.5,15.5 -1.304,1.841 -14.52,-1.338 -16,2 -0.94,2.119 1.117,13.353 -0.5,14.5 -2.366,1.679 -29.814,-2.296 -31.5,1.5 -0.402,0.906 -0.092,14.08 0.5,14.5 1.254,0.889 14.39,-1.064 15.5,0.5 0,0 -0.5,15.5 -0.5,15.5 -14.31,0.361 -28.699,-0.488 -43,0 -0.246,0.008 -3.718,1.963 -4.5,2 -4.508,0.213 -10.363,-3.045 -15,0 -0.051,-0.132 -1.868,-1.949 -2,-2 4.645,-2.193 0.983,-12.727 1,-16 0.025,-4.972 0.803,-10.844 1,-16 4.289,0 27.864,0.723 29.5,0 3.608,-1.595 -0.608,-14.404 3,-16 2.125,-0.94 13.35,1.117 14.5,-0.5 1.162,-1.634 -1.838,-14.019 1.5,-15.5 3.449,-1.531 28.116,1.336 30,0 1.617,-1.147 -0.44,-12.382 0.5,-14.5 1.482,-3.338 13.866,-0.338 15.5,-1.5 1.01,-0.718 0.421,-11.791 0.5,-14 0.214,-5.956 0,-12.035 0,-18 0,0 31.5,0 31.5,0 2.051,-1.454 -0.499,-13.608 -0.5,-16 0,-0.96 1.043,-1.075 1,-2 0,0 14.5,2 14.5,2 3.306,-1.472 0.187,-13.72 2,-15 1.287,-0.909 27.617,-0.014 31.5,1 z"
       fill="#fd6092"
       id="path1282" />
    <path
       d="m 640,560 c 5.318,0.075 10.681,-0.054 16,0 -0.033,2.415 0.447,14.867 0,15.5 -1.301,1.841 -14.52,-1.337 -16,2 -4.55,10.259 10.407,15.196 -16,15.5 0.327,-10.824 0.584,-22.268 -1,-33 5.611,-0.002 11.345,-0.08 17,0 z"
       fill="#ff76a7"
       id="path1284" />
    <path
       d="m 353,561 c -1.404,8.993 4.555,13.657 -6,15 -2.088,-2.62 -9.483,0.799 -11,-2.5 -0.272,-0.592 0.623,-12.469 1,-13 1.492,-2.1 13.584,0.573 16,0.5 z"
       fill="#ff79a6"
       id="path1286" />
    <path
       d="m 355,560 c 14.927,-0.456 30.056,0.006 45,0 0,0 1,35 1,35 -10.82,0.016 -21.668,-0.012 -32.5,0 -1.051,0.745 -0.369,11.749 -0.5,14 -23.277,-4.712 -12.651,9.949 -15,13.5 -1.455,2.199 -15.531,2.335 -16,3 -0.883,1.253 -1.137,26.799 -3,30.5 0,0 -13,0 -13,0 -0.07,-5.318 0.049,-10.681 0,-16 -0.105,-11.314 0,-22.684 0,-34 0,-4.676 0.966,-9.583 1,-14 14.739,0.53 16.26,1.925 15,-14 0.103,-0.004 -0.321,-1.966 0.5,-2 3.055,-0.128 6.617,0.367 9.5,0 10.555,-1.343 4.596,-6.007 6,-15 0.112,-0.003 -0.512,-0.923 2,-1 z"
       fill="#fefcfd"
       id="path1288" />
    <path
       d="m 416,560 c 0,0 16,0 16,0 0,0 0,16 0,16 0,5.965 0.214,12.044 0,18 -10.129,1.827 -20.755,0.985 -31,1 0,0 -1,-35 -1,-35 5.321,-0.002 10.679,0 16,0 z"
       fill="#ecc7d7"
       id="path1290" />
    <path
       d="m 463,560 c 10e-4,2.392 2.551,14.546 0.5,16 0,0 -31.5,0 -31.5,0 0,0 0,-16 0,-16 0,0 31,0 31,0 z"
       fill="#ff79aa"
       id="path1292" />
    <path
       d="m 545,561 c -1.099,12.868 4.759,13.111 -8,15 -13.335,-0.595 -8.074,-5.986 -8,-15.5 3.347,-2.111 12.717,0.628 16,0.5 z"
       fill="#ff7aa7"
       id="path1294" />
    <path
       d="m 549,560 c 14.287,-0.348 28.703,0.032 43,0 0,0 0,35 0,35 -10.486,0.042 -21.002,-0.031 -31.5,0 -1.05,0.745 -0.369,11.749 -0.5,14 0,0 -14.5,0 -14.5,0 -3.119,5.232 -0.045,14.43 -6,16 -2.021,0.533 -9.555,-0.831 -10.5,0.5 -0.813,1.144 -1.147,26.29 -2,28 -0.648,1.298 -4.63,-0.892 -4,2.5 0,0 -10,0 -10,0 -0.068,-5.313 -0.039,-10.686 0,-16 0.046,-6.359 -1.008,-44.225 0,-46.5 1.178,-2.659 7.638,-1.107 10,-1.5 2.19,-0.107 4.448,0.764 6,-1.5 0,0 0,-12.5 0,-12.5 0.103,-0.006 -0.321,-1.966 0.5,-2 2.398,-0.1 5.286,0.328 7.5,0 12.759,-1.889 6.901,-2.132 8,-15 0.206,-0.008 1.602,-0.942 4,-1 z"
       fill="#fefcfd"
       id="path1296" />
    <path
       d="m 608,560 c 4.988,-0.003 10.012,0.002 15,0 1.584,10.732 1.327,22.176 1,33 -0.01,0.333 0.013,0.667 0,1 -10.469,1.848 -21.416,0.958 -32,1 0,0 0,-35 0,-35 5.32,-0.012 10.68,0.003 16,0 z"
       fill="#ecc7d7"
       id="path1298" />
    <path
       d="m 751,575 c -5.318,0.044 -10.682,-0.06 -16,0 0,0 0,-14 0,-14 0,0 15.5,-1 15.5,-1 0,0 0.5,15 0.5,15 z"
       fill="#293c66"
       id="path1300" />
    <path
       d="m 751,575 c 0,0 1,1 1,1 -4.535,15.092 2.659,121.341 -1,126.5 -1.146,1.617 -12.381,-0.44 -14.5,0.5 -3.338,1.48 -0.159,14.696 -2,16 -1.642,1.163 -14.018,-1.839 -15.5,1.5 -0.941,2.119 1.117,13.35 -0.5,14.5 -1.634,1.162 -14.018,-1.838 -15.5,1.5 -0.941,2.119 1.117,13.35 -0.5,14.5 -6.024,4.284 -18.463,-10.188 -16,16 -15.036,-2.8 -120.861,3.644 -126,0 -1.542,-1.094 0.361,-13.286 -0.5,-14.5 -0.852,-1.202 -8.939,-0.156 -11,-0.5 0,0 -2,-14.5 -2,-14.5 1.664,-3.731 26.239,0.099 28.5,-1.5 1.841,-1.302 -1.337,-14.52 2,-16 0.888,-0.394 12.721,-0.117 13.5,0.5 1.955,1.548 -0.622,14.667 1.5,15.5 24.633,2.546 11.559,-5.641 15.5,-14.5 1.463,-3.288 12.02,-0.397 14.5,-1.5 3.288,-1.463 0.397,-12.02 1.5,-14.5 1.463,-3.288 12.02,-0.397 14.5,-1.5 3.287,-1.462 0.398,-12.014 1.5,-14.5 1.6,-3.609 14.404,0.609 16,-3 3.289,-7.435 -4.021,-37.048 2,-46.5 2.112,0.016 13.339,0.433 14,-0.5 0.113,-5.16 -0.156,-10.355 0,-15.5 0.161,-5.306 -0.235,-10.701 0,-16 25.426,4.902 12.253,-11.73 17,-15.5 2.429,-1.929 13.499,1.378 15,-2 1.102,-2.48 -1.787,-13.041 1.5,-14.5 1.349,-0.599 25.648,-0.956 29.5,-1 5.318,-0.06 10.682,0.044 16,0 z"
       fill="#b31163"
       id="path1302" />
    <path
       d="m 337,578 c 1.26,15.925 -0.261,14.53 -15,14 0.006,-0.839 -5.068,-13.638 -0.5,-16 0.922,-0.477 11.493,0.096 14,0 0.753,-0.029 0.008,2.058 1.5,2 z"
       fill="#ff7aa6"
       id="path1304" />
    <path
       d="m 529,578 c 0,0 0,12.5 0,12.5 -1.552,2.264 -3.81,1.393 -6,1.5 -1.686,0.082 -8.348,-1.718 -11,-1.5 0,0 1.5,-14.5 1.5,-14.5 4.657,-0.13 9.347,0.181 14,0 0.749,-0.029 0.019,2.081 1.5,2 z"
       fill="#ff7aa7"
       id="path1306" />
    <path
       d="m 480,592 c -0.306,10.628 0.094,21.363 0,32 0,0 -16,0 -16,0 0.098,-5.305 -0.236,-10.706 0,-16 0.733,-16.405 -4.156,-16.97 16,-16 z"
       fill="#d83175"
       id="path1308" />
    <path
       d="m 337,656 c 0.095,-2.478 -0.448,-14.868 0,-15.5 1.095,-1.544 13.279,0.363 14.5,-0.5 1.841,-1.301 -1.337,-14.52 2,-16 13.102,-5.811 12.923,12.096 14.5,-15 0.131,-2.251 -0.551,-13.255 0.5,-14 10.832,-0.012 21.68,0.016 32.5,0 10.245,-0.015 20.871,0.827 31,-1 -0.079,2.209 0.51,13.282 -0.5,14 -1.634,1.162 -14.018,-1.838 -15.5,1.5 -0.94,2.118 1.117,13.353 -0.5,14.5 -1.884,1.336 -26.551,-1.531 -30,0 -3.338,1.481 -0.338,13.866 -1.5,15.5 -1.15,1.617 -12.375,-0.44 -14.5,0.5 -3.608,1.596 0.608,14.405 -3,16 -1.636,0.723 -25.211,0 -29.5,0 z"
       fill="#ff78a8"
       id="path1310" />
    <path
       d="m 529,672 c 0.046,-5.3 -0.235,-10.712 0,-16 0.125,-2.828 -0.591,-13.166 0,-14.5 1.465,-3.305 13.72,-0.188 15,-2 0.819,-1.16 -0.877,-12.021 0,-14 1.48,-3.337 14.699,-0.159 16,-2 0.418,-0.592 -0.138,-12.114 0,-14.5 0.131,-2.251 -0.55,-13.255 0.5,-14 10.498,-0.031 21.014,0.042 31.5,0 10.584,-0.042 21.531,0.848 32,-1 -0.083,2.212 0.513,13.28 -0.5,14 -1.634,1.162 -14.018,-1.838 -15.5,1.5 -0.94,2.118 1.117,13.353 -0.5,14.5 -1.884,1.336 -26.548,-1.531 -30,0 -3.338,1.48 -0.159,14.696 -2,16 -1.642,1.163 -14.018,-1.839 -15.5,1.5 -0.941,2.119 1.117,13.35 -0.5,14.5 -1.634,1.162 -14.018,-1.838 -15.5,1.5 -5.417,12.204 11.727,13.904 -15,14.5 z"
       fill="#ff77a8"
       id="path1312" />
    <path
       d="m 321,606 c 0,11.316 -0.105,22.686 0,34 -17.26,-0.807 -18.092,-1.651 -18,16 0,0 -14,0 -14,0 -0.142,-10.59 -0.339,-21.421 0,-32 25.334,3.717 10.087,-9.324 16,-16.5 2.274,-2.76 12.512,-1.003 16,-1.5 z"
       fill="#fe73a5"
       id="path1314" />
    <path
       d="m 289,608 c -0.776,4.008 0.148,11.387 0,16 -0.339,10.579 -0.142,21.41 0,32 0.136,10.15 -0.1,20.337 0,30.5 0,0 15,1 15,1 0.246,5.806 -0.338,11.717 0,17.5 0.154,2.644 -0.795,12.81 1.5,14 12.031,6.239 12.691,-12.841 14.5,16 -2.468,-0.155 -15.239,0.573 -16,-0.5 -0.756,-1.066 0.757,-13.929 0,-15 -1.301,-1.841 -14.52,1.337 -16,-2 -5.084,-11.466 11.697,-35.501 -15,-31 1.728,-9.498 -2.256,-74.819 0,-78 0.91,-1.283 13.424,-0.075 16,-0.5 z"
       fill="#253b65"
       id="path1316" />
    <path
       d="m 368,609 c -1.577,27.096 -1.398,9.189 -14.5,15 -3.337,1.48 -0.159,14.699 -2,16 -1.221,0.863 -13.405,-1.044 -14.5,0.5 -0.448,0.632 0.095,13.022 0,15.5 0,0 -3,0 -3,0 1.863,-3.701 2.117,-29.247 3,-30.5 0.469,-0.665 14.545,-0.801 16,-3 2.349,-3.551 -8.277,-18.212 15,-13.5 z"
       fill="#f5eaf2"
       id="path1318" />
    <path
       d="m 464,608 c -0.236,5.294 0.098,10.695 0,16 -0.191,10.311 0.185,20.688 0,31 -2.801,2.433 -14.02,-0.047 -15.5,1 -1.841,1.302 1.337,14.52 -2,16 -2.119,0.94 -13.353,-1.117 -14.5,0.5 -0.889,1.254 1.064,14.39 -0.5,15.5 -1.254,0.889 -14.39,-1.064 -15.5,0.5 -0.889,1.254 1.064,14.391 -0.5,15.5 -2.59,1.837 -55.458,-0.012 -63.5,0 0,0 0,-14 0,-14 0.782,-0.037 4.254,-1.992 4.5,-2 14.301,-0.488 28.69,0.361 43,0 0,0 0.5,-15.5 0.5,-15.5 -1.11,-1.564 -14.246,0.389 -15.5,-0.5 -0.592,-0.42 -0.902,-13.594 -0.5,-14.5 1.686,-3.796 29.134,0.179 31.5,-1.5 1.617,-1.147 -0.44,-12.381 0.5,-14.5 1.48,-3.338 14.696,-0.159 16,-2 1.163,-1.642 -1.839,-14.018 1.5,-15.5 2.119,-0.941 13.35,1.117 14.5,-0.5 4.113,-5.785 -9.937,-19.335 16,-15.5 z"
       fill="#ed457d"
       id="path1320" />
    <path
       d="m 560,609 c -0.138,2.386 0.418,13.908 0,14.5 -1.301,1.841 -14.52,-1.337 -16,2 -0.877,1.979 0.819,12.84 0,14 -1.28,1.812 -13.535,-1.305 -15,2 -0.591,1.334 0.125,11.672 0,14.5 0,0 -6,0 -6,0 -0.63,-3.392 3.352,-1.202 4,-2.5 0.853,-1.71 1.187,-26.856 2,-28 0.945,-1.331 8.479,0.033 10.5,-0.5 5.955,-1.57 2.881,-10.768 6,-16 0,0 14.5,0 14.5,0 z"
       fill="#f5eaf2"
       id="path1322" />
    <path
       d="m 672,624 c -0.156,5.145 0.113,10.34 0,15.5 -0.661,0.933 -11.888,0.516 -14,0.5 -0.125,-10e-4 -0.789,-2.007 -1.5,-2 -4.788,0.046 -10.547,1.621 -15.5,1.5 0,0 -1.5,32.5 -1.5,32.5 -4.166,0.638 -30.072,-1.724 -31.5,1.5 0,0 -0.5,30.5 -0.5,30.5 -21.134,-0.502 -42.39,0.675 -63.5,0 0,0 0,-14 0,-14 0.701,-0.031 5.208,-1.99 5.5,-2 13.929,-0.466 28.023,0.426 42,0 5.349,-25.517 -9.134,-12.829 -15,-17 -0.581,-0.413 -0.896,-12.607 -0.5,-13.5 1.686,-3.796 29.134,0.179 31.5,-1.5 1.617,-1.147 -0.44,-12.381 0.5,-14.5 1.48,-3.338 14.696,-0.159 16,-2 1.163,-1.642 -1.839,-14.018 1.5,-15.5 2.119,-0.941 13.35,1.117 14.5,-0.5 1.162,-1.634 -1.838,-14.018 1.5,-15.5 0.907,-0.403 14.08,-0.091 14.5,0.5 4.113,5.785 -9.937,19.335 16,15.5 z"
       fill="#f0497f"
       id="path1324" />
    <path
       d="m 480,624 c -0.232,26.314 0.173,52.685 0,79 -25.828,0.697 -11.624,3.222 -16,14.5 -1.906,4.911 -13.582,1.14 -15.5,2.5 -1.564,1.109 0.389,14.247 -0.5,15.5 -1.11,1.564 -14.246,-0.389 -15.5,0.5 -1.617,1.147 0.44,12.382 -0.5,14.5 -2.805,6.318 -22.09,-8.3 -17.5,14.5 0,0 -58.5,1 -58.5,1 -2.824,0.038 -2.842,0.997 -3,1 -0.333,0.006 -0.667,-0.008 -1,0 -1.33,-12.195 4.979,-13.17 -7,-15 0.404,-3.817 -4.926,-0.917 -6,-2.5 -0.337,-0.497 -0.243,-11.452 0,-12 1.656,-3.73 26.24,0.098 28.5,-1.5 1.571,-1.111 -0.942,-14.479 2,-16 1.288,-0.666 27.674,-0.588 29,0 3.733,1.655 -0.428,15.052 2,16 23.455,5.922 11.936,-13.755 17,-16 2.486,-1.102 13.038,1.787 14.5,-1.5 1.103,-2.481 -1.788,-13.037 1.5,-14.5 2.481,-1.103 13.037,1.788 14.5,-1.5 1.103,-2.481 -1.788,-13.037 1.5,-14.5 2.479,-1.103 13.041,1.787 14.5,-1.5 0.833,-1.878 -0.086,-26.722 0,-31.5 0.185,-10.312 -0.191,-20.689 0,-31 0,0 16,0 16,0 z"
       fill="#c5226c"
       id="path1326" />
    <path
       d="m 658,640 c -6.021,9.452 1.289,39.065 -2,46.5 -1.596,3.609 -14.4,-0.609 -16,3 -1.102,2.486 1.787,13.038 -1.5,14.5 -2.48,1.103 -13.037,-1.788 -14.5,1.5 -1.103,2.48 1.788,13.037 -1.5,14.5 -2.48,1.103 -13.037,-1.788 -14.5,1.5 -3.941,8.859 9.133,17.046 -15.5,14.5 -2.122,-0.833 0.455,-13.952 -1.5,-15.5 -0.779,-0.617 -12.612,-0.894 -13.5,-0.5 -3.337,1.48 -0.159,14.698 -2,16 -2.261,1.599 -26.836,-2.231 -28.5,1.5 0,0 2,14.5 2,14.5 -10.567,-1.763 -1.339,-14.709 -6.5,-17 -2.119,-0.941 -13.35,1.117 -14.5,-0.5 -1.162,-1.634 1.838,-14.018 -1.5,-15.5 -10.039,-4.456 -15.69,10.425 -15.5,-16 0.032,-4.493 0.265,-12.302 4,-15 2.459,0.866 9.701,-0.888 12,0 0.132,0.051 1.949,1.868 2,2 5.099,13.198 -10.978,13.17 15,14 21.11,0.675 42.366,-0.502 63.5,0 0,0 0.5,-30.5 0.5,-30.5 1.428,-3.224 27.334,-0.862 31.5,-1.5 0,0 1.5,-32.5 1.5,-32.5 4.953,0.121 10.712,-1.454 15.5,-1.5 0.711,-0.007 1.375,1.999 1.5,2 z"
       fill="#df3676"
       id="path1328" />
    <path
       d="m 321,640 c 0.049,5.319 -0.07,10.682 0,16 0.07,5.313 -0.161,10.692 0,16 -5.155,-0.011 -10.333,0.008 -15.5,0 -1.7,-4.763 -0.101,-9.63 -0.5,-14.5 -0.063,-0.775 -1.999,-1.375 -2,-1.5 -0.092,-17.651 0.74,-16.807 18,-16 z"
       fill="#fd5d90"
       id="path1330" />
    <path
       d="m 513,640 c -0.039,5.314 -0.068,10.687 0,16 0.068,5.314 -0.153,10.691 0,16 0.135,4.698 -1.499,14.768 2,16 -3.735,2.698 -3.968,10.507 -4,15 -2.884,-0.581 -13.708,1.411 -15,-1.5 -1.247,-2.811 0.022,-53.449 0,-61.5 0,0 17,0 17,0 z"
       fill="#f7598c"
       id="path1332" />
    <path
       d="m 345,752 c -1.923,-0.294 -7.938,0.55 -9,-1.5 -1.199,-2.314 1.869,-14.005 -1.5,-15.5 -1.428,-0.634 -11.566,0.185 -14.5,0 -1.809,-28.841 -2.469,-9.761 -14.5,-16 -2.295,-1.19 -1.346,-11.356 -1.5,-14 11.193,-1.794 22.77,-0.972 34,-1 4.655,-0.011 9.345,0.007 14,0 8.042,-0.012 60.91,1.837 63.5,0 1.564,-1.109 -0.389,-14.246 0.5,-15.5 1.11,-1.564 14.246,0.389 15.5,-0.5 1.564,-1.11 -0.389,-14.246 0.5,-15.5 1.147,-1.617 12.381,0.44 14.5,-0.5 3.337,-1.48 0.159,-14.698 2,-16 1.48,-1.047 12.699,1.433 15.5,-1 -0.086,4.778 0.833,29.622 0,31.5 -1.459,3.287 -12.021,0.397 -14.5,1.5 -3.288,1.463 -0.397,12.019 -1.5,14.5 -1.463,3.288 -12.019,0.397 -14.5,1.5 -3.288,1.463 -0.397,12.019 -1.5,14.5 -1.462,3.287 -12.014,0.398 -14.5,1.5 -5.064,2.245 6.455,21.922 -17,16 -2.428,-0.948 1.733,-14.345 -2,-16 -1.326,-0.588 -27.712,-0.666 -29,0 -2.942,1.521 -0.429,14.889 -2,16 -2.26,1.598 -26.844,-2.23 -28.5,1.5 -0.243,0.548 -0.337,11.503 0,12 1.074,1.583 6.404,-1.317 6,2.5 z"
       fill="#df3676"
       id="path1334" />
    <path
       d="m 303,656 c 10e-4,0.125 1.937,0.725 2,1.5 0.399,4.87 -1.2,9.737 0.5,14.5 5.167,0.008 10.345,-0.011 15.5,0 0.075,2.459 -0.448,14.868 0,15.5 1.115,1.572 11.748,-0.369 14,0.5 0.132,0.051 1.949,1.868 2,2 1.149,2.973 -1.633,10.792 1,14 -11.23,0.028 -22.807,-0.794 -34,1 -0.338,-5.783 0.246,-11.694 0,-17.5 0,0 -15,-1 -15,-1 -0.1,-10.163 0.136,-20.35 0,-30.5 0,0 14,0 14,0 z"
       fill="#ef4c82"
       id="path1336" />
    <path
       d="m 334,656 c 0,0 3,0 3,0 -0.197,5.156 -0.975,11.028 -1,16 -4.988,-0.008 -10.012,0.011 -15,0 -0.161,-5.308 0.07,-10.687 0,-16 0,0 13,0 13,0 z"
       fill="#fbb3ca"
       id="path1338" />
    <path
       d="m 523,656 c 0,0 6,0 6,0 -0.235,5.288 0.046,10.7 0,16 -5.314,0.119 -10.684,-0.086 -16,0 -0.153,-5.309 0.068,-10.686 0,-16 0,0 10,0 10,0 z"
       fill="#fcb5cb"
       id="path1340" />
    <path
       d="m 336,672 c -0.017,3.273 3.645,13.807 -1,16 -2.252,-0.869 -12.885,1.072 -14,-0.5 -0.448,-0.632 0.075,-13.041 0,-15.5 4.988,0.011 10.012,-0.008 15,0 z"
       fill="#f987ae"
       id="path1342" />
    <path
       d="m 529,672 c -0.038,4.428 1.459,15.054 -2,16 -2.299,-0.888 -9.541,0.866 -12,0 -3.499,-1.232 -1.865,-11.302 -2,-16 5.316,-0.086 10.686,0.119 16,0 z"
       fill="#f989af"
       id="path1344" />
    <path
       d="m 352,690 c 0,0 0,14 0,14 -4.655,0.007 -9.345,-0.011 -14,0 -2.633,-3.208 0.149,-11.027 -1,-14 4.637,-3.045 10.492,0.213 15,0 z"
       fill="#f179a7"
       id="path1346" />
    <path
       d="m 544,690 c 0,0 0,14 0,14 -25.978,-0.83 -9.901,-0.802 -15,-14 4.646,-3.035 10.478,0.198 15,0 z"
       fill="#f278a7"
       id="path1348" />
    <path
       d="m 480,767 c -37.279,-0.35 -74.72,-0.312 -112,0 -3.444,0.029 -8.012,-1.054 -12,-1 0,0 58.5,-1 58.5,-1 -4.59,-22.8 14.695,-8.182 17.5,-14.5 0.94,-2.118 -1.117,-13.353 0.5,-14.5 1.254,-0.889 14.39,1.064 15.5,-0.5 0.889,-1.253 -1.064,-14.391 0.5,-15.5 1.918,-1.36 13.594,2.411 15.5,-2.5 4.376,-11.278 -9.828,-13.803 16,-14.5 29.284,-0.79 10.129,7.224 16,15.5 1.393,1.963 23.079,-4.891 16,14 -2.098,5.6 -15.201,-0.054 -17,4 -4.15,9.35 11.921,14.334 -16,16 0.705,4.828 0.995,9.674 1,14.5 z"
       fill="#b61062"
       id="path1350" />
    <path
       d="m 345,752 c 11.979,1.83 5.67,2.805 7,15 -5.294,0.12 -10.725,-0.307 -16,0 5.513,-24.6 -13.274,-12.642 -16,-16.5 -0.447,-0.633 0.159,-12.974 0,-15.5 2.934,0.185 13.072,-0.634 14.5,0 3.369,1.495 0.301,13.186 1.5,15.5 1.062,2.05 7.077,1.206 9,1.5 z"
       fill="#273864"
       id="path1352" />
    <path
       d="m 544,766 c -0.915,-0.097 -1.1,1.12 -2,1 -14.438,-1.431 -32.21,-0.783 -47,-1 -5.353,-23.379 13.276,-11.654 16,-15.5 1.163,-1.642 -1.839,-14.018 1.5,-15.5 0.64,-0.284 13.36,-0.284 14,0 3.338,1.48 0.159,14.696 2,16 5.561,3.939 19.321,-9.47 15.5,15 z"
       fill="#fcfaf4"
       id="path1354" />
    <path
       d="m 356,766 c 3.988,-0.054 8.556,1.029 12,1 0.425,2.576 -0.783,15.09 0.5,16 4.507,3.196 96.975,0.066 110.5,0 26.151,-0.127 52.336,0.095 78.5,0 0,0 0.5,-13.5 0.5,-13.5 -5.257,0.95 -12.884,-2.191 -16,-2.5 0.9,0.12 1.085,-1.097 2,-1 2.464,0.262 15.327,0.98 16,2.5 0.94,2.121 -1.116,13.354 0.5,14.5 15.039,-2.793 120.855,3.635 126,0 3.858,-2.726 -8.1,-21.513 16.5,-16 -2.251,9.834 -17.579,-4.001 -12.5,16 38.029,-1.753 76.582,1.902 114.5,1 0,0 -1.5,15 -1.5,15 0,0 -499,0 -499,0 0,0 -0.5,-14.5 -0.5,-14.5 5.288,-0.094 10.81,-1.163 16,-1.5 5.443,-0.354 29.083,1.073 31.5,0 2.942,-1.306 0.894,-13.017 1.5,-16 0.158,-0.003 0.176,-0.962 3,-1 z"
       fill="#dad7d8"
       id="path1356" />
    <path
       d="m 542,767 c 3.116,0.309 10.743,3.45 16,2.5 0,0 -0.5,13.5 -0.5,13.5 -26.164,0.095 -52.349,-0.127 -78.5,0 1.688,-3.569 1.013,-8.12 1,-12 0,0 14.5,0 14.5,0 0,0 -0.5,-4 -0.5,-4 1.292,0.018 0.929,-1.001 1,-1 14.79,0.217 32.562,-0.431 47,1 z"
       fill="#abaca8"
       id="path1358" />
    <path
       d="m 805,784 c -37.918,0.902 -76.471,-2.753 -114.5,-1 -5.079,-20.001 10.249,-6.166 12.5,-16 0.071,-0.312 -0.045,-0.675 0,-1 0,0 118.5,1 118.5,1 0,0 1.5,15.5 1.5,15.5 -5.856,-0.054 -12.279,1.364 -18,1.5 z"
       fill="#b1b1ae"
       id="path1360" />
    <path
       d="m 336,767 c 5.275,-0.307 10.706,0.12 16,0 0.333,-0.008 0.667,0.006 1,0 -0.606,2.983 1.442,14.694 -1.5,16 -2.417,1.073 -26.057,-0.354 -31.5,0 0,0 1.5,-16 1.5,-16 4.992,0.413 9.531,0.289 14.5,0 z"
       fill="#adafab"
       id="path1362" />
    <path
       d="m 480,767 c 10e-4,1.326 -0.005,2.665 0,4 0.013,3.88 0.688,8.431 -1,12 -13.525,0.066 -105.993,3.196 -110.5,0 -1.283,-0.91 -0.075,-13.424 -0.5,-16 37.28,-0.312 74.721,-0.35 112,0 z"
       fill="#253b65"
       id="path1364" />
    <path
       d="m 494,767 c 0,0 0.5,4 0.5,4 0,0 -14.5,0 -14.5,0 -0.005,-1.335 10e-4,-2.674 0,-4 4.652,0.044 9.349,-0.063 14,0 z"
       fill="#f8f7f9"
       id="path1366" />
  </g>
  <text
     xml:space="preserve"
     style="font-style:normal;font-weight:normal;font-size:121.241px;line-height:1.25;font-family:sans-serif;fill:#f0497f;fill-opacity:1;stroke:#ffffff;stroke-width:3.03101;stroke-opacity:1"
     x="29.870157"
     y="166.18201"
     id="text2942"><tspan
       sodipodi:role="line"
       id="tspan2940"
       x="29.870157"
       y="166.18201"
       style="font-style:normal;font-variant:normal;font-weight:bold;font-stretch:normal;font-size:121.241px;font-family:sans-serif;-inkscape-font-specification:'sans-serif, Bold';font-variant-ligatures:normal;font-variant-caps:normal;font-variant-numeric:normal;font-variant-east-asian:normal;fill:#f0497f;fill-opacity:1;stroke:#ffffff;stroke-width:3.03101;stroke-opacity:1">Calipso</tspan></text>
  <text
     xml:space="preserve"
     id="text51148"
     style="fill:black;fill-opacity:1;line-height:1.25;stroke:none;font-family:sans-serif;font-style:normal;font-weight:normal;font-size:40px;white-space:pre;shape-inside:url(#rect51150)" />
</svg>
