<?xml version="1.0" encoding="UTF-8" standalone="no"?>
<svg
   viewBox="0 0 440 440 "
   version="1.1"
   id="svg1570"
   sodipodi:docname="Fruits_Inc.1v0.svg"
   inkscape:version="1.1 (c68e22c387, 2021-05-23)"
   xmlns:inkscape="http://www.inkscape.org/namespaces/inkscape"
   xmlns:sodipodi="http://sodipodi.sourceforge.net/DTD/sodipodi-0.dtd"
   xmlns:xlink="http://www.w3.org/1999/xlink"
   xmlns="http://www.w3.org/2000/svg"
   xmlns:svg="http://www.w3.org/2000/svg"
   xmlns:c2pa="http://c2pa.org/manifest"><sodipodi:namedview
   id="namedview1572"
   pagecolor="#ffffff"
   bordercolor="#666666"
   borderopacity="1.0"
   inkscape:pageshadow="2"
   inkscape:pageopacity="0.0"
   inkscape:pagecheckerboard="0"
   showgrid="false"
   inkscape:zoom="1.2139587"
   inkscape:cx="520.19891"
   inkscape:cy="699.77668"
   inkscape:window-width="1920"
   inkscape:window-height="1129"
   inkscape:window-x="-8"
   inkscape:window-y="-8"
   inkscape:window-maximized="1"
   inkscape:current-layer="svg1570" />
<metadata
   id="metadata1199">
</metadata>
<defs
   id="defs1206">
  <linearGradient
     id="grad2"
     x1="495.056"
     y1="110.191"
     x2="488.835"
     y2="280.077"
     gradientUnits="userSpaceOnUse"
     gradientTransform="matrix(0.49719764,0,0,0.49719764,-15.439656,-6.8045028)">
    <stop
       offset="0%"
       style="stop-color: rgb(141, 169, 83);"
       id="stop1201" />
    <stop
       offset="100%"
       style="stop-color: rgb(53, 107, 66);"
       id="stop1203" />
  </linearGradient>
</defs>
<defs
   id="defs1213">
  <linearGradient
     id="grad3"
     x1="571.389"
     y1="113.877"
     x2="546.79"
     y2="282.088"
     gradientUnits="userSpaceOnUse"
     gradientTransform="matrix(0.49719764,0,0,0.49719764,-15.439656,-6.8045028)">
    <stop
       offset="0%"
       style="stop-color: rgb(233, 214, 77);"
       id="stop1208" />
    <stop
       offset="100%"
       style="stop-color: rgb(120, 188, 96);"
       id="stop1210" />
  </linearGradient>
</defs>
<defs
   id="defs1220">
  <linearGradient
     id="grad6"
     x1="452.385"
     y1="262.596"
     x2="494.563"
     y2="383.447"
     gradientUnits="userSpaceOnUse"
     gradientTransform="matrix(0.49719764,0,0,0.49719764,-15.439656,-6.8045028)">
    <stop
       offset="0%"
       style="stop-color: rgb(75, 150, 85);"
       id="stop1215" />
    <stop
       offset="100%"
       style="stop-color: rgb(13, 44, 42);"
       id="stop1217" />
  </linearGradient>
</defs>
<defs
   id="defs1227">
  <linearGradient
     id="grad7"
     x1="605.351"
     y1="274.711"
     x2="552.897"
     y2="402.353"
     gradientUnits="userSpaceOnUse"
     gradientTransform="matrix(0.49719764,0,0,0.49719764,-15.439656,-6.8045028)">
    <stop
       offset="0%"
       style="stop-color: rgb(133, 189, 87);"
       id="stop1222" />
    <stop
       offset="100%"
       style="stop-color: rgb(44, 96, 58);"
       id="stop1224" />
  </linearGradient>
</defs>
<defs
   id="defs1234">
  <linearGradient
     id="grad14"
     x1="493.988"
     y1="292.54"
     x2="508.595"
     y2="350.734"
     gradientUnits="userSpaceOnUse"
     gradientTransform="matrix(0.49719764,0,0,0.49719764,-15.439656,-6.8045028)">
    <stop
       offset="0%"
       style="stop-color: rgb(40, 81, 44);"
       id="stop1229" />
    <stop
       offset="100%"
       style="stop-color: rgb(16, 44, 36);"
       id="stop1231" />
  </linearGradient>
</defs>
<defs
   id="defs1241">
  <linearGradient
     id="grad15"
     x1="566.011"
     y1="292.812"
     x2="551.212"
     y2="355.078"
     gradientUnits="userSpaceOnUse"
     gradientTransform="matrix(0.49719764,0,0,0.49719764,-15.439656,-6.8045028)">
    <stop
       offset="0%"
       style="stop-color: rgb(85, 124, 49);"
       id="stop1236" />
    <stop
       offset="100%"
       style="stop-color: rgb(54, 98, 44);"
       id="stop1238" />
  </linearGradient>
</defs>
<defs
   id="defs1248">
  <linearGradient
     id="grad19"
     x1="443.37"
     y1="322.964"
     x2="489.276"
     y2="406.136"
     gradientUnits="userSpaceOnUse"
     gradientTransform="matrix(0.49719764,0,0,0.49719764,-15.439656,-6.8045028)">
    <stop
       offset="0%"
       style="stop-color: rgb(28, 98, 73);"
       id="stop1243" />
    <stop
       offset="100%"
       style="stop-color: rgb(15, 59, 47);"
       id="stop1245" />
  </linearGradient>
</defs>
<defs
   id="defs1255">
  <linearGradient
     id="grad20"
     x1="619.261"
     y1="328.777"
     x2="571.311"
     y2="392.814"
     gradientUnits="userSpaceOnUse"
     gradientTransform="matrix(0.49719764,0,0,0.49719764,-15.439656,-6.8045028)">
    <stop
       offset="0%"
       style="stop-color: rgb(125, 166, 83);"
       id="stop1250" />
    <stop
       offset="100%"
       style="stop-color: rgb(65, 113, 68);"
       id="stop1252" />
  </linearGradient>
</defs>
<defs
   id="defs1262">
  <linearGradient
     id="grad71"
     x1="480.559"
     y1="496.166"
     x2="436.023"
     y2="601.107"
     gradientUnits="userSpaceOnUse"
     gradientTransform="matrix(0.49719764,0,0,0.49719764,-15.439656,-6.8045028)">
    <stop
       offset="0%"
       style="stop-color: rgb(250, 175, 68);"
       id="stop1257" />
    <stop
       offset="100%"
       style="stop-color: rgb(241, 139, 68);"
       id="stop1259" />
  </linearGradient>
</defs>
<defs
   id="defs1264" />
<path
   d="m 247.5779,108.54535 c 0,0 -0.4972,37.28982 -0.4972,37.28982 0,0 -27.34587,-30.32905 -27.34587,-30.32905 0,0 0,-3.23179 0,-3.23179 -0.84523,-0.57575 -1.32155,1.45729 -2.98318,-0.2486 -2.0584,-17.86232 -4.95955,-35.85938 -6.21497,-53.697342 0.89793,-0.749774 3.27553,2.974236 3.72898,3.480384 0,0 -1.4916,0.745796 -1.4916,0.745796 0,0 9.44676,27.843072 9.44676,27.843072 0.98296,0.67867 1.83068,-2.50588 1.98879,-2.98319 1.10627,-3.33868 1.47668,-7.28991 2.48599,-10.68975 5.80478,-19.556274 12.60993,-39.045626 20.8823,-57.674925 0.20932,29.798546 -0.008,59.673165 0,89.495575 z"
   fill="url(#grad2)"
   id="path1270"
   style="fill:url(#grad2);stroke-width:0.497198" />

/&gt;
<path
   d="m 268.9574,77.2219 c 2.61227,8.40065 4.87353,20.93948 7.95516,28.58886 0.64139,1.59203 0.66973,0.95114 1.98879,0.7458 -0.22871,2.40296 -1.06599,4.78055 0.4972,6.96077 -0.083,0.10142 0.0303,1.46623 -0.9944,1.49159 -12.7387,6.80117 -19.49014,22.60161 -30.32905,32.31785 -0.33661,-0.6041 -0.43455,-0.75525 -0.4972,-1.4916 -0.97202,-11.40621 0.003,-25.55894 0,-37.28982 -0.008,-29.82241 0.20932,-59.697029 0,-89.495575 1.21266,-0.06727 8.45833,19.451067 9.44675,22.125295 4.35198,11.776623 8.20426,24.05641 11.93275,36.04683 z"
   fill="url(#grad3)"
   id="path1272"
   style="fill:url(#grad3);stroke-width:0.497198" />

/&gt;
<path
   d="m 278.90135,106.55656 c -1.31906,0.20534 -1.3474,0.84623 -1.98879,-0.7458 -3.08163,-7.64938 -5.34289,-20.18821 -7.95516,-28.58886 2.83204,-1.97487 13.65653,-19.036705 15.66172,-18.893512 2.08525,0.148662 -0.55487,10.092122 -0.74579,12.181342 -1.14654,12.53187 -3.80008,23.73224 -4.97198,36.04683 z"
   fill="#a1c04f"
   id="path1274"
   style="stroke-width:0.497198" />
<path
   d="m 214.26566,61.808772 c 4.29927,4.80094 7.84578,10.343698 12.42994,14.915928 -1.00931,3.39984 -1.37972,7.35107 -2.48599,10.68975 -0.15811,0.47731 -1.00583,3.66186 -1.98879,2.98319 0,0 -9.44676,-27.843072 -9.44676,-27.843072 0,0 1.4916,-0.745796 1.4916,-0.745796 z"
   fill="#739a3d"
   id="path1276"
   style="stroke-width:0.497198" />
<path
   d="m 197.36094,99.59579 c 0,0 0,3.23179 0,3.23179 0,0 40.27301,65.87868 40.27301,65.87868 0,0 10.44115,15.91033 10.44115,15.91033 4.9e-4,0.16557 -0.001,0.33163 0,0.4972 0.0328,7.22776 0,14.62009 0,21.87669 0,0 0,0.4972 0,0.4972 -1.51099,-0.004 -0.30528,-0.70801 -1.98879,-1.49159 0.68116,-0.92081 0.43703,-1.31012 0,-2.23739 -4.37982,-9.29611 -15.72636,-22.99092 -21.8767,-32.06925 0,0 -20.8823,-34.80383 -20.8823,-34.80383 -2.09519,-5.36974 -3.75732,-9.99368 -5.46917,-15.41313 -0.70453,-2.22993 -5.14948,-20.3145 -6.21498,-20.3851 -1.28625,-0.0855 -0.59763,1.86648 -0.74579,2.48598 -0.0805,-0.27843 -1.35238,-1.41055 -1.49159,-1.98879 -0.0189,-0.0776 1.18979,-0.29633 0.99439,-1.24299 -0.54294,-2.62918 -1.77151,-5.5885 -1.98879,-8.45236 0.89794,-2.90463 7.86069,6.75443 8.94956,7.70656 z"
   fill="url(#grad6)"
   id="path1278"
   style="fill:url(#grad6);stroke-width:0.497198" />

/&gt;
<path
   d="m 290.3369,143.84638 c -2.22546,1.45281 -2.51383,2.56455 -3.97758,4.47478 -10.45955,13.65156 -25.73744,38.02767 -34.30664,53.20015 -1.0998,1.94752 -2.92104,1.94156 -1.49159,4.97197 -0.73337,0.24612 -1.38321,0.83231 -2.48599,0.4972 0,-7.2566 0.0328,-14.64893 0,-21.87669 5.00081,-6.41236 8.71885,-13.07083 11.93274,-20.38511 1.89283,0.0467 3.58082,-3.33222 4.47478,-4.72337 6.53218,-10.16422 12.6149,-20.74856 18.89351,-31.07486 6.37059,-10.47844 13.09171,-20.78783 18.89351,-31.57205 0.16656,-0.30925 1.57363,-2.57399 0,-2.23739 0.57078,-0.45095 2.83452,-3.12289 3.48038,-3.23178 0,0 0.9944,0.4972 0.9944,0.4972 0,0 -1.49159,9.44675 -1.49159,9.44675 0,0 -14.91593,42.0132 -14.91593,42.0132 z"
   fill="url(#grad7)"
   id="path1280"
   style="fill:url(#grad7);stroke-width:0.497198" />

/&gt;
<path
   d="m 283.37613,128.93045 c -2.64658,0.69707 -7.28196,-3.68473 -8.45236,-2.23739 -1.6686,7.01148 -6.06333,14.26063 -8.45236,20.13651 0,0 11.93274,-31.82065 11.93274,-31.82065 1.02473,-0.0254 0.91137,-1.39017 0.9944,-1.49159 1.90029,-2.32937 19.02576,-15.35695 22.87109,-18.39632 1.57363,-0.3366 0.16656,1.92814 0,2.23739 -5.8018,10.78422 -12.52292,21.09361 -18.89351,31.57205 z"
   fill="#90b147"
   id="path1282"
   style="stroke-width:0.497198" />
<path
   d="m 216.75165,112.02573 c 1.66163,1.70589 2.13795,-0.32715 2.98318,0.2486 0,0 0,3.23179 0,3.23179 -0.87109,0.0721 -2.31943,-2.65206 -2.48599,-0.7458 -0.11137,1.2768 6.88967,21.44016 7.95517,24.36268 3.63849,9.97926 8.58411,19.67262 12.42994,29.58326 0,0 -40.27301,-65.87868 -40.27301,-65.87868 0,0 0,-3.23179 0,-3.23179 5.62828,4.92126 13.03155,9.07883 19.14211,13.42434 0,0 0.2486,-0.9944 0.2486,-0.9944 z"
   fill="#4e7f37"
   id="path1284"
   style="stroke-width:0.497198" />
<path
   d="m 197.85814,121.47249 c -1.75312,-2.93546 -3.24273,-6.74101 -4.47478,-9.94395 -0.99042,-2.57449 -1.71981,-5.30212 -2.48599,-7.95517 0.14816,-0.6195 -0.54046,-2.5715 0.74579,-2.48598 1.0655,0.0706 5.51045,18.15517 6.21498,20.3851 z"
   fill="#49702d"
   id="path1286"
   style="stroke-width:0.497198" />
<path
   d="m 189.40578,101.58458 c 0.13921,0.57824 1.41104,1.71036 1.49159,1.98879 0.76618,2.65305 1.49557,5.38068 2.48599,7.95517 -54.6107,22.32666 -81.86708,74.19382 -75.57404,132.25457 0.22224,2.05144 0.15761,3.73097 0.49719,5.96637 0.13325,0.87755 0.35102,1.63578 0.4972,2.48599 3.65838,21.24724 12.71732,42.24688 25.35708,59.66371 -1.44933,-0.25655 -6.62367,3.17163 -7.45796,2.73459 -0.81243,-0.4256 -8.89487,-13.56604 -9.94396,-15.41313 -11.77364,-20.73413 -18.61806,-45.69146 -19.3907,-69.60767 -0.24264,-7.51563 1.37226,-14.89156 0.49719,-22.37389 0,0 -1.24299,2.23739 -1.24299,2.23739 -0.65978,0.19092 -7.761264,-5.84804 -9.695364,-4.97198 1.83268,-12.07345 4.918284,-18.97505 8.452364,-30.08045 0.47731,-1.49955 -1.2937,-1.07146 -0.99439,-1.98879 0.98196,-3.00805 3.85179,-6.96674 4.97198,-9.94396 0.35002,-0.93025 -1.32056,-0.54691 -0.9944,-1.49159 0.34953,-1.01229 3.13185,-2.78629 2.48599,-4.22618 18.95715,-26.83425 46.37462,-47.02396 78.55723,-55.18894 z"
   fill="#4b8ab6"
   id="path1288"
   style="stroke-width:0.497198" />
<path
   d="m 325.14073,115.50612 c 0,0 -2.48599,6.46357 -2.48599,6.46357 -2.80966,-1.76655 -18.5395,-9.0495 -19.14211,-9.94396 -1.07742,-1.59948 1.29023,-4.96452 1.243,-6.71216 1.29669,-1.15002 18.14075,8.80188 20.3851,10.19255 z"
   fill="#c49f7e"
   id="path1290"
   style="stroke-width:0.497198" />
<path
   d="m 247.5779,145.83517 c 0,0 -0.4972,0 -0.4972,0 0,0 0.4972,-37.28982 0.4972,-37.28982 0.003,11.73088 -0.97202,25.88361 0,37.28982 z"
   fill="#3c7143"
   id="path1292"
   style="stroke-width:0.497198" />
<path
   d="m 219.73483,115.50612 c 0,0 27.34587,30.32905 27.34587,30.32905 0,0 0.4972,0 0.4972,0 0.0626,0.73635 0.16059,0.8875 0.4972,1.4916 -1.36978,12.4001 -0.0537,24.89667 0,37.28982 0,0 -10.44115,-15.91033 -10.44115,-15.91033 -3.84583,-9.91064 -8.79145,-19.604 -12.42994,-29.58326 -1.0655,-2.92252 -8.06654,-23.08588 -7.95517,-24.36268 0.16656,-1.90626 1.6149,0.81789 2.48599,0.7458 z"
   fill="url(#grad14)"
   id="path1294"
   style="fill:url(#grad14);stroke-width:0.497198" />

/&gt;
<path
   d="m 278.40415,115.00892 c 0,0 -11.93274,31.82065 -11.93274,31.82065 -2.36964,5.82815 -3.9383,12.15201 -6.46357,17.89911 -3.21389,7.31428 -6.93193,13.97275 -11.93274,20.38511 -0.001,-0.16557 4.9e-4,-0.33163 0,-0.4972 -0.0537,-12.39315 -1.36978,-24.88972 0,-37.28982 10.83891,-9.71624 17.59035,-25.51668 30.32905,-32.31785 z"
   fill="url(#grad15)"
   id="path1296"
   style="fill:url(#grad15);stroke-width:0.497198" />

/&gt;
<path
   d="m 361.93336,147.32677 c -1.598,-0.56532 -4.78255,2.53123 -4.47478,3.97758 -9.1917,-10.5222 -22.976,-21.89858 -34.80384,-29.33466 0,0 2.48599,-6.46357 2.48599,-6.46357 13.89568,8.61047 26.18641,19.40313 36.79263,31.82065 z"
   fill="#dcbc86"
   id="path1298"
   style="stroke-width:0.497198" />
<path
   d="m 283.37613,128.93045 c -6.27861,10.3263 -12.36133,20.91064 -18.89351,31.07486 -0.89396,1.39115 -2.58195,4.77011 -4.47478,4.72337 2.52527,-5.7471 4.09393,-12.07096 6.46357,-17.89911 2.38903,-5.87588 6.78376,-13.12503 8.45236,-20.13651 1.1704,-1.44734 5.80578,2.93446 8.45236,2.23739 z"
   fill="#6d9b45"
   id="path1302"
   style="stroke-width:0.497198" />
<path
   d="m 205.3161,144.84078 c 3.73197,7.71104 13.73011,19.22663 18.89351,26.84867 6.15034,9.07833 17.49688,22.77314 21.8767,32.06925 0.43703,0.92727 0.68116,1.31658 0,2.23739 -16.09131,-7.49227 -31.07386,-15.76813 -46.73658,-23.86549 -0.32219,-1.13063 -0.5857,-2.38754 -0.9944,-3.48038 0.61106,-1.32852 -0.91683,-3.79561 -1.49159,-4.97198 -0.75574,-2.26374 -1.63429,-4.26894 -2.48599,-6.46357 -2.55709,-7.14025 -4.612,-16.10324 -8.94956,-21.87669 -0.78855,-1.97736 -5.43934,-10.50181 -5.46917,-11.68415 -0.0244,-0.9765 0.38881,-1.55076 1.24299,-1.74019 2.01564,-0.44748 20.27622,12.19228 24.11409,12.92714 z"
   fill="url(#grad19)"
   id="path1304"
   style="fill:url(#grad19);stroke-width:0.497198" />

/&gt;
<path
   d="m 296.80047,181.6334 c -12.85604,6.89365 -32.47894,20.2439 -46.23938,24.85988 -1.42945,-3.03041 0.39179,-3.02445 1.49159,-4.97197 0,0 31.32345,-34.05804 31.32345,-34.05804 6.66245,-11.33362 17.34374,-20.88429 27.09727,-29.58326 0.0656,-0.0587 0.74928,1.09781 1.74019,0.2486 0.88104,-0.75524 1.87493,-4.99087 -0.99439,-4.22618 1.26188,-0.56681 2.56902,-1.22162 3.72898,-1.98879 0.95412,0.68563 -5.86693,14.9741 -6.71217,17.15332 -4.14265,10.68229 -8.11675,21.61069 -11.43554,32.56644 z"
   fill="url(#grad20)"
   id="path1306"
   style="fill:url(#grad20);stroke-width:0.497198" />

/&gt;
<path
   d="m 252.05268,201.52131 c 8.5692,-15.17248 23.84709,-39.54859 34.30664,-53.20015 0,0 7.95516,-5.96637 7.95516,-5.96637 5.12809,-2.88574 11.52454,-6.03648 16.90472,-8.45236 2.86932,-0.76469 1.87543,3.47094 0.99439,4.22618 -0.99091,0.84921 -1.67456,-0.30727 -1.74019,-0.2486 -9.75353,8.69897 -20.43482,18.24964 -27.09727,29.58326 0,0 -31.32345,34.05804 -31.32345,34.05804 z"
   fill="#75ac56"
   id="path1308"
   style="stroke-width:0.497198" />
<path
   d="m 224.20961,171.68945 c -5.1634,-7.62204 -15.16154,-19.13763 -18.89351,-26.84867 -0.39328,-0.81292 -1.36232,-6.34971 -1.98879,-7.95516 0,0 20.8823,34.80383 20.8823,34.80383 z"
   fill="#467935"
   id="path1310"
   style="stroke-width:0.497198" />
<path
   d="m 286.35932,148.32116 c 1.46375,-1.91023 1.75212,-3.02197 3.97758,-4.47478 0.24561,-0.16059 2.93247,-0.90341 3.97758,-1.49159 0,0 -7.95516,5.96637 -7.95516,5.96637 z"
   fill="#a2bb48"
   id="path1312"
   style="stroke-width:0.497198" />
<path
   d="m 194.37775,167.21467 c -2.82955,-7.2924 -6.04045,-14.5833 -8.94956,-21.87669 4.33756,5.77345 6.39247,14.73644 8.94956,21.87669 z"
   fill="#142f23"
   id="path1314"
   style="stroke-width:0.497198" />
<path
   d="m 154.85054,145.33798 c 5.99521,-0.76867 3.52364,9.3488 -1.49159,5.96637 -2.396,-1.6159 -0.91882,-5.65762 1.49159,-5.96637 z"
   fill="#6a9a22"
   id="path1316"
   style="stroke-width:0.497198" />
<path
   d="m 361.93336,147.32677 c 11.28091,13.20755 20.12904,27.72423 26.84867,43.75339 -0.28092,2.4666 1.6671,5.21113 2.48599,7.45796 0,0 -5.96637,1.98879 -5.96637,1.98879 -5.51243,-17.49887 -15.76664,-35.39848 -27.84307,-49.22256 -0.30777,-1.44635 2.87678,-4.5429 4.47478,-3.97758 z"
   fill="#aabda5"
   id="path1318"
   style="stroke-width:0.497198" />
<path
   d="M 96.927006,204.50449 C 75.416256,346.2093 261.90714,459.33419 366.40814,350.1834 c 4.81784,-5.03213 9.96881,-10.67433 13.92153,-16.40752 -6.76388,11.68763 -16.01722,23.55524 -25.85428,32.81504 -7.00203,6.59135 -15.69653,13.31943 -23.86548,18.39632 -4.33308,2.69282 -9.32097,5.22604 -13.92154,7.45796 -5.19174,2.51881 -10.9642,5.056 -16.40752,6.96077 -33.00398,11.54841 -69.06175,11.91236 -102.42271,1.49159 -3.30438,-1.03218 -8.88095,-2.75447 -11.93275,-3.97758 -5.84356,-2.3413 -14.7961,-7.21036 -20.3851,-10.44115 -25.28151,-14.61413 -47.61662,-37.06857 -61.65251,-62.6469 -28.906574,-52.67809 -27.984274,-117.59371 6.96077,-167.05841 0.64586,1.43989 -2.13646,3.21389 -2.48599,4.22618 -0.32616,0.94468 1.34442,0.56134 0.9944,1.49159 -1.12019,2.97722 -3.99002,6.93591 -4.97198,9.94396 -0.29931,0.91733 1.4717,0.48924 0.99439,1.98879 -3.53408,11.1054 -6.619684,18.007 -8.452364,30.08045 z"
   fill="#10395b"
   id="path1320"
   style="stroke-width:0.497198" />
<path
   d="M 96.927006,204.50449 C 75.416256,346.2093 261.90714,459.3342 366.40814,350.1834 c 4.81784,-5.03213 9.96881,-10.67433 13.92153,-16.40752 -6.76388,11.68763 -16.01722,23.55524 -25.85428,32.81504 -7.00203,6.59135 -15.69653,13.31943 -23.86548,18.39632 -4.33308,2.69282 -9.32097,5.22604 -13.92154,7.45796 -5.19174,2.51881 -10.9642,5.056 -16.40752,6.96077 -33.00398,11.54841 -69.06175,11.91236 -102.42271,1.49159 -3.30438,-1.03218 -8.88095,-2.75447 -11.93275,-3.97758 -5.84356,-2.3413 -14.7961,-7.21036 -20.3851,-10.44115 -25.28151,-14.61413 -47.61662,-37.06857 -61.65251,-62.6469 -28.906574,-52.67809 -27.984274,-117.59371 6.96077,-167.05841 0.64586,1.43989 -2.13646,3.21389 -2.48599,4.22618 -0.32616,0.94468 1.34442,0.56134 0.9944,1.49159 -1.12019,2.97722 -3.99002,6.93591 -4.97198,9.94396 -0.29931,0.91733 1.4717,0.48924 0.99439,1.98879 -3.53408,11.1054 -6.619684,18.007 -8.452364,30.08045 z"
   fill="#10395b"
   id="path1320-4"
   style="stroke-width:0.497198" />
<path
   d="m 169.51787,190.08576 c -0.1238,-0.12231 0.14419,-1.1003 0,-1.24299 -8.2674,-8.18636 -17.24878,-16.12959 -23.86549,-25.60568 0,0 -0.2486,-0.9944 -0.2486,-0.9944 13.49295,-2.98865 30.45485,8.42601 28.58887,23.11969 -0.18844,1.48414 -2.22049,2.64907 -1.98879,3.97759 0.13822,0.79452 9.78833,9.28914 10.93835,10.93834 -0.73387,1.6855 -12.41205,-9.19318 -13.42434,-10.19255 z"
   fill="#abc154"
   id="path1322"
   style="stroke-width:0.497198" />
<path
   d="m 169.51787,190.08576 c -10.41778,1.92117 -18.6474,-2.32887 -21.3795,-12.67854 -1.22609,-4.64432 -0.41416,-9.68441 -2.48599,-14.17013 6.61671,9.47609 15.59809,17.41932 23.86549,25.60568 0.14419,0.14269 -0.1238,1.12068 0,1.24299 z"
   fill="#618423"
   id="path1324"
   style="stroke-width:0.497198" />
<path
   d="m 196.86374,173.67824 c -1.43988,-2.9459 -1.48165,-3.65937 -2.48599,-6.46357 0.8517,2.19463 1.73025,4.19983 2.48599,6.46357 z"
   fill="#142f23"
   id="path1326"
   style="stroke-width:0.497198" />
<path
   d="m 364.41934,214.94564 c -0.82485,-0.0472 -1.3479,0.33512 -1.98879,-0.49719 0,0 2.48599,-1.74019 2.48599,-1.74019 -3.12936,-0.84723 1.64274,-4.98242 2.48599,-7.45797 8.6756,-25.46696 -21.48938,-44.64139 -40.77021,-28.09167 0,0 -0.99439,-2.48598 -0.99439,-2.48598 27.09379,-22.02288 62.40477,14.56988 38.78141,40.273 z"
   fill="#fab620"
   id="path1328"
   style="stroke-width:0.497198" />
<path
   d="m 362.43055,214.44845 c -0.1412,-0.18347 1.37426,-1.44038 -0.24859,-1.4916 -16.90423,17.92895 -47.28797,3.92936 -43.5048,-20.8823 0.52504,-3.44508 1.75113,-5.99521 3.48039,-8.94955 1.05008,-1.79439 2.94241,-4.65129 4.47477,-5.96638 19.28083,-16.54972 49.44581,2.62471 40.77021,28.09167 -0.84325,2.47555 -5.61535,6.61074 -2.48599,7.45797 0,0 -2.48599,1.74019 -2.48599,1.74019 z m -23.86548,-41.26741 c -1.25393,0.37688 -7.37394,2.307 -7.45797,4.22618 0,0 11.43555,15.91033 11.43555,15.91033 -0.62498,0.80397 -1.02274,-0.32616 -1.49159,-0.2486 0,0 -11.68415,-14.91593 -11.68415,-14.91593 -1.09831,-0.20186 -7.6464,7.95367 -8.20376,9.19816 -1.59153,3.55496 -1.92913,9.74258 -0.7458,14.17013 1.2599,1.40359 15.64632,-4.02581 18.64492,-4.47478 0.52901,-0.079 0.64387,-0.67022 1.24299,-0.4972 0,0 -0.7458,0.9944 -0.7458,0.9944 -4.39821,-0.17054 -14.67578,6.92347 -19.39071,5.22057 1.37824,1.65517 6.98215,11.43704 8.70096,11.18695 0,0 12.18135,-14.91593 12.18135,-14.91593 1.07842,0.25307 0.9402,0.48526 0.99439,0.4972 -1.54529,1.6492 -11.3371,13.74254 -11.43554,14.66733 -0.20386,1.91669 7.72247,6.18613 9.19815,5.71777 0.80049,-0.25407 -0.4788,-1.27382 0,-1.49159 0.62896,-0.28589 2.77337,0.39875 3.23179,-0.2486 0.57376,-0.80994 -0.43505,-15.76266 0,-18.14771 0.0244,0.004 0.40372,0 0.49719,0 0,0 1.4916,19.1421 1.4916,19.1421 0,0 -3.48039,0.4972 -3.48039,0.4972 2.27269,1.77748 13.33683,-1.1714 14.41873,-2.98318 1.98283,-3.32079 -9.29113,-13.71918 -10.44115,-17.65052 0.3918,-0.12082 0.56482,0.57973 0.9944,0.4972 0.25755,0.89147 10.75936,14.34017 11.68414,14.41873 3.4968,-2.5904 7.17457,-5.75059 7.20937,-10.19255 0,0 -18.39631,-6.21497 -18.39631,-6.21497 0,0 19.14211,3.97758 19.14211,3.97758 5.52585,-18.7717 -9.25434,-8.03322 -19.14211,-6.71217 9.46565,-4.87701 27.92908,-4.46185 10.68975,-16.65612 0,0 -12.42994,15.41313 -12.42994,15.41313 0.62696,-2.92502 11.27694,-14.73545 10.68974,-16.65612 -0.44996,-1.47171 -9.33637,-5.23152 -11.68414,-3.72899 0,0 -0.2486,20.8823 -0.2486,20.8823 -0.25059,-0.0532 -0.75773,-0.0592 -0.99439,0 -0.82585,-5.31902 1.10875,-14.29244 0,-19.14211 -0.29633,-1.29619 -1.4379,-1.16195 -1.4916,-1.24299 -0.15363,-0.2312 0.27098,-1.17289 -0.2486,-1.49159 -0.12231,-0.0786 -2.59537,0.95263 -2.73458,0.99439 z"
   fill="#fadda0"
   id="path1330"
   style="stroke-width:0.497198" />
<path
   d="m 341.54825,173.67824 c 0,0 -2.98318,-0.4972 -2.98318,-0.4972 0.13921,-0.0418 2.61227,-1.07295 2.73458,-0.99439 0.51958,0.3187 0.095,1.26039 0.2486,1.49159 z"
   fill="#fed65a"
   id="path1332"
   style="stroke-width:0.497198" />
<path
   d="m 347.01743,197.54373 c 0,0 -0.9944,0.74579 -0.9944,0.74579 0.66575,0.36395 0.38185,0.84425 0.4972,1.243 -0.42958,0.0825 -0.6026,-0.61802 -0.9944,-0.4972 -0.8154,0.25158 -0.76469,0.99539 -1.98879,0.9944 -0.0935,0 -0.47283,0.004 -0.49719,0 -0.45444,-0.0796 -0.52554,-0.39229 -0.9944,-0.4972 -0.0542,-0.0119 0.084,-0.24413 -0.99439,-0.4972 -0.85817,-0.20136 -1.38619,-1.48762 -1.4916,-1.49159 0,0 0.7458,-0.9944 0.7458,-0.9944 -0.59912,-0.17302 -0.71398,0.41815 -1.24299,0.4972 -0.11585,-0.6036 0.21528,-1.02771 0.49719,-1.49159 0.0323,-0.0532 1.28725,0.26152 0.9944,-0.7458 -0.48179,-0.27246 -1.0113,-0.47582 -1.49159,-0.7458 0.0964,-0.40273 1.68251,-0.94368 1.98879,-0.99439 0.46885,-0.0776 0.86661,1.05257 1.49159,0.2486 0,0 -11.43555,-15.91033 -11.43555,-15.91033 0.084,-1.91918 6.20404,-3.8493 7.45797,-4.22618 0,0 2.98318,0.4972 2.98318,0.4972 0.0537,0.081 1.19527,-0.0532 1.4916,1.24299 1.10875,4.84967 -0.82585,13.82309 0,19.14211 -3.61115,0.90441 -1.62186,5.83611 1.74019,4.47478 1.80234,-0.72988 1.99326,-3.89654 -0.7458,-4.47478 0,0 0.2486,-20.8823 0.2486,-20.8823 2.34777,-1.50253 11.23418,2.25728 11.68414,3.72899 0.5872,1.92067 -10.06278,13.7311 -10.68974,16.65612 0,0 12.42994,-15.41313 12.42994,-15.41313 17.23933,12.19427 -1.2241,11.77911 -10.68975,16.65612 9.88777,-1.32105 24.66796,-12.05953 19.14211,6.71217 0,0 -19.14211,-3.97758 -19.14211,-3.97758 z"
   fill="#fcb92c"
   id="path1334"
   style="stroke-width:0.497198" />
<path
   d="m 198.35533,178.65022 c -0.71198,-1.90377 -0.94865,-3.34614 -1.49159,-4.97198 0.57476,1.17637 2.10265,3.64346 1.49159,4.97198 z"
   fill="#142f23"
   id="path1336"
   style="stroke-width:0.497198" />
<path
   d="m 326.63232,177.15862 c -1.53236,1.31509 -3.42469,4.17199 -4.47477,5.96638 -2.76592,0.48377 -1.55226,5.1445 -4.97198,2.98318 1.85554,-5.09926 4.29081,-8.05261 8.45236,-11.43554 0,0 0.99439,2.48598 0.99439,2.48598 z"
   fill="#f5951c"
   id="path1338"
   style="stroke-width:0.497198" />
<path
   d="m 282.38173,207.98488 c -3.52761,-1.13312 -28.42628,0.004 -34.30663,0 0,0 0,-0.4972 0,-0.4972 0,0 0,-0.4972 0,-0.4972 1.10278,0.33511 1.75262,-0.25108 2.48599,-0.4972 13.76044,-4.61598 33.38334,-17.96623 46.23938,-24.85988 3.73842,-2.0047 7.90942,-3.8493 11.93274,-5.22057 0,0 -26.35148,31.57205 -26.35148,31.57205 z"
   fill="#3e7742"
   id="path1340"
   style="stroke-width:0.497198" />
<path
   d="m 190.89737,178.15302 c 0,0 24.85988,29.83186 24.85988,29.83186 -0.16059,0.0283 -0.34008,-0.0348 -0.4972,0 -10.51573,-7.49476 -17.742,-19.66367 -25.85427,-29.58326 0.10938,-1.49309 0.86611,-0.40969 1.49159,-0.2486 z"
   fill="#052221"
   id="path1342"
   style="stroke-width:0.497198" />
<path
   d="m 199.34973,182.1306 c 15.66272,8.09736 30.64527,16.37322 46.73658,23.86549 1.68351,0.78358 0.4778,1.48712 1.98879,1.49159 0,0 0,0.4972 0,0.4972 -4.13271,-0.002 -8.29873,-0.0736 -12.42994,0 -5.54376,0.0989 -14.9756,-0.86065 -19.88791,0 0,0 -24.85988,-29.83186 -24.85988,-29.83186 1.42497,0.36693 6.7778,3.11196 8.45236,3.97758 z"
   fill="#0c4f48"
   id="path1344"
   style="stroke-width:0.497198" />
<path
   d="m 341.05106,193.06895 c -0.30628,0.0507 -1.89234,0.59166 -1.98879,0.99439 -4.70399,-2.6431 -12.13163,-2.87579 -16.65613,-6.46357 -1.10427,-0.25854 -0.81838,2.13994 -0.74579,2.23739 0.55935,0.75475 16.08633,3.30488 17.89911,5.71778 -0.28191,0.46388 -0.61304,0.88799 -0.49719,1.49159 -2.9986,0.44897 -17.38502,5.87837 -18.64492,4.47478 -1.18333,-4.42755 -0.84573,-10.61517 0.7458,-14.17013 0.55736,-1.24449 7.10545,-9.40002 8.20376,-9.19816 0,0 11.68415,14.91593 11.68415,14.91593 z"
   fill="#f6962e"
   id="path1346"
   style="stroke-width:0.497198" />
<path
   d="m 322.15755,183.125 c -1.72926,2.95434 -2.95535,5.50447 -3.48039,8.94955 -2.89518,2.10514 1.49955,7.76722 -3.48038,7.45797 -0.50714,-5.35233 0.21528,-8.55031 1.98879,-13.42434 3.41972,2.16132 2.20606,-2.49941 4.97198,-2.98318 z"
   fill="#eb7824"
   id="path1348"
   style="stroke-width:0.497198" />
<path
   d="m 125.01868,185.11379 c 3.30239,-0.0979 7.2397,7.13528 3.97758,8.45236 -6.81558,2.75099 -4.94562,-8.06853 -3.97758,-8.45236 z"
   fill="#79a81f"
   id="path1350"
   style="stroke-width:0.497198" />
<path
   d="m 339.06227,194.06334 c 0.48029,0.26998 1.0098,0.47334 1.49159,0.7458 0.29285,1.00732 -0.96208,0.6926 -0.9944,0.7458 -1.81278,-2.4129 -17.33976,-4.96303 -17.89911,-5.71778 -0.0726,-0.0974 -0.35848,-2.49593 0.74579,-2.23739 4.5245,3.58778 11.95214,3.82047 16.65613,6.46357 z"
   fill="#fcdea8"
   id="path1352"
   style="stroke-width:0.497198" />
<path
   d="m 380.32967,333.77588 c -3.95272,5.73319 -9.10369,11.37539 -13.92153,16.40752 -1.29322,-0.48874 -7.71104,-5.45127 -8.20377,-5.46917 -0.72193,-0.0264 -9.25881,8.22265 -10.93834,9.44675 -18.59669,13.55709 -39.74698,22.50068 -62.64691,25.85428 2.9817,-3.08113 -1.38817,-5.34935 -1.24299,-8.94956 56.49607,-8.83122 101.15038,-54.86924 107.89189,-111.86947 3.44458,-2.20556 5.47265,-5.92957 8.20376,-8.94955 0.17302,-0.19142 1.39116,0.30528 1.74019,-0.2486 0.29583,-0.46985 0.0955,-9.36174 0,-10.44115 -0.0542,-0.61603 -0.93473,0.61354 -0.9944,0 -0.15761,-1.61838 0.60659,-3.0344 0.4972,-3.97758 -0.0457,-0.39329 -0.94666,-0.10342 -0.99439,-0.4972 -1.45779,-11.96357 -3.68424,-23.45779 -8.45236,-36.54403 -0.81889,-2.24683 -2.76691,-4.99136 -2.48599,-7.45796 19.07648,45.50402 20.44129,100.78544 -8.45236,142.69572 z"
   fill="#4b8ab6"
   id="path1354"
   style="stroke-width:0.497198" />
<path
   d="m 318.67716,192.07455 c -3.78317,24.81166 26.60057,38.81125 43.5048,20.8823 1.62285,0.0512 0.10739,1.30813 0.24859,1.4916 0.64089,0.83231 1.16394,0.44996 1.98879,0.49719 -16.46967,17.92 -46.99014,8.15603 -49.22256,-15.41312 4.97993,0.30925 0.5852,-5.35283 3.48038,-7.45797 z"
   fill="#f4943a"
   id="path1356"
   style="stroke-width:0.497198" />
<path
   d="m 344.03424,194.06334 c 2.73906,0.57824 2.54814,3.7449 0.7458,4.47478 -3.36205,1.36133 -5.35134,-3.57037 -1.74019,-4.47478 0.23666,-0.0592 0.7438,-0.0532 0.99439,0 z"
   fill="#fdf9ec"
   id="path1358"
   style="stroke-width:0.497198" />
<path
   d="m 339.55946,197.54373 c 0.10541,0.004 0.63343,1.29023 1.4916,1.49159 0,0 -12.18135,14.91593 -12.18135,14.91593 -1.71881,0.25009 -7.32272,-9.53178 -8.70096,-11.18695 4.71493,1.7029 14.9925,-5.39111 19.39071,-5.22057 z"
   fill="#f18d2d"
   id="path1360"
   style="stroke-width:0.497198" />
<path
   d="m 346.52023,199.53252 c -0.11535,-0.39875 0.16855,-0.87905 -0.4972,-1.243 0,0 0.9944,-0.74579 0.9944,-0.74579 0,0 18.39631,6.21497 18.39631,6.21497 -0.0348,4.44196 -3.71257,7.60215 -7.20937,10.19255 -0.92478,-0.0786 -11.42659,-13.52726 -11.68414,-14.41873 z"
   fill="#f9a42d"
   id="path1362"
   style="stroke-width:0.497198" />
<path
   d="m 391.26802,198.53812 c 4.76812,13.08624 6.99457,24.58046 8.45236,36.54403 0.0477,0.39378 0.94865,0.10391 0.99439,0.4972 0.10939,0.94318 -0.65481,2.3592 -0.4972,3.97758 0.0597,0.61354 0.94021,-0.61603 0.9944,0 0.0955,1.07941 0.29583,9.9713 0,10.44115 -0.34903,0.55388 -1.56717,0.0572 -1.74019,0.2486 -2.73111,3.01998 -4.75918,6.74399 -8.20376,8.94955 2.31744,-19.59406 -0.0666,-39.94137 -5.96637,-58.66932 0,0 5.96637,-1.98879 5.96637,-1.98879 z"
   fill="#6fb0bb"
   id="path1364"
   style="stroke-width:0.497198" />
<path
   d="m 343.53704,200.02972 c 1.2241,9.9e-4 1.17339,-0.74282 1.98879,-0.9944 1.15002,3.93134 12.42398,14.32973 10.44115,17.65052 -1.0819,1.81178 -12.14604,4.76066 -14.41873,2.98318 0,0 3.48039,-0.4972 3.48039,-0.4972 0,0 -1.4916,-19.1421 -1.4916,-19.1421 z"
   fill="#f69a2e"
   id="path1366"
   style="stroke-width:0.497198" />
<path
   d="m 343.03985,200.02972 c -0.43505,2.38505 0.57376,17.33777 0,18.14771 -0.45842,0.64735 -2.60283,-0.0373 -3.23179,0.2486 -0.4788,0.21777 0.80049,1.23752 0,1.49159 -1.47568,0.46836 -9.40201,-3.80108 -9.19815,-5.71777 0.0984,-0.92479 9.89025,-13.01813 11.43554,-14.66733 0.46886,0.10491 0.53996,0.41764 0.9944,0.4972 z"
   fill="#f4902e"
   id="path1368"
   style="stroke-width:0.497198" />
<path
   d="m 166.78328,202.5157 c 0.86364,-0.38334 18.01646,-0.35152 18.89351,0 2.3433,0.93971 -5.8192,10.08864 -7.45796,10.93835 -8.72135,4.52351 -15.09741,-9.31251 -11.43555,-10.93835 z"
   fill="#aac058"
   id="path1370"
   style="stroke-width:0.497198" />
<path
   d="m 140.43181,203.0129 c 1.45579,-0.15612 12.4195,-0.39577 12.67854,0.7458 -4.22121,7.13081 -16.06545,9.54271 -20.8823,1.98879 2.31942,-2.01415 5.2509,-2.41738 8.20376,-2.73459 z"
   fill="#99b850"
   id="path1372"
   style="stroke-width:0.497198" />
<path
   d="m 144.16079,311.89918 c 32.28702,44.48975 84.40179,67.73473 139.21534,59.16652 -0.14518,3.60021 4.22469,5.86843 1.24299,8.94956 22.89993,-3.3536 44.05022,-12.29719 62.64691,-25.85428 1.67953,-1.2241 10.21641,-9.4731 10.93834,-9.44675 0.49273,0.0179 6.91055,4.98043 8.20377,5.46917 -104.501,109.15079 -290.991884,-3.9741 -269.481134,-145.67891 1.9341,-0.87606 9.035584,5.1629 9.695364,4.97198 0,0 1.24299,-2.23739 1.24299,-2.23739 0.87507,7.48233 -0.73983,14.85826 -0.49719,22.37389 0.77264,23.91621 7.61706,48.87354 19.3907,69.60767 1.04909,1.84709 9.13153,14.98753 9.94396,15.41313 0.83429,0.43704 6.00863,-2.99114 7.45796,-2.73459 z"
   fill="#1b5c94"
   id="path1374"
   style="stroke-width:0.497198" />
<path
   d="m 235.64516,207.98488 c 0,0 0.99439,5.46917 0.99439,5.46917 -3.94029,0.0651 -6.91652,0.76966 -10.44115,0.9944 -0.75077,0.0477 -2.10364,-1.50403 -2.23739,-1.4916 -1.38817,0.12729 -2.81811,1.46674 -2.98318,1.4916 -1.08837,0.16357 -1.40956,-0.61553 -1.98879,-0.4972 -0.34257,0.0701 -5.53431,1.67058 -6.46357,1.98879 -0.50367,0.17253 0.006,1.32105 -0.4972,1.49159 -0.0746,0.0254 -0.51858,-0.81789 -1.49159,-0.49719 -2.52378,0.83131 -8.09687,4.29678 -11.93275,4.97197 -0.80894,0.1422 -4.65128,0.41516 -3.72898,-1.49159 3.40829,-2.1643 17.73106,-11.84375 20.3851,-12.42994 0.15712,-0.0348 0.33661,0.0283 0.4972,0 4.91231,-0.86065 14.34415,0.0989 19.88791,0 z"
   fill="#fab63d"
   id="path1376"
   style="stroke-width:0.497198" />
<path
   d="m 248.0751,207.98488 c 5.88035,0.004 30.77902,-1.13312 34.30663,0 0.48776,0.15661 5.78888,6.92397 6.46357,7.95516 0.9765,1.49308 2.77834,3.11743 0.9944,3.97758 -6.95629,-1.68649 -16.58999,-4.27739 -23.86549,-5.46917 -9.51189,-1.55822 -19.68107,-1.1535 -29.33466,-0.9944 0,0 -0.99439,-5.46917 -0.99439,-5.46917 4.13121,-0.0736 8.29723,-0.002 12.42994,0 z"
   fill="#fad03b"
   id="path1378"
   style="stroke-width:0.497198" />
<path
   d="m 226.1984,214.44845 c -0.0288,0.32019 0.0612,0.68663 0,0.99439 0,0 -15.41313,25.85428 -15.41313,25.85428 -2.52675,-0.57625 -12.42745,-5.92908 -15.16452,-7.45797 -3.47442,-1.94056 -7.99444,-5.00131 -11.18695,-7.45796 2.29059,-2.12204 7.62403,-4.17745 10.44115,-5.96637 -0.9223,1.90675 2.92004,1.63379 3.72898,1.49159 3.83588,-0.67519 9.40897,-4.14066 11.93275,-4.97197 0.97301,-0.3207 1.41701,0.52255 1.49159,0.49719 0.50316,-0.17054 -0.006,-1.31906 0.4972,-1.49159 0.92926,-0.31821 6.121,-1.91869 6.46357,-1.98879 0.57923,-0.11833 0.90042,0.66077 1.98879,0.4972 0.16507,-0.0249 1.59501,-1.36431 2.98318,-1.4916 0.13375,-0.0124 1.48662,1.53933 2.23739,1.4916 z"
   fill="#f6b52b"
   id="path1380"
   style="stroke-width:0.497198" />
<path
   d="m 236.63955,213.45405 c 9.65359,-0.1591 19.82277,-0.56382 29.33466,0.9944 -0.5678,-0.0815 -0.42162,0.36991 -0.4972,0.49719 0,0 -37.53842,-0.49719 -37.53842,-0.49719 1.23405,3.15372 3.18903,5.93554 4.72338,8.94955 -1.21963,-1.71682 -5.24991,-8.21768 -6.46357,-7.95516 0.0612,-0.30776 -0.0288,-0.6742 0,-0.99439 3.52463,-0.22474 6.50086,-0.92927 10.44115,-0.9944 z"
   fill="#fcd565"
   id="path1382"
   style="stroke-width:0.497198" />
<path
   d="m 265.47701,214.94564 c -0.34058,0.57228 -0.6374,1.60894 -0.99439,1.9888 -6.95132,7.39482 -15.25303,13.63166 -21.8767,21.37949 0,0 -1.49159,0.4972 -1.49159,0.4972 -5.0734,-0.21827 -11.59017,0.29683 -15.66173,1.49159 0,0 -11.93274,0.4972 -11.93274,0.4972 -0.78358,2.00918 -0.44797,0.0781 -1.24299,0 2.40643,-7.28245 12.55175,-18.47139 13.92153,-25.35708 1.21366,-0.26252 5.24394,6.23834 6.46357,7.95516 0.26103,0.51262 -0.11734,1.87593 1.24299,2.48599 0.56482,-0.95014 -0.7985,-1.86001 -1.24299,-2.48599 -1.53435,-3.01401 -3.48933,-5.79583 -4.72338,-8.94955 0,0 37.53842,0.49719 37.53842,0.49719 z"
   fill="#fac13d"
   id="path1384"
   style="stroke-width:0.497198" />
<path
   d="m 289.8397,219.91762 c 1.1172,0.27097 2.45168,1.43989 2.98318,2.48599 -0.48725,0.0348 -1.0113,-0.0626 -1.49159,0 0,0 -24.61128,-6.96077 -24.61128,-6.96077 0,0 -0.7458,12.67854 -0.7458,12.67854 0.76519,1.94603 6.67587,-1.94454 8.45236,-0.74579 -1.21614,0.39427 -8.21072,2.24484 -8.45236,2.73458 0,0 -0.4972,40.27301 -0.4972,40.27301 0.57178,0.64338 1.11522,-0.0239 1.4916,-0.4972 3.34266,-4.2043 8.87348,-15.7542 11.93274,-21.1309 0,0 0.4972,0 0.4972,0 -4.18044,7.41919 -7.94621,15.11978 -12.42994,22.3739 -0.75475,0.34953 -1.03666,1.15449 -1.98879,0.99439 -0.11486,-0.48626 -0.4967,-0.57078 -0.4972,-0.99439 0.68414,0.0159 0.47433,-0.5151 0.4972,-0.9944 0.83927,-17.60477 -0.2143,-35.5899 -0.4972,-53.20014 0.35699,-0.37986 0.65381,-1.41652 0.99439,-1.9888 0.0756,-0.12728 -0.0706,-0.57873 0.4972,-0.49719 7.2755,1.19178 16.9092,3.78268 23.86549,5.46917 z"
   fill="#fbf4e6"
   id="path1386"
   style="stroke-width:0.497198" />
<path
   d="m 212.27687,240.79992 c -0.61553,-0.0602 -0.30578,0.76767 -1.4916,0.4972 0,0 15.41313,-25.85428 15.41313,-25.85428 -1.36978,6.88569 -11.5151,18.07463 -13.92153,25.35708 z"
   fill="#f9f0d8"
   id="path1388"
   style="stroke-width:0.497198" />
<path
   d="m 291.33129,222.40361 c -2.93595,0.38384 -13.30948,3.80555 -16.90472,4.97198 -1.77649,-1.19875 -7.68717,2.69182 -8.45236,0.74579 0,0 0.7458,-12.67854 0.7458,-12.67854 0,0 24.61128,6.96077 24.61128,6.96077 z"
   fill="#fbd177"
   id="path1390"
   style="stroke-width:0.497198" />
<path
   d="m 307.24162,223.398 c -4.01935,1.18781 -8.99033,-1.01527 -12.92714,-0.99439 -0.32865,0.001 -0.66674,-0.0139 -0.9944,0 -0.16556,0.007 -0.33262,-0.0119 -0.4972,0 -0.5315,-1.0461 -1.86598,-2.21502 -2.98318,-2.48599 1.78394,-0.86015 -0.0179,-2.4845 -0.9944,-3.97758 5.89378,1.59004 12.8282,4.61449 18.39632,7.45796 z"
   fill="#fadb7d"
   id="path1392"
   style="stroke-width:0.497198" />
<path
   d="m 264.97982,270.13458 c 0,0 -22.3739,-31.82065 -22.3739,-31.82065 6.62367,-7.74783 14.92538,-13.98467 21.8767,-21.37949 0.2829,17.61024 1.33647,35.59537 0.4972,53.20014 z"
   fill="#f9b534"
   id="path1394"
   style="stroke-width:0.497198" />
<path
   d="m 292.82288,222.40361 c 0.16458,-0.0119 0.33164,0.007 0.4972,0 -4.74873,8.80139 -9.4736,17.65996 -14.41873,26.35147 -3.05926,5.3767 -8.59008,16.9266 -11.93274,21.1309 -0.37638,0.47334 -0.91982,1.14058 -1.4916,0.4972 0,0 0.4972,-40.27301 0.4972,-40.27301 0.24164,-0.48974 7.23622,-2.34031 8.45236,-2.73458 3.59524,-1.16643 13.96877,-4.58814 16.90472,-4.97198 0.48029,-0.0626 1.00434,0.0348 1.49159,0 z"
   fill="#f9b63b"
   id="path1396"
   style="stroke-width:0.497198" />
<path
   d="m 294.31448,222.40361 c 0,0 6.46357,29.33466 6.46357,29.33466 -0.0651,0.19689 0.38831,0.2839 0,1.49159 -3.80456,11.83679 -7.10595,23.99725 -8.94956,36.29543 0,0 -1.24299,0.4972 -1.24299,0.4972 -0.41367,-0.14966 -0.69012,-0.96655 -0.7458,-0.9944 0,0 9.19816,-34.80383 9.19816,-34.80383 0,0 -32.06925,18.89351 -32.06925,18.89351 -0.91584,-0.36395 -0.88402,-0.81938 -1.98879,0 -0.0472,-0.31025 0.0676,-0.70751 0,-0.9944 0.95213,0.1601 1.23404,-0.64486 1.98879,-0.99439 11.49123,-5.32499 22.14071,-13.12851 33.31224,-19.14211 0,0 -6.71217,-28.09167 -6.71217,-28.09167 -4.37285,8.47871 -9.49697,16.56613 -14.17013,24.85988 0,0 -0.4972,0 -0.4972,0 4.94513,-8.69151 9.67,-17.55008 14.41873,-26.35147 0.32766,-0.0139 0.66575,0.001 0.9944,0 z"
   fill="#fae8b8"
   id="path1398"
   style="stroke-width:0.497198" />
<path
   d="m 307.24162,223.398 c 1.27581,0.65133 3.67826,1.24548 4.47477,1.98879 -3.37249,8.60103 -8.05211,17.64754 -10.93834,26.35148 0,0 -6.46357,-29.33466 -6.46357,-29.33466 3.93681,-0.0209 8.90779,2.1822 12.92714,0.99439 z"
   fill="#f5c326"
   id="path1400"
   style="stroke-width:0.497198" />
<path
   d="m 232.66197,223.398 c 0.44449,0.62598 1.80781,1.53585 1.24299,2.48599 -1.36033,-0.61006 -0.98196,-1.97337 -1.24299,-2.48599 z"
   fill="#fcd565"
   id="path1402"
   style="stroke-width:0.497198" />
<path
   d="m 266.96861,271.12898 c 4.48373,-7.25412 8.2495,-14.95471 12.42994,-22.3739 4.67316,-8.29375 9.79728,-16.38117 14.17013,-24.85988 0,0 6.71217,28.09167 6.71217,28.09167 -11.17153,6.0136 -21.82101,13.81712 -33.31224,19.14211 z"
   fill="#f9ba34"
   id="path1404"
   style="stroke-width:0.497198" />
<path
   d="m 323.15194,262.17942 c -1.13212,0.72293 -0.46985,2.58742 -0.99439,3.48038 0,0 -21.3795,-12.42994 -21.3795,-12.42994 0.38831,-1.20769 -0.0651,-1.2947 0,-1.49159 2.88623,-8.70394 7.56585,-17.75045 10.93834,-26.35148 2.08078,1.94156 10.01903,31.73066 11.43555,36.79263 z"
   fill="#fbcc5f"
   id="path1406"
   style="stroke-width:0.497198" />
<path
   d="m 210.78527,241.29712 c 1.18582,0.27047 0.87607,-0.55736 1.4916,-0.4972 0.79502,0.0781 0.45941,2.00918 1.24299,0 0,0 11.93274,-0.4972 11.93274,-0.4972 4.07156,-1.19476 10.58833,-1.70986 15.66173,-1.49159 0,0 0,49.22257 0,49.22257 -0.31821,1.34541 -1.12168,2.54515 -1.98879,3.48038 -6.15829,6.64405 -17.57643,10.74941 -24.85988,15.41313 -4.26596,-4.80542 -10.9304,-19.47871 -15.41313,-22.87109 0,0 10.93835,-40.02441 10.93835,-40.02441 0,0 -20.3851,6.46357 -20.3851,6.46357 0,0 4.47477,18.64491 4.47477,18.64491 -0.64635,-2.17226 -2.80121,-6.75294 -3.48038,-9.19816 -0.85717,-3.0866 -0.88899,-6.76537 -2.48599,-9.69535 -1.15399,-0.32219 0.48925,-0.93921 0.4972,-0.9944 0,0 19.14211,-5.96637 19.14211,-5.96637 0.55935,-0.42709 0.99191,-0.9939 0.7458,-1.74019 -0.42561,-1.29172 -21.40486,-11.61454 -23.86549,-12.42994 0,0 1.49159,10.19255 1.49159,10.19255 -0.0134,-0.0497 -0.87507,0.18098 -0.99439,-0.2486 -0.13425,-0.48278 -0.35451,-6.33032 -0.9944,-7.45796 -0.0577,-0.10193 -1.57363,-1.37674 -1.98879,-1.243 1.10328,-1.78742 0.43952,-2.08177 2.48599,-3.97758 3.19251,2.45665 7.71253,5.5174 11.18695,7.45796 2.73707,1.52889 12.63777,6.88172 15.16452,7.45797 z"
   fill="url(#grad71)"
   id="path1408"
   style="fill:url(#grad71);stroke-width:0.497198" />

/&gt;
<path
   d="m 131.48225,228.36998 c 6.55008,-0.444 15.57422,0.0825 21.3795,3.48038 5.73716,3.35808 13.35274,15.43799 3.48038,18.39632 -13.05591,3.91245 -18.63049,-22.78359 -34.05804,-19.63931 -0.44101,-1.1704 8.33254,-2.17872 9.19816,-2.23739 z m 5.96637,3.97758 c 0,0 15.66173,8.70096 15.66173,8.70096 -0.91186,-2.3065 -4.63239,-6.23386 -3.23179,-1.74019 0,0 -12.42994,-6.96077 -12.42994,-6.96077 z"
   fill="#ea5334"
   id="path1410"
   style="stroke-width:0.497198" />
<path
   d="m 188.41138,249.25228 c 0.10043,-0.70801 -0.97152,-0.36991 -0.99439,-0.74579 -0.20684,-3.38294 -0.54941,-5.68297 -1.4916,-9.19816 0,0 -1.49159,-10.19255 -1.49159,-10.19255 2.46063,0.8154 23.43988,11.13822 23.86549,12.42994 0.24611,0.74629 -0.18645,1.3131 -0.7458,1.74019 0,0 -19.14211,5.96637 -19.14211,5.96637 z"
   fill="#f79b3c"
   id="path1412"
   style="stroke-width:0.497198" />
<path
   d="m 185.92539,239.30833 c 0.94219,3.51519 1.28476,5.81522 1.4916,9.19816 0.0229,0.37588 1.09482,0.0378 0.99439,0.74579 -0.008,0.0552 -1.65119,0.67221 -0.4972,0.9944 0,0 -19.39071,6.96076 -19.39071,6.96076 2.08028,-6.04194 9.936,-21.19702 13.42434,-26.84867 0.41516,-0.13374 1.93112,1.14107 1.98879,1.243 0.63989,1.12764 0.86015,6.97518 0.9944,7.45796 0.11932,0.42958 0.98097,0.19888 0.99439,0.2486 z"
   fill="#f2913d"
   id="path1414"
   style="stroke-width:0.497198" />
<path
   d="m 137.44862,232.34756 c 0,0 12.42994,6.96077 12.42994,6.96077 -1.4006,-4.49367 2.31993,-0.56631 3.23179,1.74019 0,0 -15.66173,-8.70096 -15.66173,-8.70096 z"
   fill="#e98c4a"
   id="path1416"
   style="stroke-width:0.497198" />
<path
   d="m 379.33527,252.73267 c 0,0 -0.49719,-16.90472 -0.49719,-16.90472 1.38022,-0.90988 2.56206,-1.66114 4.22618,-1.9888 1.62086,0.59565 3.15372,22.93026 -3.72899,18.89352 z"
   fill="#87b129"
   id="path1418"
   style="stroke-width:0.497198" />
<path
   d="m 378.83808,235.82795 c 0,0 0.49719,16.90472 0.49719,16.90472 -5.40851,-3.17213 -6.42727,-12.99576 -0.49719,-16.90472 z"
   fill="#6d9824"
   id="path1420"
   style="stroke-width:0.497198" />
<path
   d="m 242.60592,238.31393 c 0,0 22.3739,31.82065 22.3739,31.82065 -0.0229,0.4793 0.18694,1.01031 -0.4972,0.9944 0,0 -22.1253,-31.82065 -22.1253,-31.82065 -2.19065,1.06848 0.29832,42.2081 -1.24299,48.72537 0,0 0,-49.22257 0,-49.22257 0,0 1.49159,-0.4972 1.49159,-0.4972 z"
   fill="#f9e3b0"
   id="path1422"
   style="stroke-width:0.497198" />
<path
   d="m 264.48262,271.12898 c 5e-4,0.42361 0.38234,0.50813 0.4972,0.99439 0.0676,0.28689 -0.0472,0.68415 0,0.9944 1.48314,9.72369 -1.70291,23.56965 -0.4972,32.81504 -0.28688,1.153 -0.94468,-0.45692 -0.9944,-0.4972 0,0 -0.24859,-31.32345 -0.24859,-31.32345 -4.97944,5.30858 -15.14017,9.57852 -19.88791,14.41874 -1.07295,1.09383 -0.55587,1.67754 -0.7458,1.98879 -0.0656,0.10739 -1.32354,-0.24115 -1.49159,0.24859 -0.0452,1.23902 0.0646,2.49743 0,3.72899 0,0 -1.98879,-2.98319 -1.98879,-2.98319 0.86711,-0.93523 1.67058,-2.13497 1.98879,-3.48038 1.54131,-6.51727 -0.94766,-47.65689 1.24299,-48.72537 0,0 22.1253,31.82065 22.1253,31.82065 z"
   fill="#f8a53b"
   id="path1424"
   style="stroke-width:0.497198" />
<path
   d="m 361.43616,245.7719 c -0.61851,-0.45842 -1.07047,-1.48861 -1.74019,-1.49159 -3.16268,-0.0144 -15.78304,7.5032 -18.64491,9.94395 -1.17637,1.00334 -2.00819,1.77102 -2.98319,2.98318 -0.0875,0.10839 -0.79999,0.0408 -0.4972,0.9944 -0.73933,0.12529 -3.72749,1.12466 -3.97758,0.7458 0,0 1.49159,-11.68415 1.49159,-11.68415 3.29195,-4.87254 10.9836,-7.88406 16.65612,-7.95516 5.33096,-0.0666 5.04656,2.49046 7.45797,2.98318 2.72961,0.55786 5.20019,-1.52341 7.95516,-0.99439 -0.64287,2.572 -3.85427,3.193 -5.71777,4.47478 z"
   fill="#aec459"
   id="path1426"
   style="stroke-width:0.497198" />
<path
   d="m 129.74206,258.20184 c 0,0 -8.70096,-9.94395 -8.70096,-9.94395 -0.60608,2.48897 4.69603,4.27639 4.97198,7.45796 -2.06138,-1.51794 -3.48138,-3.85477 -5.46918,-5.46917 -0.75723,-0.61504 -1.53684,-1.84063 -2.23739,-0.4972 -0.33958,-2.2354 -0.27495,-3.91493 -0.49719,-5.96637 8.05659,-5.62132 18.32968,10.76781 11.93274,14.41873 z"
   fill="#74b13c"
   id="path1428"
   style="stroke-width:0.497198" />
<path
   d="m 198.85253,284.05612 c -0.10441,-0.0791 -0.38085,0.0771 -0.4972,0 -0.52653,-0.34904 -0.46637,-0.4798 -0.49719,-0.4972 -0.009,-0.41616 -0.36644,-0.51758 -0.4972,-0.9944 -1.28576,-4.68211 -2.27717,-9.37963 -3.48039,-13.42433 0,0 -4.47477,-18.64491 -4.47477,-18.64491 0,0 20.3851,-6.46357 20.3851,-6.46357 0,0 -10.93835,40.02441 -10.93835,40.02441 z"
   fill="#ef8d31"
   id="path1430"
   style="stroke-width:0.497198" />
<path
   d="m 361.43616,245.7719 c -4.05813,2.79176 -6.48843,4.17646 -9.44676,8.45236 -2.15585,1.56915 -3.21935,-2.42732 -4.22618,-2.48599 -1.17438,-0.0686 -6.30198,5.58999 -6.96076,5.96637 -1.29172,0.73784 -2.57946,0.38632 -3.23179,0.4972 -0.30279,-0.95363 0.40969,-0.88601 0.4972,-0.9944 0.47383,1.41006 4.39324,-2.50935 2.98319,-2.98318 2.86187,-2.44075 15.48223,-9.95837 18.64491,-9.94395 0.66972,0.003 1.12168,1.03317 1.74019,1.49159 z"
   fill="#94b84b"
   id="path1432"
   style="stroke-width:0.497198" />
<path
   d="m 337.57067,258.20184 c 0.65233,-0.11088 1.94007,0.24064 3.23179,-0.4972 0.65878,-0.37638 5.78638,-6.03498 6.96076,-5.96637 1.00683,0.0587 2.07033,4.05514 4.22618,2.48599 -3.71058,5.36327 -5.74561,16.63325 -14.66733,14.91593 -5.45724,-1.05058 -5.02269,-15.14812 -4.22618,-19.14211 0.34406,-1.72478 1.48762,-1.99277 1.98879,-2.73459 0,0 -1.49159,11.68415 -1.49159,11.68415 0.25009,0.37886 3.23825,-0.62051 3.97758,-0.7458 z"
   fill="#74a74a"
   id="path1434"
   style="stroke-width:0.497198" />
<path
   d="m 129.74206,258.20184 c -3.10053,1.76953 -9.84551,-2.84845 -10.93835,-5.96637 -0.14618,-0.85021 -0.36395,-1.60844 -0.4972,-2.48599 0.70055,-1.34343 1.48016,-0.11784 2.23739,0.4972 1.9878,1.6144 3.4078,3.95123 5.46918,5.46917 -0.27595,-3.18157 -5.57806,-4.96899 -4.97198,-7.45796 0,0 8.70096,9.94395 8.70096,9.94395 z"
   fill="#4d8b38"
   id="path1436"
   style="stroke-width:0.497198" />
<path
   d="m 193.88055,269.14019 c 1.20322,4.0447 2.19463,8.74222 3.48039,13.42433 0,0 -29.33466,-23.86548 -29.33466,-23.86548 0.14866,-0.47682 0.33312,-1.01578 0.49719,-1.4916 0,0 19.39071,-6.96076 19.39071,-6.96076 1.597,2.92998 1.62882,6.60875 2.48599,9.69535 0.67917,2.44522 2.83403,7.0259 3.48038,9.19816 z"
   fill="#d87637"
   id="path1438"
   style="stroke-width:0.497198" />
<path
   d="m 322.15755,265.6598 c -1.05207,1.79091 -6.4944,5.87986 -8.45236,7.45797 -7.03684,5.67103 -15.21922,10.19354 -21.8767,16.40752 1.84361,-12.29818 5.145,-24.45864 8.94956,-36.29543 0,0 21.3795,12.42994 21.3795,12.42994 z"
   fill="#f7b42a"
   id="path1440"
   style="stroke-width:0.497198" />
<path
   d="m 289.8397,289.02809 c -7.12832,-3.60766 -15.74575,-13.07679 -22.87109,-15.91032 0,0 32.06925,-18.89351 32.06925,-18.89351 0,0 -9.19816,34.80383 -9.19816,34.80383 z"
   fill="#f9b140"
   id="path1442"
   style="stroke-width:0.497198" />
<path
   d="m 338.06787,257.20744 c 0.975,-1.21216 1.80682,-1.97984 2.98319,-2.98318 1.41005,0.47383 -2.50936,4.39324 -2.98319,2.98318 z"
   fill="#6e9f30"
   id="path1444"
   style="stroke-width:0.497198" />
<path
   d="m 197.36094,282.56452 c 0.13076,0.47682 0.48775,0.57824 0.4972,0.9944 -1.39962,-0.79104 -6.85735,-2.63714 -8.94956,-3.48038 -1.90576,-2.15834 -5.49404,-2.50041 -7.95516,-3.48039 -0.71796,-0.28589 -2.25927,-1.20322 -2.98319,-1.49159 -1.14505,-0.45593 -3.75732,-2.04597 -4.47478,-0.9944 -0.59365,-0.25754 -1.51943,-0.81639 -1.98879,-0.99439 -0.0994,-0.0378 -1.50004,-1.6154 -1.98879,-0.7458 0,0 1.98879,6.21497 1.98879,6.21497 2.02558,9.88727 9.79678,34.08141 13.92153,43.2562 -6.07227,-1.94007 -11.57227,-5.94897 -17.40191,-8.94956 -2.13099,-1.41801 -4.43103,-3.7255 -6.96077,-4.47478 -0.25009,-0.0741 -0.67569,0.0373 -0.9944,0 1.8282,-14.03042 3.94825,-36.86024 7.95517,-49.71976 0,0 29.33466,23.86548 29.33466,23.86548 z"
   fill="#b04c3a"
   id="path1446"
   style="stroke-width:0.497198" />
<path
   d="m 330.60991,289.52529 c 0,0 -21.3795,13.17574 -21.3795,13.17574 0,0 24.85988,14.17013 24.85988,14.17013 0,0 -26.35148,-12.92714 -26.35148,-12.92714 0,0 -0.49719,-0.99439 -0.49719,-0.99439 0,0 13.42433,-33.56084 13.42433,-33.56084 0,0 -6.96076,4.22618 -6.96076,4.22618 0,0 0,-0.4972 0,-0.4972 1.95796,-1.57811 7.40029,-5.66706 8.45236,-7.45797 0.52454,-0.89296 -0.13773,-2.75745 0.99439,-3.48038 2.54317,9.09026 5.44879,18.09799 7.45797,27.34587 z"
   fill="#faba53"
   id="path1448"
   style="stroke-width:0.497198" />
<path
   d="m 361.18756,264.66541 c 7.00402,-0.41417 2.95882,2.70376 -0.4972,4.97197 -9.02911,5.92561 -8.83619,-4.41958 0.4972,-4.97197 z"
   fill="#77a31f"
   id="path1450"
   style="stroke-width:0.497198" />
<path
   d="m 307.24162,302.94963 c -0.87855,-0.57128 -1.70141,-1.29769 -2.48599,-1.98879 0,0 -12.42994,-10.68975 -12.42994,-10.68975 0,0 21.3795,-16.65612 21.3795,-16.65612 0,0 6.96076,-4.22618 6.96076,-4.22618 0,0 -13.42433,33.56084 -13.42433,33.56084 z"
   fill="#f8a33e"
   id="path1452"
   style="stroke-width:0.497198" />
<path
   d="m 171.50666,273.11777 c -0.99191,-0.0795 -0.23816,4.30672 0,5.46917 0,0 -1.98879,-6.21497 -1.98879,-6.21497 0.48875,-0.8696 1.88935,0.70801 1.98879,0.7458 z"
   fill="#cf7846"
   id="path1454"
   style="stroke-width:0.497198" />
<path
   d="m 266.96861,273.11777 c 7.12534,2.83353 15.74277,12.30266 22.87109,15.91032 0.0557,0.0279 0.33213,0.84474 0.7458,0.9944 0,0 1.24299,-0.4972 1.24299,-0.4972 6.65748,-6.21398 14.83986,-10.73649 21.8767,-16.40752 0,0 0,0.4972 0,0.4972 0,0 -21.3795,16.65612 -21.3795,16.65612 0,0 12.42994,10.68975 12.42994,10.68975 -3.45652,-3.04534 -9.02663,-6.565 -12.92714,-9.44676 -0.82435,-0.60907 -1.71832,-0.92926 -2.48599,-1.49159 -7.71402,-5.65264 -15.46036,-11.37887 -23.61689,-16.40752 0,0 0.2486,33.80944 0.2486,33.80944 -0.74977,-0.4445 -1.03765,1.98779 -1.49159,-1.4916 -1.20571,-9.24539 1.98034,-23.09135 0.4972,-32.81504 1.10477,-0.81938 1.07295,-0.36395 1.98879,0 z"
   fill="#faf4e3"
   id="path1456"
   style="stroke-width:0.497198" />
<path
   d="m 173.49545,274.11216 c 1.13311,0.49173 3.59921,2.13945 4.47478,0.9944 0.72392,0.28837 2.26523,1.2057 2.98319,1.49159 2.06386,2.06138 5.43287,2.46362 7.95516,3.48039 2.09221,0.84324 7.54994,2.68934 8.94956,3.48038 0.0308,0.0174 -0.0293,0.14816 0.49719,0.4972 0,0 0,0.49719 0,0.49719 0,0 -10.93834,39.03002 -10.93834,39.03002 -1.12516,0.7443 -1.68202,-1.05754 -1.9888,-1.74019 -4.12475,-9.17479 -11.89595,-33.36893 -13.92153,-43.2562 -0.23816,-1.16245 -0.99191,-5.54872 0,-5.46917 0.46936,0.178 1.39514,0.73685 1.98879,0.99439 z"
   fill="#b75929"
   id="path1458"
   style="stroke-width:0.497198" />
<path
   d="m 177.97023,275.10656 c -0.87557,1.14505 -3.34167,-0.50267 -4.47478,-0.9944 0.71746,-1.05157 3.32973,0.53847 4.47478,0.9944 z"
   fill="#d17843"
   id="path1460"
   style="stroke-width:0.497198" />
<path
   d="m 289.3425,290.02249 c 0,0 -0.7458,1.98879 -0.7458,1.98879 0.5867,0.15512 1.27333,-1.03417 1.7402,-0.2486 0.68364,1.15002 -4.82829,23.06748 -5.71778,26.10288 -6.30397,-3.30488 -12.52938,-6.81609 -18.64491,-10.44115 0,0 -0.2486,-33.80944 -0.2486,-33.80944 8.15653,5.02865 15.90287,10.75488 23.61689,16.40752 z m -2.73459,2.48599 c -2.57747,0.78656 -8.72731,6.8305 -11.68414,8.20376 1.71533,-0.56233 12.41005,-7.01496 12.67854,-7.70657 0.28191,-0.7269 -0.50466,-0.64685 -0.9944,-0.49719 z"
   fill="#f5993d"
   id="path1462"
   style="stroke-width:0.497198" />
<path
   d="m 263.48822,305.43561 c -6.56201,-5.34984 -14.52662,-9.23246 -20.8823,-14.91592 0.18993,-0.31125 -0.32715,-0.89496 0.7458,-1.98879 4.74774,-4.84022 14.90847,-9.11016 19.88791,-14.41874 0,0 0.24859,31.32345 0.24859,31.32345 z"
   fill="#f6993f"
   id="path1464"
   style="stroke-width:0.497198" />
<path
   d="m 188.90858,280.07854 c -2.52229,-1.01677 -5.8913,-1.41901 -7.95516,-3.48039 2.46112,0.97998 6.0494,1.32205 7.95516,3.48039 z"
   fill="#cf7644"
   id="path1466"
   style="stroke-width:0.497198" />
<path
   d="m 144.40939,284.05612 c 0.48825,-0.0234 5.74064,5.49005 7.70656,5.71777 0.16259,0.63243 -5.9425,8.08394 -6.71217,8.20376 -2.09668,0.32666 -7.56884,-6.95629 -7.70656,-8.20376 -0.16706,-1.50999 6.26071,-5.6959 6.71217,-5.71777 z"
   fill="#f1efc7"
   id="path1468"
   style="stroke-width:0.497198" />
<path
   d="m 214.26566,306.92721 c -0.91286,0.5847 -0.65133,-0.21827 -0.9944,0 -4.74973,-7.15468 -9.57056,-14.29195 -14.41873,-21.3795 -0.17849,-0.26153 -0.41715,-0.67022 -0.4972,-0.9944 0,0 0,-0.49719 0,-0.49719 0.11635,0.0771 0.39279,-0.0791 0.4972,0 4.48273,3.39238 11.14717,18.06567 15.41313,22.87109 z"
   fill="#f7f1e4"
   id="path1470"
   style="stroke-width:0.497198" />
<path
   d="m 198.85253,285.54771 c 0,0 -10.93835,38.03562 -10.93835,38.03562 0,0 4.97198,4.22618 4.97198,4.22618 -1.34094,-0.64934 -3.05031,-0.92031 -4.22618,-1.98879 0,0 -1.24299,0.74579 -1.24299,0.74579 -0.68614,3.58778 -1.18433,9.05099 -3.48039,11.68415 -0.0592,-2.05392 3.68225,-12.52491 3.48039,-13.17574 -6.52722,-3.97708 -13.02957,-7.9482 -19.39071,-12.18134 5.82964,3.00059 11.32964,7.00949 17.40191,8.94956 0.30678,0.68265 0.86364,2.48449 1.9888,1.74019 0,0 10.93834,-39.03002 10.93834,-39.03002 0.0801,0.32418 0.31871,0.73287 0.4972,0.9944 z"
   fill="#cb8c74"
   id="path1472"
   style="stroke-width:0.497198" />
<path
   d="m 213.27126,306.92721 c -0.0706,0.0448 0.18148,0.90191 -0.74579,1.49159 -7.71005,4.90635 -15.62444,9.74557 -22.6225,15.66173 0,0 23.61689,-15.66173 23.61689,-15.66173 0,0 3.23179,31.82065 3.23179,31.82065 -4.01537,-1.46822 -7.49128,-3.77323 -11.43555,-5.46917 -1.48264,-0.79751 -2.95137,-1.67407 -4.47478,-2.48599 -2.52626,-1.34641 -5.70136,-3.38343 -7.95516,-4.47478 0,0 -4.97198,-4.22618 -4.97198,-4.22618 0,0 10.93835,-38.03562 10.93835,-38.03562 4.84817,7.08755 9.669,14.22482 14.41873,21.3795 z"
   fill="#c36238"
   id="path1474"
   style="stroke-width:0.497198" />
<path
   d="m 330.60991,289.52529 c 0.78955,3.63452 5.43635,25.85925 4.97197,27.59447 -0.12082,0.45096 -3.82047,2.96628 -4.47478,3.72898 0.91286,-1.07842 1.75312,-2.96827 2.98319,-3.97758 0,0 -24.85988,-14.17013 -24.85988,-14.17013 0,0 21.3795,-13.17574 21.3795,-13.17574 z"
   fill="#f9b354"
   id="path1476"
   style="stroke-width:0.497198" />
<path
   d="m 291.82849,291.51408 c 0,0 -5.96637,26.84867 -5.96637,26.84867 -0.94567,-0.18147 -0.90888,0.3908 -1.4916,0.9944 0,0 -18.14771,-10.93835 -18.14771,-10.93835 -1.35735,0.29534 -0.621,3.80605 -0.7458,4.97198 0,0 -0.99439,-0.4972 -0.99439,-0.4972 -0.0403,-0.9049 0.2476,-4.09691 -0.2486,-4.47478 -6.14984,4.79846 -12.06599,14.59524 -18.14771,18.89351 0,0 17.89911,-20.1365 17.89911,-20.1365 0,0 -21.6281,-15.66173 -21.6281,-15.66173 0,0 1.243,36.29543 1.243,36.29543 0.32815,1.47568 4.18342,5.07191 5.46917,6.46357 0,0 14.91593,26.35147 14.91593,26.35147 -4.08647,-6.24281 -18.43062,-25.71158 -20.3851,-30.82625 -1.43591,-3.75881 -2.75,-30.27039 -2.48599,-35.30103 0.0646,-1.23156 -0.0452,-2.48997 0,-3.72899 0.16805,-0.48974 1.42596,-0.1412 1.49159,-0.24859 6.35568,5.68346 14.32029,9.56608 20.8823,14.91592 0.0497,0.0403 0.70752,1.6502 0.9944,0.4972 0.45394,3.47939 0.74182,1.0471 1.49159,1.4916 6.11553,3.62506 12.34094,7.13627 18.64491,10.44115 0.88949,-3.0354 6.40142,-24.95286 5.71778,-26.10288 -0.46687,-0.78557 -1.1535,0.40372 -1.7402,0.2486 0,0 0.7458,-1.98879 0.7458,-1.98879 0.76767,0.56233 1.66164,0.88252 2.48599,1.49159 z"
   fill="#f2d2ab"
   id="path1478"
   style="stroke-width:0.497198" />
<path
   d="m 241.11433,294.49727 c -0.26401,5.03064 1.05008,31.54222 2.48599,35.30103 0,0 -1.49159,0.99439 -1.49159,0.99439 -0.87557,0.0239 -4.72338,1.94902 -5.96638,2.48599 0,0 0,-0.49719 0,-0.49719 0.97004,-0.50764 6.46457,-3.00855 6.46357,-3.72899 0,0 -27.59447,-20.1365 -27.59447,-20.1365 0,0 2.23739,31.82065 2.23739,31.82065 0,0 -0.49719,-0.4972 -0.49719,-0.4972 0,0 -3.23179,-31.82065 -3.23179,-31.82065 0,0 -23.61689,15.66173 -23.61689,15.66173 6.99806,-5.91616 14.91245,-10.75538 22.6225,-15.66173 0.92727,-0.58968 0.67519,-1.44684 0.74579,-1.49159 0.34307,-0.21827 0.0815,0.5847 0.9944,0 7.28345,-4.66372 18.70159,-8.76908 24.85988,-15.41313 0,0 1.98879,2.98319 1.98879,2.98319 z"
   fill="#ea8035"
   id="path1480"
   style="stroke-width:0.497198" />
<path
   d="m 246.08631,327.31231 c -0.70602,0.49869 -0.66724,1.80483 -2.48599,0.4972 0,0 -1.243,-36.29543 -1.243,-36.29543 0,0 21.6281,15.66173 21.6281,15.66173 0,0 -17.89911,20.1365 -17.89911,20.1365 z"
   fill="#e58a25"
   id="path1482"
   style="stroke-width:0.497198" />
<path
   d="m 304.75563,300.96084 c 0.78458,0.6911 1.60744,1.41751 2.48599,1.98879 -0.0244,0.32318 0.0517,0.68016 0,0.99439 -7.13728,5.38664 -15.49417,7.3287 -20.8823,14.91593 -0.0134,-0.0323 -0.58521,0.0776 -0.4972,-0.4972 0,0 5.96637,-26.84867 5.96637,-26.84867 3.90051,2.88176 9.47062,6.40142 12.92714,9.44676 z"
   fill="#ec9a24"
   id="path1484"
   style="stroke-width:0.497198" />
<path
   d="m 286.60791,292.50848 c 0.48974,-0.14966 1.27631,-0.22971 0.9944,0.49719 -0.26849,0.69161 -10.96321,7.14424 -12.67854,7.70657 2.95683,-1.37326 9.10667,-7.4172 11.68414,-8.20376 z"
   fill="#f2d2ab"
   id="path1486"
   style="stroke-width:0.497198" />
<path
   d="m 355.71839,297.48045 c 1.419,-0.17203 11.89147,0.52305 12.18134,1.243 0,0 -0.7458,15.66172 -0.7458,15.66172 -2.90711,0.0353 -17.74647,1.28526 -19.14211,-0.2486 -1.48463,-1.6318 2.88574,-14.18554 3.97758,-15.41312 0.58172,-0.65432 2.89021,-1.14107 3.72899,-1.243 z"
   fill="#a0bc53"
   id="path1488"
   style="stroke-width:0.497198" />
<path
   d="m 307.73881,303.94402 c 0,0 -0.99439,36.29543 -0.99439,36.29543 0.91932,-11.88253 -1.44585,-24.50737 0.4972,-36.29543 0.0517,-0.31423 -0.0244,-0.67121 0,-0.99439 0,0 0.49719,0.99439 0.49719,0.99439 z"
   fill="#f8dcb4"
   id="path1490"
   style="stroke-width:0.497198" />
<path
   d="m 334.09029,316.87116 c -1.23007,1.00931 -2.07033,2.89916 -2.98319,3.97758 -5.39012,6.36861 -13.47356,10.99304 -18.39631,17.89912 -0.96655,0.98047 -2.0589,1.71235 -2.98319,2.73458 0,0 0.7458,1.243 0.7458,1.243 0.39925,0.18545 6.77283,0.34356 7.45797,0.4972 0.1412,0.0318 2.34279,1.46822 2.48598,1.49159 1.12417,0.18346 3.89853,-0.093 4.97198,0 0.65033,0.0562 2.41737,1.49507 5.22058,0.4972 -1.16146,1.38469 -2.95336,2.11259 -4.47478,2.98318 -0.1074,-0.7975 0.94318,-1.45132 -0.2486,-1.98879 -0.80447,-0.36295 -16.63425,-3.41923 -17.40192,-2.98318 0.88998,3.41226 1.27183,7.56784 4.22618,9.44675 -3.15223,-0.63243 -2.45516,-1.37575 -2.98319,-1.49159 -1.11372,-2.5382 -1.77499,-6.62019 -2.98318,-8.94956 -0.0363,-0.0696 0.43455,-0.0144 -0.4972,-1.49159 0.42212,0.0512 0.46786,-0.11734 0.4972,-0.4972 0,0 0.99439,-36.29543 0.99439,-36.29543 0,0 26.35148,12.92714 26.35148,12.92714 z"
   fill="#f09834"
   id="path1492"
   style="stroke-width:0.497198" />
<path
   d="m 307.24162,303.94402 c -1.94305,11.78806 0.42212,24.4129 -0.4972,36.29543 -0.0293,0.37986 -0.0751,0.54841 -0.4972,0.4972 -3.84433,-6.09614 -17.88917,-17.07626 -19.8879,-21.8767 5.38813,-7.58723 13.74502,-9.52929 20.8823,-14.91593 z"
   fill="#f3913d"
   id="path1494"
   style="stroke-width:0.497198" />
<path
   d="m 161.06551,308.4188 c 1.44237,2.2707 4.71493,3.3188 6.96077,4.47478 6.36114,4.23314 12.86349,8.20426 19.39071,12.18134 0.20186,0.65083 -3.53955,11.12182 -3.48039,13.17574 0.0462,1.59799 0.58222,1.86548 1.49159,2.98318 -10.17912,-5.86742 -19.05161,-13.89816 -27.34587,-22.12529 1.08688,-3.44608 1.52392,-7.12236 1.98879,-10.68975 0.31871,0.0373 0.74431,-0.0741 0.9944,0 z"
   fill="#912d31"
   id="path1496"
   style="stroke-width:0.497198" />
<path
   d="m 168.02628,312.89358 c -2.24584,-1.15598 -5.5184,-2.20408 -6.96077,-4.47478 2.52974,0.74928 4.82978,3.05677 6.96077,4.47478 z"
   fill="#cb8c74"
   id="path1498"
   style="stroke-width:0.497198" />
<path
   d="m 264.48262,312.89358 c 0.48228,10.80261 -1.65219,22.56283 -0.9944,33.31224 -5.08782,-3.19748 -10.34916,-7.52807 -14.41873,-11.93274 -1.28575,-1.39166 -5.14102,-4.98789 -5.46917,-6.46357 1.81875,1.30763 1.77997,0.001 2.48599,-0.4972 6.08172,-4.29827 11.99787,-14.09505 18.14771,-18.89351 0.4962,0.37787 0.20833,3.56988 0.2486,4.47478 z"
   fill="#e57a39"
   id="path1500"
   style="stroke-width:0.497198" />
<path
   d="m 284.37052,319.35715 c -7.11241,7.36897 -12.64274,17.2632 -19.6393,24.85988 -0.18148,-10.2015 -0.34009,-20.68143 0.74579,-30.82625 0.1248,-1.16593 -0.61155,-4.67664 0.7458,-4.97198 0,0 18.14771,10.93835 18.14771,10.93835 z"
   fill="#ea8338"
   id="path1502"
   style="stroke-width:0.497198" />
<path
   d="m 236.14235,332.78149 c -2.35423,1.23255 -17.96027,8.68057 -18.89351,7.95516 0,0 -2.23739,-31.82065 -2.23739,-31.82065 0,0 27.59447,20.1365 27.59447,20.1365 0.001,0.72044 -5.49353,3.22135 -6.46357,3.72899 z"
   fill="#c85a2a"
   id="path1504"
   style="stroke-width:0.497198" />
<path
   d="m 265.47701,313.39078 c -1.08588,10.14482 -0.92727,20.62475 -0.74579,30.82625 6.99656,-7.59668 12.52689,-17.49091 19.6393,-24.85988 0.58272,-0.6036 0.54593,-1.17587 1.4916,-0.9944 -0.088,0.57476 0.48377,0.46488 0.4972,0.4972 1.99873,4.80044 16.04357,15.78056 19.8879,21.8767 0.93175,1.47717 0.4609,1.42198 0.4972,1.49159 0,0 -21.6281,-22.37389 -21.6281,-22.37389 -2.60333,4.86209 -19.93564,23.2773 -20.6337,26.84867 -0.22871,1.1709 0.47482,1.52689 0.4972,1.98879 0.16706,3.48337 3.14626,14.38393 1.98879,16.40752 -0.38633,-0.60061 -0.56333,-1.43889 -0.9944,-1.98879 -0.11734,-5.67153 -2.13894,-11.23269 -2.48599,-16.90472 -0.65779,-10.74941 1.47668,-22.50963 0.9944,-33.31224 0,0 0.99439,0.4972 0.99439,0.4972 z"
   fill="#f5eee5"
   id="path1506"
   style="stroke-width:0.497198" />
<path
   d="m 330.60991,345.21143 c -2.80321,0.99787 -4.57025,-0.44102 -5.22058,-0.4972 -1.07345,-0.093 -3.84781,0.18346 -4.97198,0 -0.14319,-0.0234 -2.34478,-1.45977 -2.48598,-1.49159 -0.68514,-0.15364 -7.05872,-0.31175 -7.45797,-0.4972 0,0 -0.7458,-1.243 -0.7458,-1.243 0.92429,-1.02223 2.01664,-1.75411 2.98319,-2.73458 6.89017,-6.9906 15.20977,-12.87146 22.1253,-19.88791 1.1704,0.15513 0.63889,22.50217 0.24859,23.61689 -0.19888,0.5683 -3.63998,2.43726 -4.47477,2.73459 z"
   fill="#e17a2a"
   id="path1508"
   style="stroke-width:0.497198" />
<path
   d="m 306.74442,342.22824 c 1.20819,2.32937 1.86946,6.41136 2.98318,8.94956 -0.1581,-0.0348 -0.33809,0.0323 -0.49719,0 -5.69689,-1.16245 -12.41801,-0.9044 -18.14772,-2.48599 -0.90738,1.01876 2.28811,1.40707 2.73459,1.49159 0,0 -27.34587,-1.98879 -27.34587,-1.98879 -1.32354,-1.09632 -0.12977,-1.70191 -1.98879,-1.49159 0.69806,-3.57137 18.03037,-21.98658 20.6337,-26.84867 0,0 21.6281,22.37389 21.6281,22.37389 z"
   fill="#e37042"
   id="path1510"
   style="stroke-width:0.497198" />
<path
   d="m 192.88616,327.80951 c 2.2538,1.09135 5.4289,3.12837 7.95516,4.47478 0.97749,1.55921 2.96181,1.83565 4.47478,2.48599 3.51022,1.88885 7.14224,5.15693 10.93835,6.46356 0,0 -13.92154,7.95517 -13.92154,7.95517 -1.18581,0.37986 -1.83466,0.38831 -2.98318,0.49719 -3.70064,-1.9689 -11.38334,-5.33294 -13.92154,-8.45236 -0.90937,-1.1177 -1.44535,-1.38519 -1.49159,-2.98318 2.29606,-2.63316 2.79425,-8.09637 3.48039,-11.68415 0,0 1.24299,-0.74579 1.24299,-0.74579 1.17587,1.06848 2.88524,1.33945 4.22618,1.98879 z"
   fill="#a83a34"
   id="path1512"
   style="stroke-width:0.497198" />
<path
   d="m 263.98542,360.62455 c 0.80695,1.23305 1.27581,1.57662 1.98879,2.48599 0.43107,0.5499 0.60807,1.38818 0.9944,1.98879 -0.0348,0.0612 -1.34592,-0.31224 -0.9944,0.9944 -10.5376,0.26749 -21.52965,-0.81392 -31.82065,-2.98319 3.01252,-1.78196 1.98581,-6.50285 2.48599,-8.94956 0,0 5.96637,-23.36829 5.96637,-23.36829 -0.16556,0.003 -0.33163,-0.004 -0.49719,0 0,0 1.49159,-0.99439 1.49159,-0.99439 1.95448,5.11467 16.29863,24.58344 20.3851,30.82625 z"
   fill="#b44142"
   id="path1514"
   style="stroke-width:0.497198" />
<path
   d="m 242.10873,330.79269 c 0.16556,-0.004 0.33163,0.003 0.49719,0 -1.4891,7.90346 -4.35744,15.49964 -5.96637,23.36829 -0.50018,2.44671 0.52653,7.1676 -2.48599,8.94956 -7.28693,-1.53584 -12.3116,-3.94377 -18.89351,-6.46357 1.68103,-1.33448 1.81477,-13.50786 1.243,-13.92153 -4.83774,1.73323 -9.29312,4.90187 -14.17014,6.46357 0,0 13.92154,-7.95517 13.92154,-7.95517 0.74679,0.25706 0.90838,1.03616 1.74019,0.9944 6.08669,-2.77486 12.02671,-6.30496 18.14771,-8.94956 1.243,-0.53697 5.09081,-2.46212 5.96638,-2.48599 z"
   fill="#a93a40"
   id="path1516"
   style="stroke-width:0.497198" />
<path
   d="m 236.63955,354.16098 c 1.60893,-7.86865 4.47727,-15.46483 5.96637,-23.36829 0,0 -5.96637,23.36829 -5.96637,23.36829 z"
   fill="#cc6b56"
   id="path1518"
   style="stroke-width:0.497198" />
<path
   d="m 205.3161,334.77028 c -1.51297,-0.65034 -3.49729,-0.92678 -4.47478,-2.48599 1.52341,0.81192 2.99214,1.68848 4.47478,2.48599 z"
   fill="#cb8c74"
   id="path1520"
   style="stroke-width:0.497198" />
<path
   d="m 236.14235,332.78149 c 0,0 0,0.49719 0,0.49719 -6.121,2.6446 -12.06102,6.1747 -18.14771,8.94956 -0.83181,0.0418 -0.9934,-0.73734 -1.74019,-0.9944 -3.79611,-1.30663 -7.42813,-4.57471 -10.93835,-6.46356 3.94427,1.69594 7.42018,4.00095 11.43555,5.46917 0,0 0.49719,0.4972 0.49719,0.4972 0.93324,0.72541 16.53928,-6.72261 18.89351,-7.95516 z"
   fill="#cb8c74"
   id="path1522"
   style="stroke-width:0.497198" />
<path
   d="m 249.06949,334.27308 c 4.06957,4.40467 9.33091,8.73526 14.41873,11.93274 0.34705,5.67203 2.36865,11.23319 2.48599,16.90472 -0.71298,-0.90937 -1.18184,-1.25294 -1.98879,-2.48599 0,0 -14.91593,-26.35147 -14.91593,-26.35147 z"
   fill="#b54928"
   id="path1524"
   style="stroke-width:0.497198" />
<path
   d="m 215.26005,356.64697 c -6.23983,-2.38903 -9.87534,-3.74937 -15.91032,-6.96077 1.14852,-0.10888 1.79737,-0.11733 2.98318,-0.49719 4.87702,-1.5617 9.3324,-4.73034 14.17014,-6.46357 0.57177,0.41367 0.43803,12.58705 -1.243,13.92153 z"
   fill="#9d2f40"
   id="path1526"
   style="stroke-width:0.497198" />
<path
   d="m 326.13513,348.19461 c -3.28897,1.88239 -6.5302,3.35609 -9.94396,4.97198 -1.11272,-0.56034 -2.40295,-0.28092 -3.48038,-0.4972 -2.95435,-1.87891 -3.3362,-6.03449 -4.22618,-9.44675 0.76767,-0.43605 16.59745,2.62023 17.40192,2.98318 1.19178,0.53747 0.1412,1.19129 0.2486,1.98879 z"
   fill="#d97c25"
   id="path1528"
   style="stroke-width:0.497198" />
<path
   d="m 266.47141,348.19461 c 6.64703,5.50448 15.48522,8.94061 21.8767,14.91593 -0.4445,0.0955 -0.74033,0.34555 -1.4916,0.4972 0,0 -21.87669,-14.91593 -21.87669,-14.91593 -0.0224,-0.4619 -0.72591,-0.81789 -0.4972,-1.98879 1.85902,-0.21032 0.66525,0.39527 1.98879,1.49159 z"
   fill="#d9a28d"
   id="path1530"
   style="stroke-width:0.497198" />
<path
   d="m 293.81728,350.1834 c 3.95521,0.74878 9.37914,1.38917 13.42434,1.74019 0.79054,0.0686 2.14342,0.97252 1.98879,-0.74579 0.1591,0.0323 0.33909,-0.0348 0.49719,0 0.52803,0.11584 -0.16904,0.85916 2.98319,1.49159 1.07743,0.21628 2.36766,-0.0631 3.48038,0.4972 -9.53326,4.51256 -17.39843,7.70258 -27.84306,9.94395 -6.39148,-5.97532 -15.22967,-9.41145 -21.8767,-14.91593 0,0 27.34587,1.98879 27.34587,1.98879 z"
   fill="#cc5742"
   id="path1532"
   style="stroke-width:0.497198" />
<path
   d="m 286.85651,363.60774 c -6.57345,1.32752 -14.21339,2.31694 -20.8823,2.48599 -0.35152,-1.30664 0.95959,-0.93324 0.9944,-0.9944 1.15747,-2.02359 -1.82173,-12.92415 -1.98879,-16.40752 0,0 21.87669,14.91593 21.87669,14.91593 z"
   fill="#a6373f"
   id="path1534"
   style="stroke-width:0.497198" />
<path
   d="m 309.23041,351.1778 c 0.15463,1.71831 -1.19825,0.81441 -1.98879,0.74579 -4.0452,-0.35102 -9.46913,-0.99141 -13.42434,-1.74019 -0.44648,-0.0845 -3.64197,-0.47283 -2.73459,-1.49159 5.72971,1.58159 12.45083,1.32354 18.14772,2.48599 z"
   fill="#c6562c"
   id="path1536"
   style="stroke-width:0.497198" />
<text
   xml:space="preserve"
   style="font-style:normal;font-variant:normal;font-weight:bold;font-stretch:normal;font-size:48px;line-height:1.25;font-family:Cambria;-inkscape-font-specification:'Cambria, Bold';font-variant-ligatures:normal;font-variant-caps:normal;font-variant-numeric:normal;font-variant-east-asian:normal;fill:#ffffff;fill-opacity:1;stroke:#000000;stroke-opacity:1;opacity:1;stroke-width:2;stroke-miterlimit:4;stroke-dasharray:none"
   id="text4576"><textPath
     xlink:href="#path1320-4"  textLength="55%" startOffset="30"
     id="textPath9364"><tspan
       id="tspan4574"
       style="fill:#ffffff;fill-opacity:1;stroke:#000000;stroke-opacity:.6;-inkscape-font-specification:'Cambria, Bold';font-family:Cambria;font-weight:bold;font-style:normal;font-stretch:normal;font-variant:normal;font-size:48px;font-variant-ligatures:normal;font-variant-caps:normal;font-variant-numeric:normal;font-variant-east-asian:normal;stroke-width:2;stroke-miterlimit:4;stroke-dasharray:none">Fruits Inc.</tspan></textPath></text>
</svg>
