<?xml version="1.0" encoding="UTF-8" standalone="no"?>
<svg
   viewBox="0 0 340 340"
   version="1.1"
   id="svg912"
   sodipodi:docname="Gerina1v0.svg"
   inkscape:version="1.1 (c68e22c387, 2021-05-23)"
   xmlns:inkscape="http://www.inkscape.org/namespaces/inkscape"
   xmlns:sodipodi="http://sodipodi.sourceforge.net/DTD/sodipodi-0.dtd"
   xmlns:xlink="http://www.w3.org/1999/xlink"
   xmlns="http://www.w3.org/2000/svg"
   xmlns:svg="http://www.w3.org/2000/svg"
   xmlns:c2pa="http://c2pa.org/manifest"><sodipodi:namedview
   id="namedview914"
   pagecolor="#ffffff"
   bordercolor="#666666"
   borderopacity="1.0"
   inkscape:pageshadow="2"
   inkscape:pageopacity="0.0"
   inkscape:pagecheckerboard="0"
   showgrid="false"
   inkscape:zoom="2.4279174"
   inkscape:cx="292.22575"
   inkscape:cy="859.79036"
   inkscape:window-width="1920"
   inkscape:window-height="1129"
   inkscape:window-x="-8"
   inkscape:window-y="-8"
   inkscape:window-maximized="1"
   inkscape:current-layer="svg912" />
<metadata
   id="metadata870">
</metadata>
<defs
   id="defs877">
  <linearGradient
     id="grad1"
     x1="757.88"
     y1="267.044"
     x2="523.238"
     y2="280.004"
     gradientUnits="userSpaceOnUse"
     gradientTransform="matrix(0.42171761,0,0,0.42171761,-57.341274,-44.383624)">
    <stop
       offset="0%"
       style="stop-color: rgb(160, 188, 62);"
       id="stop872" />
    <stop
       offset="100%"
       style="stop-color: rgb(83, 138, 49);"
       id="stop874" />
  </linearGradient>
</defs>
<defs
   id="defs884">
  <linearGradient
     id="grad2"
     x1="400.195"
     y1="189.356"
     x2="447.276"
     y2="333.881"
     gradientUnits="userSpaceOnUse"
     gradientTransform="matrix(0.42171761,0,0,0.42171761,-57.341274,-44.383624)">
    <stop
       offset="0%"
       style="stop-color: rgb(155, 185, 59);"
       id="stop879" />
    <stop
       offset="100%"
       style="stop-color: rgb(87, 140, 50);"
       id="stop881" />
  </linearGradient>
</defs>
<defs
   id="defs886" />
<path
   d="m 265.90527,34.899286 c 0.6621,0.0881 1.00833,-0.0974 1.47601,0.63257 -7.59386,32.62787 -31.1936,68.272714 -67.68567,71.059424 -13.12427,1.002 -25.96009,-2.36794 -39.00888,-2.74116 28.28165,-8.762454 53.84617,-23.863324 75.90917,-43.436924 -24.13363,16.04383 -50.71239,27.58033 -77.8069,37.74373 -0.55877,-17.93439 10.85459,-35.0848 25.72478,-44.70207 16.04551,-10.3772 62.89159,-21.01376 81.39149,-18.55557 z"
   fill="url(#grad1)"
   id="path890"
   style="display:inline;fill:url(#grad1);stroke-width:0.421718" />

/&gt;
<path
   d="m 90.470746,35.321006 c 35.841784,0.56341 68.733644,25.09346 62.414214,64.10107 -11.78069,-18.25362 -28.05603,-32.76788 -45.12379,-45.96722 13.6316,14.80735 29.29335,27.91307 39.85231,45.33465 -29.74205,5.869044 -48.282874,-26.93637 -54.823284,-51.02783 -0.48076,-1.77122 -3.18819,-12.09613 -2.31945,-12.44067 z"
   fill="url(#grad2)"
   id="path892"
   style="display:inline;fill:url(#grad2);stroke-width:0.421718" />

/&gt;
<path
   d="m 219.30548,128.5206 c 12.32976,18.97602 24.99183,35.10251 26.56821,58.8296 4.6857,70.53101 -69.06048,124.54966 -134.52792,95.09732 -13.136504,-12.03877 -23.396474,-28.33436 -28.255084,-45.5455 32.458764,26.63442 83.461714,20.72742 107.537994,-14.54926 16.62706,-24.3622 16.85268,-56.56034 -0.42172,-80.54806 -13.51731,-18.77065 -36.18885,-29.55861 -59.04046,-30.15281 30.05539,-7.37542 63.40271,-1.64765 88.13898,16.86871 z"
   fill="#f6912e"
   id="path894"
   style="display:inline;stroke-width:0.421718" />
<path
   d="m 131.1665,111.65189 c 22.85161,0.5942 45.52315,11.38216 59.04046,30.15281 17.2744,23.98772 17.04878,56.18586 0.42172,80.54806 -24.07628,35.27668 -75.07923,41.18368 -107.537994,14.54926 -4.93494,-17.48188 -6.01917,-37.64167 -0.21086,-54.82329 10.48854,15.56096 32.296824,16.36897 46.388944,5.06061 29.8458,-23.9506 0.23911,-66.77265 -34.159134,-37.95458 -34.45053,28.86193 -33.08923,85.18653 -9.06693,120.18952 -4.65618,-0.85567 -6.77489,-6.58386 -10.96465,-8.85607 C 37.394216,203.80225 64.757356,127.9479 131.1665,111.65189 Z"
   fill="#f9a541"
   id="path896"
   style="display:inline;stroke-width:0.421718" />
<path
   d="m 111.34577,282.44752 c 65.46744,29.45234 139.21362,-24.56631 134.52792,-95.09732 -1.57638,-23.72709 -14.23845,-39.85358 -26.56821,-58.8296 25.72477,19.25647 40.2424,49.55856 38.79802,82.02407 -3.17216,71.29431 -88.68342,125.12404 -146.75773,71.90285 z"
   fill="#ee6b20"
   id="path898"
   style="display:inline;stroke-width:0.421718" />
<path
   d="m 110.4249,281.05481 c 65.46744,29.45234 139.21362,-24.56631 134.52792,-95.09732 -1.57638,-23.72709 -14.23845,-39.85358 -26.56821,-58.8296 25.72477,19.25647 40.2424,49.55856 38.79802,82.02407 -3.17216,71.29431 -88.68342,125.12404 -146.75773,71.90285 z"
   fill="#ee6b20"
   id="path898-4"
   style="display:none;fill:none;stroke:#000000;stroke-width:0.421718;stroke-opacity:1" />
<path
   d="m 86.042706,269.37428 c 1.92641,2.80737 4.90163,6.48306 7.1692,9.06693 2.38144,2.71375 10.189544,8.76961 11.386384,10.54294 0.11133,0.16531 0.68023,1.25882 -0.21086,1.05429 -11.823704,-8.32091 -21.292524,-17.45489 -29.309374,-29.52023 4.18976,2.27221 6.30847,8.0004 10.96465,8.85607 z"
   fill="#f27522"
   id="path900"
   style="display:inline;stroke-width:0.421718" />
<path
   d="m 214.03401,296.3642 c 1.64891,2.94401 -3.10975,11.41885 -6.32577,10.54294 0,0 -0.42171,-0.84343 -0.42171,-0.84343 4.11638,-2.93937 1.98713,-8.17711 6.74748,-9.69951 z"
   fill="#d5ccc7"
   id="path902"
   style="display:inline;stroke-width:0.421718" />
<path
   d="m 102.70056,297.62936 c 0.48076,-0.3922 4.57732,1.21454 4.84975,1.89773 0.0396,0.0999 -0.87801,1.16183 -0.42172,2.10858 1.52156,3.1574 8.14168,9.69107 0,8.01264 4.42045,-0.45546 -2.17058,-4.6836 -2.95202,-5.90405 -0.6642,-1.03785 -2.5244,-5.25966 -1.47601,-6.1149 z"
   fill="#d5ccc7"
   id="path904"
   style="display:inline;stroke-width:0.421718" />
<path
   d="m 205.59966,300.15966 c 0.90247,0.7068 -0.4601,10.4139 -5.06062,9.27779 -0.1594,-0.0392 -2.37806,-2.16636 -2.31944,-2.31945 0.27116,-0.70595 5.00832,0.77849 5.90404,-3.37374 0.501,-2.32282 -2.47126,-2.01665 1.47602,-3.5846 z"
   fill="#d5ccc7"
   id="path906"
   style="display:inline;stroke-width:0.421718" />
<path
   d="m 112.40006,301.0031 c 2.38988,-0.79494 2.43121,3.3885 2.74117,4.00631 0.50606,1.00875 2.92208,3.13927 1.47601,4.84976 -1.02351,-0.76162 -6.42107,-8.12313 -4.21718,-8.85607 z"
   fill="#d5ccc7"
   id="path908"
   style="display:inline;stroke-width:0.421718" />
<path
   d="m 195.90015,303.5334 c 0.40738,-0.0552 1.71513,-0.11766 1.89773,0.21086 -0.94676,1.07159 -2.90774,4.52588 0,4.21718 -1.63795,-0.85862 -9.20356,2.25366 -6.11491,3.5846 0.22858,0.0987 3.66262,-1.49499 3.79546,0.84343 0,0 -15.18183,5.90405 -15.18183,5.90405 -0.93874,-0.72578 -3.20126,-0.99821 -3.79546,-1.26515 -0.48202,-0.21677 0.0662,-1.36763 -0.42172,-1.68687 -0.75909,-0.49679 -8.98596,2.79894 -11.38637,2.5303 -5.65566,-0.63342 -12.3888,-1.72862 -18.13386,-2.10859 -2.40505,-0.15898 -8.45248,0.53854 -10.54294,0 -0.96953,-0.24965 -3.42645,-2.32788 -4.21718,-2.5303 -2.48012,-0.63511 -7.06503,1.41781 -8.64521,-2.74117 0,0 2.53031,-0.84343 2.53031,-0.84343 -2.1495,1.09183 -3.96035,-4.83542 -3.16288,-5.27147 1.30648,2.98281 15.71151,3.75118 16.44698,4.63889 2.53031,3.05324 -3.2409,1.15087 -4.21717,1.26515 -0.18556,0.0215 -2.40042,1.47939 -3.5846,1.0543 1.82013,-0.45588 3.81654,1.37311 4.84975,1.47601 2.14486,0.21339 4.8312,-1.49878 5.48233,-1.26515 0.81602,0.29267 0.50016,1.51987 0.84343,1.68687 0.75952,0.369 14.11785,-1.02182 16.86871,-0.84344 0.61318,0.0396 1.15972,1.70627 4.21718,1.26516 0.44617,-0.0645 1.58144,-1.26052 1.68687,-1.26516 1.82266,-0.0797 1.56794,0.85567 1.68687,0.84344 2.62181,-0.2699 9.76107,-0.9379 9.27778,-4.21718 0,0 -9.27778,0.84344 -9.27778,0.84344 0,0 0.42171,1.26515 0.42171,1.26515 -4.78101,0.16025 -9.96982,1.24871 -14.76011,0.84344 -0.32936,-0.0278 -0.0907,-0.80928 -0.42172,-0.84344 -1.18503,-0.1223 -5.62403,0.51787 -5.90405,0.42172 -0.25598,-0.0877 -1.10532,-3.39103 -4.21717,-2.10859 0.96995,-1.71976 5.92639,-0.0734 8.01263,0 19.45847,0.68487 28.7118,-3.56984 45.96722,-5.90405 z"
   fill="#d9d2cd"
   id="path910"
   style="display:inline;stroke-width:0.421718" />
<text
   xml:space="preserve"
   style="font-style:normal;font-variant:normal;font-weight:normal;font-stretch:normal;font-size:40px;line-height:1.25;font-family:'Bookman Old Style';-inkscape-font-specification:'Bookman Old Style, Normal';font-variant-ligatures:normal;font-variant-caps:normal;font-variant-numeric:normal;font-variant-east-asian:normal;fill:#000000;fill-opacity:1;stroke:none"
   id="text2979"
   transform="translate(-1.6282146)"><textPath
     xlink:href="#path898-4"
     id="textPath7971" textLength="50%" startOffset="10"><tspan
       id="tspan2977">Gerina</tspan></textPath></text>
</svg>
