<?xml version="1.0" encoding="UTF-8" standalone="no"?>
<svg
viewBox="0 -10 330 330"
   version="1.1"
   id="svg13051"
   sodipodi:docname="Lemon_Inc1v0.svg"
   inkscape:version="1.1 (c68e22c387, 2021-05-23)"
   xmlns:inkscape="http://www.inkscape.org/namespaces/inkscape"
   xmlns:sodipodi="http://sodipodi.sourceforge.net/DTD/sodipodi-0.dtd"
   xmlns:xlink="http://www.w3.org/1999/xlink"
   xmlns="http://www.w3.org/2000/svg"
   xmlns:svg="http://www.w3.org/2000/svg"
   xmlns:c2pa="http://c2pa.org/manifest">
  <sodipodi:namedview
     id="namedview13053"
     pagecolor="#ffffff"
     bordercolor="#666666"
     borderopacity="1.0"
     inkscape:pageshadow="2"
     inkscape:pageopacity="0.0"
     inkscape:pagecheckerboard="0"
     showgrid="false"
     inkscape:zoom="1.0399442"
     inkscape:cx="395.69433"
     inkscape:cy="777.44559"
     inkscape:window-width="1920"
     inkscape:window-height="1129"
     inkscape:window-x="-8"
     inkscape:window-y="-8"
     inkscape:window-maximized="1"
     inkscape:current-layer="svg13051" />
  <metadata
     id="metadata12583">
  </metadata>
  <defs
     id="defs12585" />
  <path
     d="m 180.72353,19.383307 c 4.38728,-0.92824 5.84891,5.01728 1.59697,5.58939 -4.36172,0.58689 -4.81366,-4.90868 -1.59697,-5.58939 z"
     fill="#edb136"
     id="path12589"
     style="stroke-width:0.399243" />
  <path
     d="m 126.82579,19.782547 c 2.44496,-0.6859 4.29545,1.74509 2.99432,4.19205 -2.2665,4.26271 -7.37521,-2.96318 -2.99432,-4.19205 z"
     fill="#efb437"
     id="path12591"
     style="stroke-width:0.399243" />
  <path
     d="m 150.78034,19.782547 c 2.29325,-0.76056 5.02766,6.0102 8.38409,6.38788 4.08346,0.45953 8.19526,-4.36492 11.37842,-1.79659 -4.98015,3.49218 -10.81868,2.66734 -13.57425,9.18258 -0.6344,1.49955 0.41881,3.72853 -0.99811,4.19205 -0.5258,0.17207 -9.92038,-1.5287 -10.57992,-2.19584 2.57351,-2.26011 -0.45913,-5.63451 0,-7.58561 0.0998,-0.42399 2.72642,-2.44935 3.19394,-3.19394 0.62721,-0.9993 1.50394,-4.76136 2.19583,-4.99053 z m -0.39924,4.79091 c -7.4862,0.71984 0.43917,17.56348 6.5875,4.19205 -0.0719,-0.55655 -5.91797,-4.25633 -6.5875,-4.19205 z"
     fill="#efb337"
     id="path12593"
     style="stroke-width:0.399243" />
  <path
     d="m 209.469,19.782547 c 1.88402,-0.14053 12.84722,-0.31061 12.57614,1.79659 -0.0455,0.35253 -4.53899,2.88653 -5.5894,4.39167 -4.09343,5.86408 -2.88492,16.99456 -4.79091,23.95455 -3.11529,11.37443 -15.33291,21.39062 -26.15039,24.95267 -3.27019,1.07675 -12.0667,2.00619 -14.37273,3.19394 -1.99342,1.02685 -1.71475,5.23886 -4.39167,4.39166 -1.58299,-0.50105 -4.8987,-19.2898 -4.99053,-22.15796 -0.77932,-24.28073 26.23982,-38.92335 47.70949,-40.52312 z m -14.17311,5.98864 c -3.9529,1.03284 -7.25504,2.77314 -10.77955,4.79091 -1.70517,0.97615 -3.20752,2.04412 -4.79091,3.19394 -4.0084,2.91048 -10.42303,8.27071 -12.77577,12.57614 -4.3705,7.99843 -2.05689,20.34341 0.99811,28.54585 0.82643,-1.13745 1.45684,-2.40105 2.19584,-3.59319 0.74778,-1.20571 5.47082,-8.84921 5.58939,-9.3822 0.71145,-3.20192 -0.5278,-8.87835 0,-12.37652 4.23477,-2.64099 -0.66953,10.63742 1.79659,10.57993 0.36531,-1.66165 4.67234,-5.29915 4.99053,-6.18826 0.26111,-0.72981 1.61374,-17.70241 3.59319,-14.37273 0.0415,1.17377 -3.0075,11.05502 -0.59887,10.18068 1.99741,-0.72502 13.4968,-18.01701 18.7644,-17.96591 0,0 -18.96402,22.15796 -18.96402,22.15796 2.67094,-0.72423 5.51394,-1.09193 8.18448,-1.79659 0.4731,-0.12496 6.53759,-3.52531 6.18826,-0.99811 0,0 -17.7663,7.78523 -17.7663,7.78523 0,0 -2.39545,3.59319 -2.39545,3.59319 1.09831,0.40603 9.40495,-4.56015 8.98295,-1.7966 -0.1026,0.67233 -10.24336,4.7981 -11.77765,6.18826 -2.1611,1.95789 -1.96907,3.36682 -2.99432,5.5894 -0.0503,0.10899 -1.49916,1.08035 -1.59697,1.79659 12.12619,-1.11708 22.82949,-5.08236 30.74168,-14.77197 8.24396,-10.09565 6.04413,-15.74254 8.38409,-27.34812 0.68949,-3.41911 1.46402,-5.68362 2.99432,-8.78334 -1.16299,-0.61443 -16.70112,1.80418 -18.96402,2.39546 z"
     fill="#1b5c80"
     id="path12595"
     style="stroke-width:0.399243" />
  <path
     d="m 211.26559,32.159067 c -1.16579,-0.59966 -2.62662,3.87345 -2.7947,4.59129 -0.55095,2.35553 -0.27348,5.90041 -0.79848,7.98485 -4.01,15.9166 -17.99586,25.87651 -33.93562,27.74736 1.02525,-2.22258 0.83322,-3.63151 2.99432,-5.5894 1.53429,-1.39016 11.67505,-5.51593 11.77765,-6.18826 0.422,-2.76355 -7.88464,2.20263 -8.98295,1.7966 0,0 2.39545,-3.59319 2.39545,-3.59319 0,0 17.7663,-7.78523 17.7663,-7.78523 0.34933,-2.5272 -5.71516,0.87315 -6.18826,0.99811 -2.67054,0.70466 -5.51354,1.07236 -8.18448,1.79659 0,0 18.96402,-22.15796 18.96402,-22.15796 -5.2676,-0.0511 -16.76699,17.24089 -18.7644,17.96591 -2.40863,0.87434 0.64039,-9.00691 0.59887,-10.18068 -1.97945,-3.32968 -3.33208,13.64292 -3.59319,14.37273 -0.31819,0.88911 -4.62522,4.52661 -4.99053,6.18826 -2.46612,0.0575 2.43818,-13.22092 -1.79659,-10.57993 -0.5278,3.49817 0.71145,9.1746 0,12.37652 -0.11857,0.53299 -4.84161,8.17649 -5.58939,9.3822 -9.07279,-14.61747 0.27587,-26.42227 9.58182,-37.5288 1.58339,-1.14982 3.08574,-2.21779 4.79091,-3.19394 0,0 10.77955,-4.79091 10.77955,-4.79091 2.2629,-0.59128 17.80103,-3.00989 18.96402,-2.39546 -1.5303,3.09972 -2.30483,5.36423 -2.99432,8.78334 z"
     fill="#5ba9b3"
     id="path12597"
     style="stroke-width:0.399243" />
  <path
     d="m 150.3811,24.573457 c 0.66953,-0.0643 6.51564,3.6355 6.5875,4.19205 -6.14833,13.37143 -14.0737,-3.47221 -6.5875,-4.19205 z"
     fill="#fffefd"
     id="path12599"
     style="stroke-width:0.399243" />
  <path
     d="m 184.51634,30.562097 c 3.52451,-2.01777 6.82665,-3.75807 10.77955,-4.79091 0,0 -10.77955,4.79091 -10.77955,4.79091 z"
     fill="#cfe5e7"
     id="path12601"
     style="stroke-width:0.399243" />
  <path
     d="m 211.26559,32.159067 c -2.33996,11.60558 -0.14013,17.25247 -8.38409,27.34812 -7.91219,9.68961 -18.61549,13.65489 -30.74168,14.77197 0.0978,-0.71624 1.54666,-1.6876 1.59697,-1.79659 15.93976,-1.87085 29.92562,-11.83076 33.93562,-27.74736 0.525,-2.08444 0.24753,-5.62932 0.79848,-7.98485 0.16808,-0.71784 1.62891,-5.19095 2.7947,-4.59129 z"
     fill="#fafcfd"
     id="path12603"
     style="stroke-width:0.399243" />
  <path
     d="m 170.14361,71.284837 c -0.739,1.19214 -1.36941,2.45574 -2.19584,3.59319 -3.055,-8.20244 -5.36861,-20.54742 -0.99811,-28.54585 2.35274,-4.30543 8.76737,-9.66566 12.77577,-12.57614 -9.30595,11.10653 -18.65461,22.91133 -9.58182,37.5288 z"
     fill="#fafcfd"
     id="path12607"
     style="stroke-width:0.399243" />
  <path
     d="m 162.558,86.855297 c -0.85438,0.0371 -3.4283,0.29544 -4.39167,0.39924 -1.06638,-10.49488 -8.21202,-5.39456 -15.37084,-6.38788 -6.91209,-0.95898 -17.28401,-10.03536 -19.76251,-16.56856 -2.81705,-7.42552 -2.07686,-22.28213 -10.18068,-26.94888 -0.33656,-0.19403 -6.65458,-0.79329 -3.19394,-2.79469 3.06538,-1.77264 20.26395,1.23405 24.35379,2.39545 15.41995,4.37929 28.91754,16.40727 27.34812,33.736 -0.22837,2.52281 -3.2179,8.6971 -3.19394,9.18258 0.0367,0.74099 4.08625,5.6904 4.39167,6.98674 z m -40.72275,-41.92047 c 4.64639,12.40726 0.0655,19.65152 12.97539,29.14471 3.88982,2.86017 6.94842,3.94611 11.77765,3.99243 2.03854,0.0196 4.09224,-0.72223 6.18826,-0.39925 3.51214,-1.30831 -8.05352,-7.2726 -8.78333,-7.58561 -0.40883,-0.17526 -8.39168,-1.32029 -4.79091,-2.79469 1.1051,-0.89071 9.81338,3.48419 9.78144,2.19583 -1.61294,-1.79619 -2.58031,-4.32619 -4.59129,-5.78902 -1.93912,-1.41092 -14.92449,-5.77105 -14.9716,-6.5875 -0.0511,-0.87953 0.69229,-1.01647 1.39735,-0.99811 1.14942,0.0296 11.23349,5.57702 11.77766,4.59129 0,0 -16.16933,-17.36705 -16.16933,-17.36705 8.03716,3.72733 14.78396,11.84194 19.96213,19.16365 1.85728,-11.68943 2.13076,1.21529 2.99432,3.7928 1.01727,3.03664 5.55906,6.78393 6.5875,10.18069 1.34465,0.31659 2.56594,-8.12659 2.59508,-9.18258 0.43997,-16.03598 -14.75401,-25.54793 -28.74546,-28.34623 -4.00241,-0.80048 -8.08387,-1.40134 -12.1769,-1.59697 1.36621,2.48489 3.18755,4.9031 4.19204,7.58561 z"
     fill="#1b5c80"
     id="path12609"
     style="stroke-width:0.399243" />
  <path
     d="m 129.82011,38.946187 c 9.3299,3.89661 18.99596,8.16332 24.75304,16.96781 0,0 3.99242,11.37842 3.99242,11.37842 -0.0291,1.05599 -1.25043,9.49917 -2.59508,9.18258 -1.02844,-3.39676 -5.57023,-7.14405 -6.5875,-10.18069 -0.86356,-2.57751 -1.13704,-15.48223 -2.99432,-3.7928 -5.17817,-7.32171 -11.92497,-15.43632 -19.96213,-19.16365 0,0 16.16933,17.36705 16.16933,17.36705 -0.54417,0.98573 -10.62824,-4.56174 -11.77766,-4.59129 -0.70506,-0.0184 -1.44845,0.11858 -1.39735,0.99811 0.0471,0.81645 13.03248,5.17658 14.9716,6.5875 2.01098,1.46283 2.97835,3.99283 4.59129,5.78902 0.0319,1.28836 -8.67634,-3.08654 -9.78144,-2.19583 -3.60077,1.4744 4.38208,2.61943 4.79091,2.79469 0.72981,0.31301 12.29547,6.2773 8.78333,7.58561 -2.09602,-0.32298 -4.14972,0.41881 -6.18826,0.39925 -6.54638,-2.02975 -10.04494,-3.04782 -14.37273,-8.58372 -6.19864,-7.92896 -6.12997,-16.129 -10.38031,-24.55342 -1.00449,-2.68251 -2.82583,-5.10072 -4.19204,-7.58561 4.09303,0.19563 8.17449,0.79649 12.1769,1.59697 z"
     fill="#5ba9b3"
     id="path12611"
     style="stroke-width:0.399243" />
  <path
     d="m 158.56557,67.292417 c 0,0 -3.99242,-11.37842 -3.99242,-11.37842 -5.75708,-8.80449 -15.42314,-13.0712 -24.75304,-16.96781 13.99145,2.7983 29.18543,12.31025 28.74546,28.34623 z"
     fill="#f3fafa"
     id="path12615"
     style="stroke-width:0.399243" />
  <path
     d="m 146.58829,78.071967 c -4.82923,-0.0463 -7.88783,-1.13226 -11.77765,-3.99243 -12.90991,-9.49319 -8.329,-16.73745 -12.97539,-29.14471 4.25034,8.42442 4.18167,16.62446 10.38031,24.55342 4.32779,5.5359 7.82635,6.55397 14.37273,8.58372 z"
     fill="#f9fcfd"
     id="path12619"
     style="stroke-width:0.399243" />
  <path
     d="m 208.27127,66.094687 c 7.4331,-1.47999 6.11839,10.71287 -0.39924,6.78712 -2.86257,-1.72393 -2.69209,-6.17149 0.39924,-6.78712 z"
     fill="#efb438"
     id="path12625"
     style="stroke-width:0.399243" />
  <path
     d="m 220.64779,76.075747 c 0.34734,10.47293 3.04183,5.60856 7.58561,7.98485 4.34096,2.2701 -5.13466,3.59558 -6.38788,4.39167 -1.59617,1.01368 -2.31122,4.049123 -4.39167,3.59319 -0.80807,-0.17727 -3.23027,-5.77305 -6.78712,-6.78713 -1.97506,-0.56293 -9.26483,0.12896 -9.3822,-1.39735 -0.10341,-1.34185 9.11111,-1.06398 11.37841,-1.79659 3.17038,-1.02445 5.35624,-4.20402 7.98485,-5.98864 z"
     fill="#eeb436"
     id="path12633"
     style="stroke-width:0.399243" />
  <path
     d="m 189.50687,76.874237 c 5.75828,-1.46083 4.74939,5.63171 1.59697,6.38788 -5.01489,1.20292 -5.10272,-5.49877 -1.59697,-6.38788 z"
     fill="#f27c50"
     id="path12635"
     style="stroke-width:0.399243" />
  <path
     d="m 116.04624,78.471207 c 2.60226,3.53569 1.72233,7.02188 7.18636,7.58561 1.63131,0.16808 10.48132,-1.61694 9.3822,2.19583 -0.6847,2.37549 -7.87865,-0.91786 -11.37841,0.19962 -2.22258,0.70946 -4.20442,4.139753 -5.5894,4.790913 -1.6828,0.7909 -3.05939,-0.22357 -5.98863,1.99622 -1.42211,1.07755 -3.67104,5.12827 -3.99243,5.19015 -0.31301,0.0603 -1.97266,-1.15221 -1.79659,-2.19583 0.0651,-0.38727 3.82195,-4.1673 4.39167,-6.387893 1.96746,-7.66865 -4.71865,-9.56784 -3.99243,-11.97727 5.86248,-3.77963 6.30244,10.70169 11.77766,-1.39735 z"
     fill="#efb436"
     id="path12637"
     style="stroke-width:0.399243" />
  <path
     d="m 158.16633,87.254537 c 0.96337,-0.1038 3.53729,-0.36211 4.39167,-0.39924 C 271.81512,82.091937 267.59393,248.93501 160.36216,239.76521 69.201506,231.9696 68.429366,96.91182 158.16633,87.254537 Z m -57.89017,44.315933 c -15.668284,28.89079 -5.535901,70.36291 20.16175,90.22882 62.27585,48.14346 150.47652,-20.30787 112.38678,-93.02352 -27.97134,-53.399093 -107.316,-52.347493 -132.54853,2.7947 z"
     fill="#a5591b"
     id="path12641"
     style="stroke-width:0.399243" />
  <path
     d="m 232.82469,128.77577 c 0,0 -15.37084,-17.16743 -15.37084,-17.16743 -35.40004,-31.946993 -94.5614,-21.739553 -117.17769,19.96213 25.23253,-55.142193 104.57719,-56.193793 132.54853,-2.7947 z"
     fill="#fbdb5e"
     id="path12645"
     style="stroke-width:0.399243" />
  <path
     d="m 239.41219,89.250757 c 3.38518,0.60525 5.35464,6.395073 3.79281,8.982963 -0.90189,1.49436 -2.44656,0.74458 -2.7947,1.19772 -0.33137,0.43079 1.80857,1.42131 0.19962,2.59508 -1.39535,1.01807 -3.26541,-0.29664 -4.79091,0 -1.19693,0.23276 -1.92595,2.45374 -3.59319,1.99621 -0.11059,-4.97216 0.48628,-7.14085 -2.59507,-11.777653 4.08026,-1.36342 8.07707,4.783323 9.78144,-2.99432 z m 0.39924,2.39545 c -0.43797,0.11538 -6.39347,5.887233 -1.59697,6.787133 6.12398,1.14862 3.62193,-7.320123 1.59697,-6.787133 z"
     fill="#efb336"
     id="path12647"
     style="stroke-width:0.399243" />
  <path
     d="m 239.81143,91.646207 c 2.02496,-0.53299 4.52701,7.935753 -1.59697,6.787133 -4.7965,-0.8999 1.159,-6.671753 1.59697,-6.787133 z"
     fill="#fefdfb"
     id="path12649"
     style="stroke-width:0.399243" />
  <path
     d="m 232.82469,128.77577 c 38.08974,72.71565 -50.11093,141.16698 -112.38678,93.02352 -25.697651,-19.86591 -35.830034,-61.33803 -20.16175,-90.22882 22.61629,-41.701683 81.77765,-51.909123 117.17769,-19.96213 0,0 15.37084,17.16743 15.37084,17.16743 z M 166.75004,96.03788 c -94.945874,1.71754 -82.470344,142.79989 6.78713,133.34702 83.46645,-8.83963 77.47781,-134.87133 -6.78713,-133.34702 z"
     fill="#f1bc3f"
     id="path12651"
     style="stroke-width:0.399243" />
  <path
     d="m 166.75004,96.03788 c 84.26494,-1.52431 90.25358,124.50739 6.78713,133.34702 C 84.279696,238.83777 71.804166,97.75542 166.75004,96.03788 Z m -6.38788,4.79091 c -7.28897,0.48748 -15.59441,0.21839 -14.57235,9.78145 0.3162,2.96078 15.00114,36.82733 17.16743,40.32349 2.22977,3.59878 5.25523,5.31632 7.58561,0.79849 2.8961,-5.61455 13.35306,-36.19932 13.97349,-41.92047 1.21689,-11.2255 -16.57536,-9.4896 -24.15418,-8.98296 z m 31.93941,7.58561 c -5.32989,1.16858 -9.73473,17.91362 -11.77766,22.95645 -1.73551,4.28387 -9.44368,18.90054 -8.38409,22.75682 0.89191,3.24585 6.39067,1.21809 8.58371,0.59887 7.21551,-2.03774 30.9976,-11.82756 36.73032,-15.9697 5.13945,-3.71336 5.41453,-5.90121 2.19583,-11.37842 -3.86267,-6.57313 -19.22832,-20.74424 -27.34811,-18.96402 z m -56.69245,1.99621 c -7.55886,1.02366 -24.57857,16.79694 -25.75114,24.15418 -0.49067,3.07896 1.53668,4.62283 3.7928,6.18826 5.7447,3.98644 35.34894,15.47544 42.31971,16.76819 5.49757,1.01966 7.34607,0.22637 5.78902,-5.78902 -1.03683,-4.006 -7.40954,-14.58673 -9.58182,-19.16364 -3.31052,-6.97477 -7.12488,-23.43674 -16.56857,-22.15797 z m 83.4417,31.54017 c -2.41262,0.29544 -36.61613,13.2261 -39.12577,14.77197 -1.7954,1.1059 -3.4794,2.62901 -2.99432,4.99053 0.59208,2.88094 16.81011,9.56466 20.16175,10.97917 5.21051,2.19943 22.84426,9.44209 27.54774,8.3841 6.51084,-1.46482 5.82295,-22.91054 4.99053,-28.1466 -1.1594,-7.29416 -2.02895,-12.02679 -10.57993,-10.97917 z m -107.79549,3.99242 c -8.12339,1.45165 -7.19396,22.29211 -5.38978,28.1466 1.99821,6.4853 4.42401,7.92896 10.97917,6.18826 6.43539,-1.70915 32.14941,-11.97248 37.92805,-15.17121 6.0054,-3.3245 2.08364,-5.37501 -1.99622,-7.18637 -5.67204,-2.51842 -37.02655,-12.78055 -41.52122,-11.97728 z m 64.27805,19.56289 c -4.06509,0.7374 -2.02895,7.71935 -1.39735,10.18068 1.48478,5.78702 11.9645,30.3105 15.17122,35.13335 5.94392,8.93984 13.12869,4.17528 19.76251,-0.99811 23.1896,-18.08449 13.40975,-23.31017 -7.18637,-33.53637 -3.36601,-1.67123 -24.2476,-11.16083 -26.35001,-10.77955 z m -17.96592,0.39924 c -3.79759,0.20002 -36.19253,14.73604 -40.32349,17.56667 -6.98635,4.78692 -5.18537,9.5443 -1.39735,16.16933 4.65956,8.14974 20.63086,24.62209 28.74546,12.77576 2.635,-3.8471 16.31744,-36.30153 17.16743,-40.72274 0.6875,-3.57761 -0.0491,-6.0074 -4.19205,-5.78902 z m 7.58561,3.59318 c -2.34874,0.64119 -6.92206,16.6568 -8.18447,19.76251 -2.45055,6.02856 -10.87297,22.28372 -9.98106,27.94698 1.58419,10.05772 29.24651,8.85041 35.73221,4.99053 2.36471,-1.40733 3.87105,-4.64319 3.7928,-7.38598 -0.12297,-4.30065 -13.10514,-38.70458 -15.9697,-42.31972 -1.20013,-1.51432 -3.27459,-3.57162 -5.38978,-2.99432 z"
     fill="#fefdfd"
     id="path12653"
     style="stroke-width:0.399243" />
  <path
     d="m 92.490929,97.63485 c 5.343861,-0.61563 7.132461,6.92407 2.794691,7.98485 -6.550371,1.60216 -8.629221,-7.31292 -2.794691,-7.98485 z"
     fill="#eeb437"
     id="path12655"
     style="stroke-width:0.399243" />
  <path
     d="m 160.36216,100.82879 c 7.57882,-0.50664 25.37107,-2.24254 24.15418,8.98296 -0.62043,5.72115 -11.07739,36.30592 -13.97349,41.92047 -2.33038,4.51783 -5.35584,2.80029 -7.58561,-0.79849 -2.16629,-3.49616 -16.85123,-37.36271 -17.16743,-40.32349 -1.02206,-9.56306 7.28338,-9.29397 14.57235,-9.78145 z m 10.77955,1.59697 c -3.51413,-0.26509 -18.35118,0.73421 -20.16175,3.79281 -2.45015,4.13934 1.83851,15.4407 3.59319,19.96213 1.02964,2.65296 11.174,23.89187 12.57614,23.75493 2.39785,-3.3237 4.107,-7.51654 5.38977,-11.37842 1.69479,-5.10152 6.52203,-22.43902 6.78712,-27.14849 0.34415,-6.1164 -2.28526,-8.5382 -8.18447,-8.98296 z"
     fill="#dea02f"
     id="path12659"
     style="stroke-width:0.399243" />
  <path
     d="m 171.14171,102.42576 c 5.89921,0.44476 8.52862,2.86656 8.18447,8.98296 -0.26509,4.70947 -5.09233,22.04697 -6.78712,27.14849 -1.28277,3.86188 -2.99192,8.05472 -5.38977,11.37842 -1.40214,0.13694 -11.5465,-21.10197 -12.57614,-23.75493 -1.75468,-4.52143 -6.04334,-15.82279 -3.59319,-19.96213 1.81057,-3.0586 16.64762,-4.0579 20.16175,-3.79281 z m -0.39924,5.19016 c -1.4217,0.3665 -0.1577,2.83182 1.19773,1.99621 0.49665,-0.30622 -0.44636,-2.18985 -1.19773,-1.99621 z m -13.57425,0.79848 c -1.09312,0.0104 -0.60405,5.24485 0.79849,5.5894 0.59247,-0.77893 -0.0471,-5.59659 -0.79849,-5.5894 z m 6.38788,0.39924 c -0.3122,1.16619 -0.61643,3.46383 0.79849,3.99243 0.19842,-1.07237 0.82763,-3.74809 -0.79849,-3.99243 z m 7.98485,6.78713 c -0.81285,-0.13894 -2.06049,5.01369 -0.79848,5.58939 1.10151,0.19364 2.07247,-5.37141 0.79848,-5.58939 z m -7.98485,4.79091 c -0.35971,1.0524 -0.52141,3.15282 0.79849,3.59318 0.54616,-0.0311 0.60685,-3.7401 -0.79849,-3.59318 z m -8.78333,1.19773 c -0.7941,0.44156 0.68629,2.53199 1.19772,2.79469 0.76615,-0.50743 -0.46671,-3.20112 -1.19772,-2.79469 z m 16.76818,4.79091 c -1.57501,0.70107 -1.83891,6.38468 -0.79848,6.78712 1.43408,0.55495 3.25423,-7.1684 0.79848,-6.78712 z m -7.98485,3.19394 c -1.23446,0.29144 -0.42918,4.71505 0.79849,4.39167 1.18974,-0.31341 0.59247,-4.1114 -0.79849,-4.39167 z m 3.99243,7.18636 c -1.20891,0.72782 -1.45724,5.01808 0.39924,4.39167 1.1586,-0.39086 0.6308,-3.87545 -0.39924,-4.39167 z"
     fill="#f3c044"
     id="path12661"
     style="stroke-width:0.399243" />
  <path
     d="m 170.74247,107.61592 c 0.75137,-0.19364 1.69438,1.68999 1.19773,1.99621 -1.35543,0.83561 -2.61943,-1.62971 -1.19773,-1.99621 z"
     fill="#fdfcf5"
     id="path12663"
     style="stroke-width:0.399243" />
  <path
     d="m 157.16822,108.4144 c 0.75138,-0.007 1.39096,4.81047 0.79849,5.5894 -1.40254,-0.34455 -1.89161,-5.57902 -0.79849,-5.5894 z"
     fill="#fefbf3"
     id="path12665"
     style="stroke-width:0.399243" />
  <path
     d="m 192.30157,108.4144 c 8.11979,-1.78022 23.48544,12.39089 27.34811,18.96402 3.2187,5.47721 2.94362,7.66506 -2.19583,11.37842 -5.73272,4.14214 -29.51481,13.93196 -36.73032,15.9697 -2.19304,0.61922 -7.6918,2.64698 -8.58371,-0.59887 -1.05959,-3.85628 6.64858,-18.47295 8.38409,-22.75682 2.04293,-5.04283 6.44777,-21.78787 11.77766,-22.95645 z m -16.96781,43.51744 c 0.54337,1.58459 1.49317,0.39844 1.59697,0.39924 4.04393,0.0351 31.3613,-11.64031 34.93372,-14.37273 3.79001,-2.8989 6.41903,-6.92366 4.19205,-11.77765 -2.32479,-5.06759 -16.71868,-17.43413 -22.5572,-14.17312 -1.92276,1.07397 -15.22991,29.42937 -16.56857,33.33676 -0.46153,1.34744 -1.98184,5.46563 -1.59697,6.5875 z"
     fill="#de9f2e"
     id="path12667"
     style="stroke-width:0.399243" />
  <path
     d="m 163.5561,108.81364 c 1.62612,0.24434 0.99691,2.92006 0.79849,3.99243 -1.41492,-0.5286 -1.11069,-2.82624 -0.79849,-3.99243 z"
     fill="#fefbf4"
     id="path12669"
     style="stroke-width:0.399243" />
  <path
     d="m 135.60912,110.41061 c 9.44369,-1.27877 13.25805,15.1832 16.56857,22.15797 2.17228,4.57691 8.54499,15.15764 9.58182,19.16364 1.55705,6.01539 -0.29145,6.80868 -5.78902,5.78902 -6.97077,-1.29275 -36.57501,-12.78175 -42.31971,-16.76819 -2.25612,-1.56543 -4.28347,-3.1093 -3.7928,-6.18826 1.17257,-7.35724 18.19228,-23.13052 25.75114,-24.15418 z m 22.95645,42.71896 c 0.008,-0.33257 -0.72622,-1.14663 -0.79848,-1.59697 -1.00091,-6.25014 -8.36773,-17.82299 -11.57804,-24.15418 -3.00949,-5.93514 -3.53369,-15.23669 -12.57614,-13.37462 -4.84321,0.9973 -18.43143,12.2296 -19.76251,16.56856 -1.25721,4.09783 3.43309,7.28059 6.58751,9.3822 5.1123,3.40634 27.87072,13.73994 33.53637,14.77198 1.65766,0.30183 4.52901,1.08913 4.59129,-1.59697 z"
     fill="#dea02e"
     id="path12671"
     style="stroke-width:0.399243" />
  <path
     d="m 176.93073,152.33108 c 0,0 -1.59697,-0.39924 -1.59697,-0.39924 -0.38487,-1.12187 1.13544,-5.24006 1.59697,-6.5875 1.33866,-3.90739 14.64581,-32.26279 16.56857,-33.33676 5.83852,-3.26101 20.23241,9.10553 22.5572,14.17312 2.22698,4.85399 -0.40204,8.87875 -4.19205,11.77765 -3.57242,2.73242 -30.88979,14.40787 -34.93372,14.37273 z m 22.15796,-34.33486 c -1.35862,0.28187 -3.48858,4.17209 -2.39545,5.5894 0,0 4.19204,-4.59129 4.19204,-4.59129 0.0487,-1.0021 -1.08594,-1.14543 -1.79659,-0.99811 z m 4.39167,6.78713 c -0.4743,0.0515 -3.99003,4.04273 -3.59318,5.19015 1.91157,0.28306 7.2187,-5.58381 3.59318,-5.19015 z m -13.17501,0.39924 c -0.51701,0.0272 -2.46492,3.32888 -1.59697,3.99242 1.13864,0.87075 4.11819,-4.12497 1.59697,-3.99242 z m 19.16365,2.39545 c -0.63081,0.0926 -1.96747,2.61904 -1.19773,3.19394 1.72433,1.28756 3.87185,-3.58559 1.19773,-3.19394 z m -14.37273,4.79092 c -0.52581,0.0695 -2.65976,3.21869 -1.99622,3.59318 2.05411,0.34934 4.97337,-3.98644 1.99622,-3.59318 z m -9.58183,4.39166 c -0.96297,0.50265 -1.91197,3.39516 -1.19772,3.99243 1.0504,0.87873 4.16489,-4.0603 1.19772,-3.99243 z m 15.96971,0 c -0.44875,0.0323 -2.13435,2.43538 -0.79849,2.7947 1.64288,0.44196 2.87535,-2.94401 0.79849,-2.7947 z m -11.97728,7.18637 c -0.22557,0.0188 -3.6383,2.68491 -3.39356,2.99432 2.43258,1.67402 7.10971,-3.30573 3.39356,-2.99432 z m -8.38409,1.19773 c -0.49427,0.0659 -2.69369,2.85817 -1.19773,3.19394 1.56463,0.35133 3.80678,-3.54168 1.19773,-3.19394 z"
     fill="#f3c044"
     id="path12673"
     style="stroke-width:0.399243" />
  <path
     d="m 248.59477,112.00758 c 2.82185,0.7941 0.34015,3.53969 0.59886,5.38978 0.16848,1.20411 3.00351,3.45704 2.7947,4.39167 -0.74698,3.34405 -4.52382,-1.59138 -4.99053,-1.79659 -5.54588,-2.43818 -3.69259,7.38598 -8.58372,3.39356 2.57592,-1.48838 2.16031,-9.46285 4.59129,-9.3822 2.10441,0.0699 2.21939,5.45046 5.5894,-1.99622 z"
     fill="#eeb437"
     id="path12675"
     style="stroke-width:0.399243" />
  <path
     d="m 157.76709,151.5326 c -3.01269,-0.51942 -0.95459,2.32439 0.79848,1.59697 -0.0623,2.6861 -2.93363,1.8988 -4.59129,1.59697 -5.66565,-1.03204 -28.42407,-11.36564 -33.53637,-14.77198 -3.15442,-2.10161 -7.84472,-5.28437 -6.58751,-9.3822 1.33108,-4.33896 14.9193,-15.57126 19.76251,-16.56856 9.04245,-1.86207 9.56665,7.43948 12.57614,13.37462 3.21031,6.33119 10.57713,17.90404 11.57804,24.15418 z m -27.74736,-34.73411 c 0,0 1.59697,2.7947 1.59697,2.7947 1.38737,-0.54416 -0.72702,-3.30852 -1.59697,-2.7947 z m 7.18636,5.98864 c -1.47001,1.28916 3.12647,5.46164 3.59319,5.19016 0.31739,-2.14633 -2.0058,-4.19964 -3.59319,-5.19016 z m -15.9697,0.79849 c -1.56822,1.4736 1.42769,3.49936 2.7947,3.59318 0,0 -2.7947,-3.59318 -2.7947,-3.59318 z m 9.18258,1.59697 c -1.23566,0.77054 2.87095,5.42291 4.19205,3.7928 0.22517,-0.27787 -3.37879,-4.29984 -4.19205,-3.7928 z m -7.58561,5.98864 c -1.68959,0.24154 1.12706,3.34805 1.99621,2.7947 1.0029,-0.949 -1.75427,-2.82944 -1.99621,-2.7947 z m 21.15986,0.79848 c -1.17537,0.8955 2.36311,4.92546 3.19394,4.79091 1.81895,-0.29464 -2.27329,-5.49238 -3.19394,-4.79091 z m -17.16743,2.39546 c -2.27688,0.5278 3.55645,4.87395 4.19204,3.7928 -0.30821,-1.00968 -3.33647,-3.99123 -4.19204,-3.7928 z m 7.58561,0.39924 c -0.38727,0.18565 -0.40843,1.35862 0.39924,1.19773 0.60525,-0.12057 -0.24314,-1.27279 -0.39924,-1.19773 z m 6.38788,5.19015 c -1.18296,0.89271 1.6824,3.92296 2.79469,3.19394 0.87914,-0.5761 -1.6313,-4.07187 -2.79469,-3.19394 z m -6.38788,1.19773 c -1.95789,0.50864 1.78301,4.28467 3.19394,3.59318 0.99052,-0.63439 -2.13595,-3.86786 -3.19394,-3.59318 z m 17.56667,0.39924 c -1.36541,1.12427 -0.18605,2.744 0.79848,3.59319 1.03764,-0.62162 -0.40004,-3.61355 -0.79848,-3.59319 z m -5.98864,4.39167 c -1.69239,0.49706 1.95908,4.08984 2.7947,3.99243 1.62651,-0.52141 -0.94062,-4.53699 -2.7947,-3.99243 z"
     fill="#f3c044"
     id="path12677"
     style="stroke-width:0.399243" />
  <path
     d="m 256.57962,114.40304 c 4.77414,-1.28915 3.9517,5.99143 0.39924,5.98864 -3.36641,-0.002 -2.82384,-5.33388 -0.39924,-5.98864 z"
     fill="#f27c4f"
     id="path12681"
     style="stroke-width:0.399243" />
  <path
     d="m 85.703799,115.20152 c 3.94851,-0.77692 5.18097,4.71785 1.99622,5.19016 -3.081763,0.45713 -5.620943,-4.47671 -1.99622,-5.19016 z"
     fill="#efb335"
     id="path12683"
     style="stroke-width:0.399243" />
  <path
     d="m 171.54095,115.60077 c 1.27399,0.21798 0.30303,5.78303 -0.79848,5.58939 -1.26201,-0.5757 -0.0144,-5.72833 0.79848,-5.58939 z"
     fill="#fefcf8"
     id="path12685"
     style="stroke-width:0.399243" />
  <path
     d="m 130.01973,116.79849 c 0.86995,-0.51382 2.98434,2.25054 1.59697,2.7947 0,0 -1.59697,-2.7947 -1.59697,-2.7947 z"
     fill="#fffcf5"
     id="path12687"
     style="stroke-width:0.399243" />
  <path
     d="m 199.08869,117.99622 c 0.71065,-0.14732 1.8453,-0.004 1.79659,0.99811 0,0 -4.19204,4.59129 -4.19204,4.59129 -1.09313,-1.41731 1.03683,-5.30753 2.39545,-5.5894 z"
     fill="#fdfcfb"
     id="path12691"
     style="stroke-width:0.399243" />
  <path
     d="m 163.5561,120.39168 c 1.40534,-0.14692 1.34465,3.56204 0.79849,3.59318 -1.3199,-0.44036 -1.1582,-2.54078 -0.79849,-3.59318 z"
     fill="#fefaf2"
     id="path12693"
     style="stroke-width:0.399243" />
  <path
     d="m 154.77277,121.58941 c 0.73101,-0.40643 1.96387,2.28726 1.19772,2.79469 -0.51143,-0.2627 -1.99182,-2.35313 -1.19772,-2.79469 z"
     fill="#fdfdf4"
     id="path12695"
     style="stroke-width:0.399243" />
  <path
     d="m 137.20609,122.78713 c 1.58739,0.99052 3.91058,3.04383 3.59319,5.19016 -0.46672,0.27148 -5.0632,-3.901 -3.59319,-5.19016 z"
     fill="#fefbf7"
     id="path12697"
     style="stroke-width:0.399243" />
  <path
     d="m 121.23639,123.58562 c 0,0 2.7947,3.59318 2.7947,3.59318 -1.36701,-0.0938 -4.36292,-2.11958 -2.7947,-3.59318 z"
     fill="#fefcf7"
     id="path12699"
     style="stroke-width:0.399243" />
  <path
     d="m 203.48036,124.78335 c 3.62552,-0.39366 -1.68161,5.47321 -3.59318,5.19015 -0.39685,-1.14742 3.11888,-5.13865 3.59318,-5.19015 z"
     fill="#fdfcf9"
     id="path12701"
     style="stroke-width:0.399243" />
  <path
     d="m 130.41897,125.18259 c 0.81326,-0.50704 4.41722,3.51493 4.19205,3.7928 -1.3211,1.63011 -5.42771,-3.02226 -4.19205,-3.7928 z"
     fill="#fefcf7"
     id="path12703"
     style="stroke-width:0.399243" />
  <path
     d="m 190.30535,125.18259 c 2.52122,-0.13255 -0.45833,4.86317 -1.59697,3.99242 -0.86795,-0.66354 1.07996,-3.96527 1.59697,-3.99242 z"
     fill="#fdfbf7"
     id="path12705"
     style="stroke-width:0.399243" />
  <path
     d="m 171.54095,126.38032 c 2.45575,-0.38128 0.6356,7.34207 -0.79848,6.78712 -1.04043,-0.40244 -0.77653,-6.08605 0.79848,-6.78712 z"
     fill="#fefcfa"
     id="path12707"
     style="stroke-width:0.399243" />
  <path
     d="m 209.469,127.57804 c 2.67412,-0.39165 0.5266,4.4815 -1.19773,3.19394 -0.76974,-0.5749 0.56692,-3.10131 1.19773,-3.19394 z"
     fill="#fdfaf8"
     id="path12709"
     style="stroke-width:0.399243" />
  <path
     d="m 163.5561,129.57426 c 1.39096,0.28027 1.98823,4.07826 0.79849,4.39167 -1.22767,0.32338 -2.03295,-4.10023 -0.79849,-4.39167 z"
     fill="#fdfbf7"
     id="path12711"
     style="stroke-width:0.399243" />
  <path
     d="m 79.715156,130.37274 c 8.013603,-1.45843 5.999023,12.84324 -1.19772,8.78334 -3.49697,-1.97266 -2.59308,-8.09345 1.19772,-8.78334 z"
     fill="#efb537"
     id="path12713"
     style="stroke-width:0.399243" />
  <path
     d="m 122.83336,131.17123 c 0.24194,-0.0347 2.99911,1.8457 1.99621,2.7947 -0.86915,0.55335 -3.6858,-2.55316 -1.99621,-2.7947 z"
     fill="#fefcf4"
     id="path12715"
     style="stroke-width:0.399243" />
  <path
     d="m 252.18795,131.17123 c 1.28237,0.5765 9.19416,3.55805 9.3822,4.19204 0.62362,2.10401 -4.72663,4.75259 -5.98864,6.38789 -4.79011,6.20662 -5.81896,30.75245 6.98675,26.15038 0,0 0.99811,1.39735 0.99811,1.39735 -9.98865,2.87974 -11.16203,9.81059 -14.17312,18.56478 -2.32319,-5.16141 1.62013,-10.30724 2.19584,-14.57235 0.8939,-6.62623 -2.07606,-15.9713 -1.59697,-23.55531 0.1573,-2.49048 3.62672,-8.19845 0.19962,-9.78145 -0.78252,-0.36131 -5.52432,0.0978 -4.99053,-2.59507 0.12815,-0.64638 3.42949,0.006 4.59129,-0.59887 2.27967,-1.18694 0.4747,-4.30822 2.39545,-5.58939 z m 0.79849,35.53259 c -0.64119,0.17686 -0.80807,4.40005 -0.59887,4.99053 0.71026,2.00499 5.25683,-2.30164 0.59887,-4.99053 z"
     fill="#f17850"
     id="path12717"
     style="stroke-width:0.399243" />
  <path
     d="m 143.99322,131.96971 c 0.92065,-0.70147 5.01289,4.49627 3.19394,4.79091 -0.83083,0.13455 -4.36931,-3.89541 -3.19394,-4.79091 z"
     fill="#fefcf6"
     id="path12719"
     style="stroke-width:0.399243" />
  <path
     d="m 195.09627,132.36896 c 2.97715,-0.39326 0.0579,3.94252 -1.99622,3.59318 -0.66354,-0.37449 1.47041,-3.52372 1.99622,-3.59318 z"
     fill="#fefcfa"
     id="path12721"
     style="stroke-width:0.399243" />
  <path
     d="m 292.11221,132.36896 c 5.68202,-1.53749 3.88503,8.50546 -0.79849,5.98863 -2.40623,-1.29314 -0.96257,-5.51234 0.79849,-5.98863 z"
     fill="#efb435"
     id="path12723"
     style="stroke-width:0.399243" />
  <path
     d="m 126.82579,134.36517 c 0.85557,-0.19843 3.88383,2.78312 4.19204,3.7928 -0.63559,1.08115 -6.46892,-3.265 -4.19204,-3.7928 z"
     fill="#fefcf7"
     id="path12727"
     style="stroke-width:0.399243" />
  <path
     d="m 134.4114,134.76441 c 0.1561,-0.0751 1.00449,1.07716 0.39924,1.19773 -0.80767,0.16089 -0.78651,-1.01208 -0.39924,-1.19773 z"
     fill="#fcfbed"
     id="path12729"
     style="stroke-width:0.399243" />
  <path
     d="m 167.54853,136.76062 c 1.03004,0.51622 1.55784,4.00081 0.39924,4.39167 -1.85648,0.62641 -1.60815,-3.66385 -0.39924,-4.39167 z"
     fill="#fdfbf7"
     id="path12731"
     style="stroke-width:0.399243" />
  <path
     d="m 185.51444,136.76062 c 2.96717,-0.0679 -0.14732,4.87116 -1.19772,3.99243 -0.71425,-0.59727 0.23475,-3.48978 1.19772,-3.99243 z"
     fill="#fdfbf9"
     id="path12733"
     style="stroke-width:0.399243" />
  <path
     d="m 201.48415,136.76062 c 2.07686,-0.14931 0.84439,3.23666 -0.79849,2.7947 -1.33586,-0.35932 0.34974,-2.76236 0.79849,-2.7947 z"
     fill="#fcfbfa"
     id="path12735"
     style="stroke-width:0.399243" />
  <path
     d="m 280.53418,137.95835 c 0.8396,0.12017 0.65875,3.4782 0.9981,4.19205 1.06279,2.23536 5.20932,1.88043 5.19016,3.59318 -3.28178,1.67522 -4.37251,6.84821 -5.5894,8.38409 -1.93034,2.43658 -4.42081,-7.33408 -7.98485,-7.5856 -0.80847,-2.70407 2.36591,-2.40863 3.39356,-3.39357 1.82653,-1.75107 2.29564,-3.48458 3.99243,-5.19015 z"
     fill="#efb436"
     id="path12737"
     style="stroke-width:0.399243" />
  <path
     d="m 140.79928,139.95456 c 1.16339,-0.87793 3.67383,2.61784 2.79469,3.19394 -1.11229,0.72902 -3.97765,-2.30123 -2.79469,-3.19394 z"
     fill="#fdfdf8"
     id="path12739"
     style="stroke-width:0.399243" />
  <path
     d="m 134.4114,141.15229 c 1.05799,-0.27468 4.18446,2.95879 3.19394,3.59318 -1.41093,0.69149 -5.15183,-3.08454 -3.19394,-3.59318 z"
     fill="#fdfcf9"
     id="path12741"
     style="stroke-width:0.399243" />
  <path
     d="m 304.08949,141.15229 c 1.17137,5.54149 -0.014,6.79351 6.18826,8.18447 -2.89571,3.19714 -4.65318,3.92176 -3.99243,8.78334 0.14692,1.08115 3.6367,6.53001 0.99811,6.98675 -1.7395,0.30102 -4.35654,-8.79013 -7.98485,-9.18258 -1.71116,-0.18485 -4.0591,2.46053 -5.78902,0.59886 1.9483,-1.81735 2.5819,-7.83434 3.19394,-8.78334 0.74618,-1.1574 1.90119,0.19723 2.99432,-0.19962 1.86007,-0.67512 2.25412,-5.44207 4.39167,-6.38788 z"
     fill="#eeb436"
     id="path12743"
     style="stroke-width:0.399243" />
  <path
     d="m 151.97807,141.55153 c 0.39844,-0.0204 1.83612,2.97157 0.79848,3.59319 -0.98453,-0.84919 -2.16389,-2.46892 -0.79848,-3.59319 z"
     fill="#fefbf0"
     id="path12745"
     style="stroke-width:0.399243" />
  <path
     d="m 219.05082,141.95078 c 8.55098,-1.04762 9.42053,3.68501 10.57993,10.97917 0.83242,5.23606 1.52031,26.68178 -4.99053,28.1466 -4.70348,1.05799 -22.33723,-6.18467 -27.54774,-8.3841 -3.35164,-1.41451 -19.56967,-8.09823 -20.16175,-10.97917 -0.48508,-2.36152 1.19892,-3.88463 2.99432,-4.99053 2.50964,-1.54587 36.71315,-14.47653 39.12577,-14.77197 z m -38.12767,19.56288 c 0.089,1.38098 1.60296,2.29365 2.7947,1.99622 3.32689,2.66773 15.63714,7.44268 20.16175,9.18257 2.91807,1.12228 15.08778,5.98904 17.16743,5.5894 2.8482,-0.54696 7.47143,-13.10394 7.78523,-15.77008 0.52101,-4.42321 -1.61773,-16.4975 -6.98674,-17.36705 -3.86707,-0.62641 -20.63166,5.39017 -25.15228,7.18636 -2.88373,1.14583 -15.98408,5.85689 -15.77009,9.18258 z"
     fill="#df9f2e"
     id="path12747"
     style="stroke-width:0.399243" />
  <path
     d="m 189.50687,143.94699 c 3.71615,-0.31141 -0.96098,4.66834 -3.39356,2.99432 -0.24474,-0.30941 3.16799,-2.97556 3.39356,-2.99432 z"
     fill="#fdfbf9"
     id="path12749"
     style="stroke-width:0.399243" />
  <path
     d="m 33.802267,144.74547 c 1.69478,-0.38726 1.28436,1.67762 1.79659,2.19584 1.03643,1.04841 4.64718,2.97995 4.39167,4.39167 -0.0639,0.35173 -3.86587,5.64329 -4.19205,5.78901 -3.56843,1.59258 -6.75798,-2.80867 -7.78523,-5.78901 -1.22008,-3.54089 3.72613,-4.02996 5.78902,-6.58751 z"
     fill="#eeb436"
     id="path12751"
     style="stroke-width:0.399243" />
  <path
     d="m 181.12278,145.14472 c 2.60905,-0.34774 0.3669,3.54527 -1.19773,3.19394 -1.49596,-0.33577 0.70346,-3.12807 1.19773,-3.19394 z"
     fill="#fcfaf8"
     id="path12753"
     style="stroke-width:0.399243" />
  <path
     d="m 183.71785,163.50988 c -0.25352,-0.20362 -1.00968,-2.61065 -2.7947,-1.99622 -0.21399,-3.32569 12.88636,-8.03675 15.77009,-9.18258 4.52062,-1.79619 21.28521,-7.81277 25.15228,-7.18636 5.36901,0.86955 7.50775,12.94384 6.98674,17.36705 -0.3138,2.66614 -4.93703,15.22312 -7.78523,15.77008 -2.07965,0.39964 -14.24936,-4.46712 -17.16743,-5.5894 -4.52461,-1.73989 -16.83486,-6.51484 -20.16175,-9.18257 z m 33.736,-14.77198 c -0.1577,-0.004 -2.78911,0.96816 -2.59508,1.79659 2.17148,1.33826 5.98225,-1.70876 2.59508,-1.79659 z m 0.79848,7.18637 c -0.27268,0.0447 -1.32867,0.86995 -1.59697,1.19772 -0.34414,1.44406 5.17698,1.11429 3.59319,-1.19772 -0.64198,0.0699 -1.3718,-0.10221 -1.99622,0 z m -8.78333,0.39924 c -2.17747,0.96856 1.48039,3.14643 2.19583,1.39735 0.49746,-1.21609 -1.38697,-1.75707 -2.19583,-1.39735 z m -21.15986,0.79848 c -0.24553,0.0806 -0.6815,0.7953 -0.9981,0.99811 1.01048,1.45205 3.69778,1.51592 4.79091,0 -0.56373,-1.09991 -2.82065,-1.3175 -3.79281,-0.99811 z m 12.77576,0.79849 c -0.14931,0.0275 -1.33746,0.59327 -1.59697,0.79848 -0.69947,1.03125 4.34177,1.24404 4.99054,0.19963 0.33696,-1.2648 -2.75558,-1.11629 -3.39357,-0.99811 z m -7.5856,3.59318 c -2.23816,0.80687 1.7363,2.71485 2.19583,0.99811 0.26989,-1.00729 -1.64089,-1.19813 -2.19583,-0.99811 z m 26.35,3.19394 c -1.789,0.57092 1.75068,2.38428 2.59508,1.39735 0.77493,-0.90588 -1.71754,-1.67722 -2.59508,-1.39735 z m -22.75682,0.39925 c -3.20273,1.17137 4.34056,3.61713 4.59129,1.79659 -0.3689,-1.02406 -4.0587,-1.99142 -4.59129,-1.79659 z m 12.77576,0 c -2.23815,0.80686 1.73631,2.71485 2.19583,0.9981 0.26989,-1.00729 -1.64088,-1.19812 -2.19583,-0.9981 z m 6.38788,6.78712 c -0.46991,1.34625 2.005,2.43338 2.99432,1.79659 0,0 -2.99432,-1.79659 -2.99432,-1.79659 z"
     fill="#f3c043"
     id="path12755"
     style="stroke-width:0.399243" />
  <path
     d="m 111.25533,145.9432 c 4.49467,-0.80327 35.84918,9.45886 41.52122,11.97728 4.07986,1.81136 8.00162,3.86187 1.99622,7.18637 -5.77864,3.19873 -31.49266,13.46206 -37.92805,15.17121 -6.55516,1.7407 -8.98096,0.29704 -10.97917,-6.18826 -1.80418,-5.85449 -2.73361,-26.69495 5.38978,-28.1466 z m 40.92236,15.17122 c -1.07436,-1.09512 -2.27488,-0.78771 -3.19394,-1.19773 -6.03695,-2.69369 -26.73448,-10.41065 -32.53827,-10.77955 -4.12258,-0.2623 -8.51664,0.63879 -9.3822,5.38978 -0.45514,2.49926 0.49825,17.13709 1.59697,19.16364 1.7419,3.2139 5.22648,3.71735 8.58372,3.39356 3.67782,-0.35452 28.3011,-10.19945 32.33864,-12.37652 1.29515,-0.69827 2.45215,-1.43168 3.39356,-2.59507 -0.30941,-0.34774 -0.46032,-0.65356 -0.79848,-0.99811 z"
     fill="#dfa12f"
     id="path12757"
     style="stroke-width:0.399243" />
  <path
     d="m 145.98943,145.9432 c 1.85408,-0.54456 4.42121,3.47102 2.7947,3.99243 -0.83562,0.0974 -4.48709,-3.49537 -2.7947,-3.99243 z"
     fill="#fdfcfa"
     id="path12759"
     style="stroke-width:0.399243" />
  <path
     d="m 54.163637,146.74169 c 5.449659,-1.57062 5.715559,6.89651 0,5.19015 -2.25532,-0.67352 -2.22737,-4.54817 0,-5.19015 z"
     fill="#f2794f"
     id="path12761"
     style="stroke-width:0.399243" />
  <path
     d="m 70.931826,147.93942 c 4.28227,2.40423 7.01868,4.5306 12.1769,4.99053 -5.00571,2.77992 -5.55267,9.36343 -3.99243,14.37273 0.38527,1.23645 5.63251,7.9617 0.99811,7.78523 -2.07207,-0.079 -3.25663,-12.74382 -9.58183,-14.77198 -1.7383,-0.55734 -3.55325,0.14733 -4.99053,-0.59886 -0.0854,-0.5262 3.92975,-4.49866 4.39167,-5.98864 0.53219,-1.71594 -0.27907,-5.45365 0.99811,-5.78901 z"
     fill="#f17a4f"
     id="path12763"
     style="stroke-width:0.399243" />
  <path
     d="m 217.45385,148.7379 c 3.38717,0.0878 -0.4236,3.13485 -2.59508,1.79659 -0.19403,-0.82843 2.43738,-1.80058 2.59508,-1.79659 z"
     fill="#fdfcf9"
     id="path12765"
     style="stroke-width:0.399243" />
  <path
     d="m 263.76599,148.7379 c 3.5852,-0.28266 5.67723,6.50845 1.19773,7.58561 -7.02148,1.6884 -5.60856,-7.23787 -1.19773,-7.58561 z"
     fill="#f27b4f"
     id="path12767"
     style="stroke-width:0.399243" />
  <path
     d="m 148.98375,159.91669 c -1.48918,2.39147 1.98304,2.61943 3.19394,1.19773 0.33816,0.34455 0.48907,0.65037 0.79848,0.99811 -0.94141,1.16339 -2.09841,1.8968 -3.39356,2.59507 -4.03754,2.17707 -28.66082,12.022 -32.33864,12.37652 -3.35724,0.32379 -6.84182,-0.17966 -8.58372,-3.39356 -1.09872,-2.02655 -2.05211,-16.66438 -1.59697,-19.16364 0.86556,-4.75099 5.25962,-5.65208 9.3822,-5.38978 5.80379,0.3689 26.50132,8.08586 32.53827,10.77955 z m -26.54963,-6.38788 c -2.43338,2.24295 2.95639,1.88283 2.99432,0.99811 0.0228,-0.53139 -2.33397,-1.28596 -2.99432,-0.99811 z m -9.58182,0.39924 c -0.56972,1.91597 3.37998,1.17338 4.59129,0.99811 -0.73621,-1.65286 -3.15881,-0.80328 -4.59129,-0.99811 z m 18.36515,1.19773 c -0.89789,0.60166 0.70507,1.2109 1.39735,0.59887 -0.2599,-0.41801 -1.01048,-0.85798 -1.39735,-0.59887 z m 5.98864,5.19015 c -2.41781,2.41742 3.09773,2.52122 3.39357,1.39735 0.001,-1.19892 -2.85818,-1.61773 -3.39357,-1.39735 z m -18.36515,0.39925 c -0.12577,0.0431 -0.78971,0.59886 -0.39925,0.79848 0.38128,1.12547 5.377,0.91467 6.58751,0.59887 -1.19254,-0.9494 -4.92506,-1.83013 -6.18826,-1.39735 z m -8.3841,0.39924 c -2.90728,1.01328 3.7421,2.73002 4.59129,0.99811 0.0455,-0.8979 -3.82275,-1.266 -4.59129,-0.99811 z m 17.16743,3.99243 c -3.08455,1.07516 3.69499,2.59348 4.19205,0.9981 0.40044,-1.28436 -3.64509,-1.18854 -4.19205,-0.9981 z m -14.37273,3.59318 c -1.29395,0.22597 -2.64498,1.25681 -1.19773,2.39545 0,0 3.79281,-1.39734 3.79281,-1.39734 0.16808,-0.93623 -2.0054,-1.10112 -2.59508,-0.99811 z m 6.78712,0.79848 c -2.85338,1.2684 2.79031,3.07098 4.19205,0.99811 0.0427,-0.81206 -3.50415,-1.30393 -4.19205,-0.99811 z"
     fill="#f3c043"
     id="path12769"
     style="stroke-width:0.399243" />
  <path
     d="m 157.76709,151.5326 c 0.0723,0.45034 0.80607,1.2644 0.79848,1.59697 -1.75307,0.72742 -3.81117,-2.11639 -0.79848,-1.59697 z"
     fill="#fefcf9"
     id="path12771"
     style="stroke-width:0.399243" />
  <path
     d="m 176.93073,152.33108 c -0.1038,-8e-4 -1.0536,1.18535 -1.59697,-0.39924 0,0 1.59697,0.39924 1.59697,0.39924 z"
     fill="#fffaf3"
     id="path12773"
     style="stroke-width:0.399243" />
  <path
     d="m 122.43412,153.52881 c 0.66035,-0.28785 3.01707,0.46672 2.99432,0.99811 -0.0379,0.88472 -5.4277,1.24484 -2.99432,-0.99811 z"
     fill="#fdfbf8"
     id="path12775"
     style="stroke-width:0.399243" />
  <path
     d="m 112.8523,153.92805 c 1.43248,0.19483 3.85508,-0.65475 4.59129,0.99811 -1.21131,0.17527 -5.16101,0.91786 -4.59129,-0.99811 z"
     fill="#fefaf4"
     id="path12777"
     style="stroke-width:0.399243" />
  <path
     d="m 131.21745,155.12578 c 0.38687,-0.25911 1.13745,0.18086 1.39735,0.59887 -0.69228,0.61203 -2.29524,0.003 -1.39735,-0.59887 z"
     fill="#fbfaef"
     id="path12779"
     style="stroke-width:0.399243" />
  <path
     d="m 218.25233,155.92427 c 0.62442,-0.10221 1.35424,0.0699 1.99622,0 1.58379,2.31201 -3.93733,2.64178 -3.59319,1.19772 0.2683,-0.32777 1.32429,-1.15301 1.59697,-1.19772 z"
     fill="#fdfbf8"
     id="path12781"
     style="stroke-width:0.399243" />
  <path
     d="m 209.469,156.32351 c 0.80886,-0.35972 2.69329,0.18126 2.19583,1.39735 -0.71544,1.74908 -4.3733,-0.42879 -2.19583,-1.39735 z"
     fill="#fdfbf6"
     id="path12783"
     style="stroke-width:0.399243" />
  <path
     d="m 188.30914,157.12199 c 0.97216,-0.31939 3.22908,-0.1018 3.79281,0.99811 -1.09313,1.51592 -3.78043,1.45205 -4.79091,0 0.3166,-0.20281 0.75257,-0.91746 0.9981,-0.99811 z"
     fill="#fefcfb"
     id="path12785"
     style="stroke-width:0.399243" />
  <path
     d="m 201.0849,157.92048 c 0.63799,-0.11818 3.73053,-0.26669 3.39357,0.99811 -0.64877,1.04441 -5.69001,0.83162 -4.99054,-0.19963 0.25951,-0.20521 1.44766,-0.77093 1.59697,-0.79848 z"
     fill="#fdfcf9"
     id="path12787"
     style="stroke-width:0.399243" />
  <path
     d="m 152.17769,161.11442 c -1.2109,1.4217 -4.68312,1.19374 -3.19394,-1.19773 0.91906,0.41002 2.11958,0.10261 3.19394,1.19773 z"
     fill="#fdfbf5"
     id="path12789"
     style="stroke-width:0.399243" />
  <path
     d="m 137.20609,160.31593 c 0.53539,-0.22038 3.39476,0.19843 3.39357,1.39735 -0.29584,1.12387 -5.81138,1.02007 -3.39357,-1.39735 z"
     fill="#fefcf8"
     id="path12791"
     style="stroke-width:0.399243" />
  <path
     d="m 118.84094,160.71518 c 1.2632,-0.43278 4.99572,0.44795 6.18826,1.39735 -1.21051,0.3158 -6.20623,0.5266 -6.58751,-0.59887 -0.39046,-0.19962 0.27348,-0.75536 0.39925,-0.79848 z"
     fill="#fefcf7"
     id="path12793"
     style="stroke-width:0.399243" />
  <path
     d="m 110.45684,161.11442 c 0.76854,-0.26789 4.6368,0.10021 4.59129,0.99811 -0.84919,1.73191 -7.49857,0.0152 -4.59129,-0.99811 z"
     fill="#fefbf7"
     id="path12795"
     style="stroke-width:0.399243" />
  <path
     d="m 183.71785,163.50988 c -1.19174,0.29743 -2.70566,-0.61524 -2.7947,-1.99622 1.78502,-0.61443 2.54118,1.7926 2.7947,1.99622 z"
     fill="#fdfaf4"
     id="path12797"
     style="stroke-width:0.399243" />
  <path
     d="m 193.4993,161.51366 c 0.55494,-0.20002 2.46572,-0.009 2.19583,0.99811 -0.45953,1.71674 -4.43399,-0.19124 -2.19583,-0.99811 z"
     fill="#fdf9f5"
     id="path12799"
     style="stroke-width:0.399243" />
  <path
     d="m 40.589387,163.50988 c 3.7417,-1.04003 5.83094,5.1127 2.39546,5.98863 -3.83992,0.97895 -5.58301,-5.10272 -2.39546,-5.98863 z"
     fill="#efb438"
     id="path12801"
     style="stroke-width:0.399243" />
  <path
     d="m 219.8493,164.7076 c 0.87754,-0.27987 3.37001,0.49147 2.59508,1.39735 -0.8444,0.98693 -4.38408,-0.82643 -2.59508,-1.39735 z"
     fill="#fefbf5"
     id="path12803"
     style="stroke-width:0.399243" />
  <path
     d="m 127.62427,165.10685 c 0.54696,-0.19044 4.59249,-0.28626 4.19205,0.9981 -0.49706,1.59538 -7.2766,0.0771 -4.19205,-0.9981 z"
     fill="#fefcf9"
     id="path12805"
     style="stroke-width:0.399243" />
  <path
     d="m 197.09248,165.10685 c 0.53259,-0.19483 4.22239,0.77253 4.59129,1.79659 -0.25073,1.82054 -7.79402,-0.62522 -4.59129,-1.79659 z"
     fill="#fefcf8"
     id="path12807"
     style="stroke-width:0.399243" />
  <path
     d="m 209.86824,165.10685 c 0.55495,-0.20002 2.46572,-0.009 2.19583,0.9981 -0.45952,1.71675 -4.43398,-0.19124 -2.19583,-0.9981 z"
     fill="#fefbf5"
     id="path12809"
     style="stroke-width:0.399243" />
  <path
     d="m 175.53338,165.50609 c 2.10241,-0.38128 22.984,9.10832 26.35001,10.77955 20.59612,10.2262 30.37597,15.45188 7.18637,33.53637 -6.63382,5.17339 -13.81859,9.93795 -19.76251,0.99811 -3.20672,-4.82285 -13.68644,-29.34633 -15.17122,-35.13335 -0.6316,-2.46133 -2.66774,-9.44328 1.39735,-10.18068 z m 0.99811,5.19015 c 0.5753,6.2194 13.15504,38.2163 18.96402,40.3235 6.74999,2.44856 24.5642,-10.9093 23.75493,-18.56478 -0.018,-0.16968 -1.02326,-2.8462 -1.19773,-3.19394 -2.81546,-5.61814 -34.67302,-19.89386 -40.72274,-20.16175 -0.0499,-0.002 -0.25272,-0.68031 -0.59886,-0.79848 0,0 -0.99811,0.59886 -0.99811,0.59886 -0.13055,0.45154 0.75457,1.32309 0.79849,1.79659 z"
     fill="#dea02e"
     id="path12811"
     style="stroke-width:0.399243" />
  <path
     d="m 157.56746,165.90533 c 4.14294,-0.21838 4.87955,2.21141 4.19205,5.78902 -0.84999,4.42121 -14.53243,36.87564 -17.16743,40.72274 -8.1146,11.84633 -24.0859,-4.62602 -28.74546,-12.77576 -3.78802,-6.62503 -5.589,-11.38241 1.39735,-16.16933 4.13096,-2.83063 36.5259,-17.36665 40.32349,-17.56667 z m -2.19583,3.59318 c -6.8518,1.72872 -30.51571,12.44719 -35.73221,16.76819 -6.79471,5.62812 -1.56703,12.66996 2.99432,18.16554 4.92825,5.93753 12.89194,13.48801 19.56289,5.98864 2.63619,-2.96358 16.71548,-34.56363 17.16743,-38.32729 0.16408,-1.36541 0.26429,-2.25093 -0.79849,-2.99432 -1.73271,-1.2121 -2.15791,0.13774 -3.19394,0.39924 z"
     fill="#de9f2e"
     id="path12813"
     style="stroke-width:0.399243" />
  <path
     d="m 252.98644,166.70382 c 4.65796,2.68889 0.11139,6.99552 -0.59887,4.99053 -0.2092,-0.59048 -0.0423,-4.81367 0.59887,-4.99053 z"
     fill="#fefaf9"
     id="path12815"
     style="stroke-width:0.399243" />
  <path
     d="m 189.70649,276.09628 c 1.95389,5.71755 13.17061,13.92997 19.56289,8.98296 0.0303,-0.12896 -1.41811,-1.55865 -1.59697,-1.79659 -3.99482,-5.32311 -10.02019,-6.54599 -16.16933,-7.58561 5.41174,-0.64598 11.13568,0.22956 15.57046,3.59318 4.43319,3.36242 7.91658,8.14016 0.39925,9.98106 -5.0113,1.22688 -10.98596,-0.40004 -14.57236,-4.19204 -1.75706,-1.85768 -4.02077,-8.8556 -5.38977,-8.98296 0,0 -19.96213,11.97728 -19.96213,11.97728 0,0 -19.96213,-11.97728 -19.96213,-11.97728 -2.95599,5.35025 -5.94792,12.48711 -13.175,13.57425 -3.01868,0.45394 -12.56377,-0.58929 -10.97918,-4.99054 2.39666,-6.65617 13.49041,-10.08446 19.96213,-8.98295 0.0391,0.6296 -0.67711,0.30821 -0.79848,0.39924 -5.7451,0.37329 -11.73973,2.61584 -15.17122,7.58561 -0.16489,0.23875 -1.37539,0.65795 -1.19773,1.39735 6.83384,4.81646 16.57655,-2.86297 19.56289,-8.98296 0.022,-0.0447 1.33626,0.1553 0.59886,-0.79849 -14.36914,-5.70198 -29.91724,-8.83723 -43.11819,-17.16743 -1.62652,0 -2.16989,3.9022 -2.99432,4.99054 -6.720451,8.87516 -22.084914,6.31641 -26.150394,-3.79281 0,0 0.39924,-0.79848 0.39924,-0.79848 9.31633,-1.72274 17.301583,-2.65217 26.749254,-0.79849 1.1095,-0.57291 -14.305661,-10.84502 -14.771971,-12.37652 -11.289383,7.41913 -19.132903,5.29476 -30.142823,-0.9981 0.17168,-5.97307 9.2281,-8.80929 14.17311,-8.18448 5.97587,0.75537 9.3319,6.94203 14.57236,8.18448 -3.29136,-1.37899 -14.22981,-17.82858 -15.37084,-18.16554 -2.24574,-0.66274 -6.24096,2.85019 -8.38409,3.19394 -9.837739,1.57741 -12.894339,-8.02597 -19.363269,-12.1769 0,0 0.59887,-1.79659 0.59887,-1.79659 4.2647,0.46951 9.4313,-1.29914 13.574239,0 3.10451,0.97335 9.05682,6.84781 12.1769,8.58371 -2.02775,-1.96906 -7.38479,-15.90223 -8.58371,-16.56856 -2.81626,-1.56543 -7.986049,1.20052 -11.977279,-0.39924 -5.9583,-2.38867 -9.51675,-9.71038 -12.97539,-14.57236 8.17769,-1.84091 17.99586,-0.25352 22.157969,7.78523 0,0 0.59886,-0.59886 0.59886,-0.59886 -5.236459,-11.95772 -8.600079,-22.10087 1.79659,-32.53827 3.04143,4.0072 6.01978,13.15504 5.38978,18.16554 -0.62362,4.96018 -7.10892,9.8541 -6.78713,13.57424 0.1098,1.27119 10.76199,23.32894 11.77766,22.55721 -0.99292,-8.31383 -5.82774,-16.67676 -0.59886,-24.95266 0.48947,-0.77453 5.7419,-6.71606 6.18826,-6.58751 3.65626,7.68223 8.03835,13.29558 4.59129,22.15797 -1.74989,4.49906 -9.48122,8.23318 -8.3841,12.77576 0.87514,3.62432 19.462283,21.49682 23.355693,24.55342 4.584901,3.59957 10.206641,7.41273 15.570461,9.58182 -7.50217,-8.26951 -12.59011,-18.47256 -2.7947,-27.1485 3.3736,6.67774 8.29866,7.64789 7.38599,16.16933 -0.31181,2.91207 -4.23037,9.82416 -3.19394,11.57803 0,0 18.96402,7.78523 18.96402,7.78523 0,0 1.39735,-0.59886 1.39735,-0.59886 -3.2135,-4.07188 -9.56385,-9.18537 -10.77955,-14.37273 -0.53299,-2.27489 -0.98333,-14.84983 2.99432,-13.77387 9.16621,9.4341 16.44041,14.92528 8.98296,28.94508 0,0 18.16554,8.18448 18.16554,8.18448 0,0 -4.99054,-6.18826 -4.99054,-6.18826 -6.19784,-10.40666 -0.58449,-26.12843 7.98486,-11.57804 3.78881,6.4334 4.91347,12.86799 -0.39925,18.7644 0,0 13.37463,9.3822 13.37463,9.3822 0.80288,-2.64378 13.20415,-8.58331 13.37462,-9.3822 0.11099,-0.52021 -2.87694,-4.10701 -3.19394,-5.19015 -2.17946,-7.44627 8.10822,-25.9344 12.77577,-17.16743 3.59198,6.7468 -2.09603,16.74862 -6.98675,21.35948 1.90918,-1.8473 17.79185,-6.87057 18.16554,-7.78523 0.58449,-1.43129 -2.55316,-6.70967 -2.7947,-8.3841 -1.51073,-10.47852 6.65058,-13.69242 11.77766,-20.96023 6.08286,2.6877 3.85987,13.71677 0.9981,18.56478 -1.51353,2.56393 -7.72654,7.69061 -8.38409,9.18258 -0.28267,0.64118 -0.51023,0.92065 0.19962,1.39735 0,0 20.16175,-8.58372 20.16175,-8.58372 0.78251,-1.64688 -2.75198,-7.2734 -3.19394,-9.58182 -1.76665,-9.2273 3.21829,-10.72685 7.38599,-17.7663 9.81857,9.60259 4.34016,18.44421 -2.7947,27.1485 7.67224,-3.29216 14.34997,-8.69031 20.56099,-14.17311 -3.89222,-4.49148 -8.45596,-11.42034 -7.58561,-17.56668 0.20401,-1.44206 6.66416,-13.11751 7.38599,-13.37462 2.61983,-0.93303 7.07657,6.20622 7.38599,8.58371 0.85997,6.60587 -4.88074,15.4447 -7.18637,21.5591 0.58289,0.51423 0.92145,0.14533 1.39735,-0.19962 2.91846,-2.11479 13.60818,-13.84813 15.37084,-16.96781 4.29625,-7.60477 -4.13655,-8.17808 -6.78713,-14.37273 -3.78841,-8.854 0.73621,-14.85382 4.59129,-22.55721 6.05412,5.71077 9.0161,9.73913 8.18448,18.96403 -0.16609,1.8429 -5.17538,16.6033 -1.19773,10.77955 1.26959,-1.85848 10.35915,-19.9817 10.38031,-21.15986 0.0543,-3.0019 -6.82785,-8.7522 -7.18637,-14.37273 -0.14173,-2.21979 3.72453,-17.40219 5.78902,-16.96781 10.86019,11.26662 6.03694,21.0856 1.39735,33.736 5.21251,-8.09225 13.40976,-10.53442 22.75682,-8.3841 -3.21749,4.9578 -5.88803,10.81428 -11.37841,13.77387 -5.72873,3.08814 -9.70798,-0.59886 -13.17501,1.19773 -1.45843,0.75576 -6.9025,14.84304 -8.98295,16.96781 3.1632,-2.23536 10.14315,-8.68473 13.77387,-9.3822 0.92544,-0.17767 11.81797,0.13255 12.37651,0.39924 0.71505,0.34175 0.64079,1.16619 0.59887,1.79659 -6.92526,4.25433 -9.49399,13.94435 -19.76251,12.1769 -2.16908,-0.37329 -5.57502,-3.79999 -7.98485,-3.19394 -1.16659,0.29344 -12.32262,16.91591 -15.77008,18.16554 1.04402,1.57141 8.33618,-5.45965 9.78144,-6.18826 7.20513,-3.63191 16.59412,-2.12078 19.76251,5.78901 -10.21263,5.86288 -20.14658,9.9635 -30.14282,0.99811 0,0 -15.57046,11.97728 -15.57046,11.97728 -0.89669,2.21859 7.83594,-0.3725 8.3841,-0.39925 6.68052,-0.32658 12.23319,1.32549 18.7644,1.99622 -3.164,12.96979 -24.19091,13.62295 -27.74736,0.19962 -1.09792,-0.82005 -10.15873,4.56613 -12.1769,5.38977 -10.49808,4.28388 -21.73077,6.93844 -32.13902,11.37842 -0.19683,0.83082 0.78251,0.55175 0.79848,0.59886 z M 56.758716,173.0917 c -4.143339,7.33728 -2.404239,14.89973 0.19962,22.35758 0.39126,-0.0307 0.0854,-1.01248 0.19962,-1.19773 5.84411,-9.49518 4.87914,-13.42094 2.39545,-24.15417 -1.09073,-1.76146 -2.631,2.70447 -2.79469,2.99432 z M 277.9391,193.85231 c 0.15291,0.19643 -0.38966,1.34585 0.59886,1.19773 2.22298,-7.83953 4.20483,-13.94235 0.19962,-21.5591 -0.19563,-0.37249 -1.55345,-4.50665 -2.79469,-3.39356 -1.98304,9.67325 -4.65677,15.20355 1.99621,23.75493 z M 57.557196,204.63186 c 0.31421,-0.0323 0.40683,0.23236 0.59887,0.39924 0,0 0.19962,-0.9981 0.19962,-0.9981 -4.082659,-5.91638 -6.725639,-8.29547 -13.973489,-9.3822 -1.09353,-0.16409 -6.1695,-1.16699 -6.38788,-0.19963 5.67603,8.06151 9.46883,11.21712 19.562879,10.18069 z m 14.77198,-7.58561 c -4.51184,6.6961 -3.53649,14.57874 -1.7966,21.95834 0.64558,0.28307 0.71225,-0.95898 0.99811,-1.19773 8.08386,-6.75278 7.24905,-14.74562 3.59318,-23.75493 -1.06877,0.0343 -2.24374,2.17667 -2.79469,2.99432 z M 291.1141,194.6508 c -7.59159,1.13105 -11.19356,3.8958 -14.57235,10.77954 0.48268,0.14573 0.5805,-0.35253 0.99811,-0.39924 2.96956,-0.33257 6.06569,0.28267 8.58371,-0.39924 4.12178,-1.11588 9.33669,-6.5883 10.97917,-10.57993 -0.28386,-0.39525 -5.06838,0.46193 -5.98864,0.59887 z m -27.14849,22.75682 c 0.0483,0.77174 0.61164,1.35104 0.39924,2.19584 0.91467,1.30991 2.05929,-12.20685 1.99621,-13.17501 -0.19962,-3.07017 -1.67642,-7.62074 -3.99242,-9.78144 -0.38647,-0.8432 -0.3697,-1.77743 -1.39735,-2.39546 0,0 -0.99811,0.59887 -0.99811,0.59887 -3.38438,7.81238 -4.09782,17.4473 3.99243,22.5572 z m -197.625074,7.58561 c 0.33975,-0.16289 1.29514,0.25512 1.59697,-0.19962 -4.27589,-3.5325 -8.81727,-5.97107 -14.372729,-6.5875 -2.28567,-0.25352 -4.12099,-0.68391 -6.38789,0.19962 5.52552,7.67743 9.913999,11.02548 19.163649,6.5875 z m 180.856884,10.77955 c 1.51353,-5.11629 4.24115,-11.32172 1.19773,-15.9697 -0.44915,-0.6859 -0.59527,-1.48119 -1.39735,-1.99622 -7.07817,8.04315 -7.38758,13.94155 -2.19583,23.35569 1.05679,1.52671 2.07246,-4.29784 2.39545,-5.38977 z m 21.5591,-10.77955 c 8.4324,5.19175 14.68813,0.47191 19.56289,-6.5875 -2.02776,-0.62681 -4.28987,-0.80807 -6.38789,-0.59887 -4.59089,0.45794 -10.96559,4.03874 -14.37273,6.98675 0.14892,0.41282 0.99891,0.0774 1.19773,0.19962 z m -163.29021,12.37652 c -2.48089,4.8484 -0.22278,12.42882 2.7947,16.76819 0.53139,0.76415 0.82443,3.10211 2.39545,2.19583 0.44715,-0.48747 1.40214,-12.26712 1.19773,-13.175 -0.23795,-1.0572 -4.98255,-5.77944 -5.38977,-7.78523 -0.76815,0.42719 -0.72902,1.47001 -0.99811,1.99621 z m 121.36974,17.16743 c 2.97595,-4.25752 5.45805,-12.23319 3.19394,-17.16743 -0.19762,-0.43078 -0.80966,-2.13515 -1.39735,-1.99621 -0.0675,2.35353 -4.68271,6.17508 -4.99053,7.38598 -0.39525,1.55585 0.53738,13.90762 1.39735,14.17312 0.97016,-0.61883 1.23525,-1.59258 1.79659,-2.39546 z M 63.545836,239.76521 c -0.78771,0.28865 -4.78133,1.91716 -4.39167,2.99431 7.54609,4.41124 15.44949,6.70249 23.75493,2.59508 0.59647,-0.72981 -0.19443,-0.8931 -0.59886,-1.19773 -5.39177,-4.0591 -12.34737,-6.7424 -18.7644,-4.39166 z m 190.837954,3.99242 c -0.2635,0.17487 -1.49756,0.214 -1.79659,0.79849 -1.28916,2.78232 11.95931,3.05101 13.57424,2.79469 0.90229,-0.14292 9.61975,-4.07586 9.78145,-4.59129 -0.47311,-1.57301 -1.94831,-1.95549 -3.19394,-2.59507 -6.82466,-3.50455 -12.50348,-0.29584 -18.36516,3.59318 z m -122.96671,20.76061 c 0.0842,0.0838 0.27667,0.67792 0.59886,0.79849 3.65946,-9.15503 0.93543,-15.71099 -6.5875,-21.5591 -0.35453,-0.27548 -0.2651,-1.6872 -1.19773,-0.99811 -0.5262,5.84332 2.97516,17.55989 7.18637,21.75872 z m 78.25154,-20.76061 c -7.64669,5.87486 -9.46564,12.73863 -6.5875,21.95834 0.24713,0.003 0.81765,-0.98653 0.9981,-1.19773 3.88982,-4.55176 8.19166,-16.15095 6.58751,-21.95834 -0.50385,0.36212 -0.50065,0.81566 -0.99811,1.19773 z m -57.09169,30.34244 c 4.54738,-3.87944 0.17567,-15.47544 -3.99242,-17.96592 -0.0427,-0.0256 -0.27309,-0.6827 -0.59887,-0.79848 -3.44905,5.70238 0.024,14.43621 4.59129,18.7644 z m 33.93562,-17.96592 c -1.69319,0.76216 -5.33428,8.29147 -5.5894,10.18069 -0.38806,2.87255 -0.28386,6.1627 1.99622,7.38598 0.0363,0.0196 -0.1066,0.84839 0.19962,0.79849 3.43468,-5.16899 7.79401,-12.63763 4.39167,-18.7644 -0.30263,-0.15052 -0.64079,0.23835 -0.99811,0.39924 z m -103.004584,3.19394 c -1.07995,0.14533 -6.60747,0.3673 -6.78713,0.99811 4.80369,6.62184 20.721894,7.80359 22.756834,-0.99811 0.009,-0.0399 0.64917,0.14493 0.79849,-0.19962 0,0 -0.59887,-0.59886 -0.59887,-0.59886 -5.533101,-0.27907 -10.754391,0.0707 -16.169324,0.79848 z m 152.510664,0 c 2.60546,8.93745 18.7125,7.96569 22.5572,0.39924 -2.23096,0.1613 -4.39526,-0.11418 -6.5875,-0.39924 -5.68122,-0.7394 -11.16841,-1.07276 -16.96781,-0.79848 -0.33337,0.80886 0.71505,0.69148 0.99811,0.79848 z"
     fill="#166187"
     id="path12817"
     style="stroke-width:0.399243" />
  <path
     d="m 289.31751,167.5023 c 3.48299,-1.15102 6.40665,4.1102 3.19394,5.19015 -4.17807,1.40454 -6.20183,-4.19604 -3.19394,-5.19015 z"
     fill="#eeb439"
     id="path12819"
     style="stroke-width:0.399243" />
  <path
     d="m 177.32997,169.09927 c 0.69309,0.88951 0.37289,1.59378 -0.79848,1.59697 -0.0439,-0.4735 -0.92904,-1.34505 -0.79849,-1.79659 0,0 0.99811,-0.59886 0.99811,-0.59886 0.34614,0.11817 0.54896,0.79609 0.59886,0.79848 z"
     fill="#fcfbf5"
     id="path12821"
     style="stroke-width:0.399243" />
  <path
     d="m 113.25154,168.70003 c 0.58968,-0.10301 2.76316,0.0619 2.59508,0.99811 0,0 -3.79281,1.39734 -3.79281,1.39734 -1.44725,-1.13864 -0.0962,-2.16948 1.19773,-2.39545 z"
     fill="#fdfcf7"
     id="path12823"
     style="stroke-width:0.399243" />
  <path
     d="m 158.56557,169.09927 c -0.0639,2.00859 -3.92575,2.93164 -3.19394,0.39924 1.03603,-0.2615 1.46123,-1.61134 3.19394,-0.39924 z"
     fill="#fcfbfa"
     id="path12825"
     style="stroke-width:0.399243" />
  <path
     d="m 176.53149,170.69624 c 1.17137,-0.003 1.49157,-0.70746 0.79848,-1.59697 6.04972,0.26789 37.90728,14.54361 40.72274,20.16175 0.17447,0.34774 1.17977,3.02426 1.19773,3.19394 0.80927,7.65548 -17.00494,21.01334 -23.75493,18.56478 -5.80898,-2.1072 -18.38872,-34.1041 -18.96402,-40.3235 z m 8.98295,3.19394 c -1.11109,0.68351 1.70796,3.37161 2.59508,2.19584 0.77214,-1.02326 -1.41771,-2.92006 -2.59508,-2.19584 z m -1.59697,3.59319 c -1.55704,0.25272 1.08674,4.31022 1.99622,3.99242 2.11039,-0.7374 -1.31671,-4.10262 -1.99622,-3.99242 z m 11.57804,3.99242 c -1.99582,0.32339 2.40224,6.03495 3.59318,4.39167 1.18535,-1.6357 -3.28976,-4.44078 -3.59318,-4.39167 z m -6.78713,5.5894 c -0.61962,0.37848 1.36462,4.10181 2.7947,3.19394 0.96497,-0.61244 -1.4768,-3.99922 -2.7947,-3.19394 z m 20.76062,1.99621 c -0.81326,0.59607 0.88352,4.71386 2.7947,3.99243 1.56543,-0.59088 -1.10072,-4.46154 -2.7947,-3.99243 z m -23.15607,5.5894 c -0.61763,0.30821 0.80088,2.56074 1.59697,2.39545 0.65396,-0.32658 -0.96178,-2.71285 -1.59697,-2.39545 z m 7.98485,0 c -0.76774,0.48747 1.25562,4.39446 2.7947,3.99242 1.85488,-0.48468 -1.89201,-4.56574 -2.7947,-3.99242 z m 10.38031,0 c -1.33108,0.97814 2.49846,5.84131 3.7928,2.99431 0.22717,-0.91426 -3.12367,-3.48618 -3.7928,-2.99431 z m -4.79091,7.18636 c -0.56892,0.36291 0.51702,3.49098 1.99621,3.19394 1.27358,-0.25591 -0.94062,-3.86706 -1.99621,-3.19394 z"
     fill="#f3c044"
     id="path12827"
     style="stroke-width:0.399243" />
  <path
     d="m 155.37163,169.49851 c -0.73181,2.5324 3.13006,1.60935 3.19394,-0.39924 1.06278,0.74339 0.96257,1.62891 0.79849,2.99432 -0.45195,3.76366 -14.53124,35.36371 -17.16743,38.32729 -6.67095,7.49937 -14.63464,-0.0511 -19.56289,-5.98864 -4.56135,-5.49558 -9.78903,-12.53742 -2.99432,-18.16554 5.2165,-4.321 28.88041,-15.03947 35.73221,-16.76819 z m -13.37463,7.98486 c -0.97854,0.23794 -3.4754,3.17198 -2.39545,3.99242 0.82523,0.62721 6.12039,-3.92176 2.39545,-3.99242 z m 9.18258,1.59697 c -0.35612,0.0303 -3.27977,3.14842 -1.59697,3.59318 1.23047,0.32498 4.10661,-3.80798 1.59697,-3.59318 z m -19.16364,5.19015 c -0.62042,0.0914 -3.16719,2.04292 -1.59697,2.7947 1.11309,-0.36172 4.87675,-3.27818 1.59697,-2.7947 z m 13.175,1.19773 c -0.76375,0.16888 -3.36002,4.54338 -1.59697,4.79091 0.32419,0.0455 4.81567,-5.50276 1.59697,-4.79091 z m -21.95834,5.19015 c 0,0 -1.59697,1.99621 -1.59697,1.99621 0.78252,0.60845 3.17358,-2.20861 1.59697,-1.99621 z m 13.17501,0 c -0.5266,0.11179 -2.67213,2.80428 -1.19773,3.19394 1.19134,0.3146 4.2695,-3.8459 1.19773,-3.19394 z m -8.78334,3.59318 c -0.35532,0.41003 -3.35004,2.72883 -1.59697,3.19394 1.35703,0.36012 4.87515,-3.89141 1.59697,-3.19394 z m 16.36895,1.99622 c -0.11419,0.0419 -1.38498,2.00419 -0.39925,2.39545 1.13785,0.16249 2.17747,-3.04702 0.39925,-2.39545 z m -5.5894,5.19015 c -0.47829,0.095 -3.60157,4.5302 -1.99621,4.79091 0.96537,0.1569 5.64369,-5.51514 1.99621,-4.79091 z m -6.78712,2.39545 c -0.23356,0.0275 -2.06608,1.83373 -1.19773,2.39546 1.054,0.68191 3.1632,-2.62781 1.19773,-2.39546 z"
     fill="#f2c044"
     id="path12829"
     style="stroke-width:0.399243" />
  <path
     d="m 57.157956,194.25155 c -2.127559,-7.2722 -2.434579,-13.8629 -0.39924,-21.15985 0.16369,-0.28985 1.70396,-4.75578 2.79469,-2.99432 2.48369,10.73323 3.44866,14.65899 -2.39545,24.15417 z"
     fill="#5baab6"
     id="path12831"
     style="stroke-width:0.399243" />
  <path
     d="m 120.03866,169.49851 c 0.6879,-0.30582 4.23477,0.18605 4.19205,0.99811 -1.40174,2.07287 -7.04543,0.27029 -4.19205,-0.99811 z"
     fill="#fdfcf9"
     id="path12833"
     style="stroke-width:0.399243" />
  <path
     d="m 165.15307,169.49851 c 2.11519,-0.5773 4.18965,1.48 5.38978,2.99432 2.86456,3.61514 15.84673,38.01907 15.9697,42.31972 0.0783,2.74279 -1.42809,5.97865 -3.7928,7.38598 -6.4857,3.85988 -34.14802,5.06719 -35.73221,-4.99053 -0.89191,-5.66326 7.53051,-21.91842 9.98106,-27.94698 1.26241,-3.10571 5.83573,-19.12132 8.18447,-19.76251 z m 1.99622,3.99243 c -2.31202,-8e-4 -9.5447,19.01313 -10.57993,22.15796 -1.36182,4.13616 -5.35225,16.26794 -4.39167,19.96213 1.49876,5.76267 21.6098,6.9568 26.15039,4.99053 3.84949,-1.66684 5.904,-5.73631 5.38977,-9.78144 -0.27907,-2.19384 -12.16013,-32.19093 -13.57424,-34.33486 -0.37968,-0.57531 -2.42061,-2.99432 -2.99432,-2.99432 z"
     fill="#dea02f"
     id="path12835"
     style="stroke-width:0.399243" />
  <path
     d="m 278.73758,173.49094 c -0.18804,3.34565 1.66125,5.83772 1.59697,9.3822 -0.0503,2.77633 -1.62531,8.12099 -2.39545,10.97917 -6.65298,-8.55138 -3.97925,-14.08168 -1.99621,-23.75493 1.24124,-1.11309 2.59906,3.02107 2.79469,3.39356 z"
     fill="#5daab6"
     id="path12837"
     style="stroke-width:0.399243" />
  <path
     d="m 216.25612,171.89397 c 0,0 2.99432,1.79659 2.99432,1.79659 -0.98932,0.63679 -3.46423,-0.45034 -2.99432,-1.79659 z"
     fill="#fcfaf3"
     id="path12839"
     style="stroke-width:0.399243" />
  <path
     d="m 57.157956,194.25155 c -0.11418,0.18525 0.19164,1.16699 -0.19962,1.19773 -2.603859,-7.45785 -4.342959,-15.0203 -0.19962,-22.35758 -2.035339,7.29695 -1.728319,13.88765 0.39924,21.15985 z"
     fill="#ecf6f8"
     id="path12841"
     style="stroke-width:0.399243" />
  <path
     d="m 167.14929,173.49094 c 0.57371,0 2.61464,2.41901 2.99432,2.99432 1.41411,2.14393 13.29517,32.14102 13.57424,34.33486 0.51423,4.04513 -1.54028,8.1146 -5.38977,9.78144 -4.54059,1.96627 -24.65163,0.77214 -26.15039,-4.99053 -0.96058,-3.69419 3.02985,-15.82597 4.39167,-19.96213 1.03523,-3.14483 8.26791,-22.15876 10.57993,-22.15796 z m -3.19394,5.98864 c -1.05201,0.66953 -0.21041,1.46282 0,2.39545 0,0 0.59886,-1.39735 0.59886,-1.39735 0,0 -0.59886,-0.9981 -0.59886,-0.9981 z m 5.98863,2.7947 c -1.21888,0.43836 -0.71863,5.33667 0.79849,4.79091 1.21889,-0.43837 0.71864,-5.33668 -0.79849,-4.79091 z m -5.58939,10.3803 c -0.57172,0.96936 -1.22009,5.87086 0.79848,5.19016 0.95898,-0.32339 0.85159,-5.17299 -0.79848,-5.19016 z m 8.38409,0.39925 c -0.6851,1.07875 0.0958,6.52162 1.59697,5.98863 1.35304,-0.48068 -0.0751,-5.60257 -1.59697,-5.98863 z m -14.77197,4.39166 c -1.02805,0.26949 -3.0039,9.26962 0.9981,6.18826 -0.2112,-0.97934 0.67432,-6.62702 -0.9981,-6.18826 z m 12.77576,3.99243 c -1.37459,0.82124 -0.43078,4.60646 0.79848,3.59318 0.66195,-0.54576 -0.31021,-3.59318 -0.79848,-3.59318 z m -9.58182,5.5894 c -0.50744,-0.10421 -4.44477,10.47412 0.19962,7.38598 0.37609,-2.43737 0.86276,-4.98015 -0.19962,-7.38598 z m 16.76819,1.59697 c -0.66794,0.40603 0.38167,4.36172 1.19772,4.79091 1.5846,-0.0759 -0.88911,-4.97856 -1.19772,-4.79091 z m -13.97349,2.79469 c -0.33138,0.78172 -0.33018,2.02416 0,2.7947 0.8919,-0.64637 0.8919,-2.14832 0,-2.7947 z m 7.18636,1.19773 c -1.19813,0.36651 -0.83801,6.46933 1.19773,5.5894 1.2648,-0.54657 0.4192,-6.08406 -1.19773,-5.5894 z"
     fill="#f3c044"
     id="path12843"
     style="stroke-width:0.399243" />
  <path
     d="m 277.9391,193.85231 c 0.77014,-2.85818 2.34515,-8.20284 2.39545,-10.97917 0.0643,-3.54448 -1.78501,-6.03655 -1.59697,-9.3822 4.00521,7.61675 2.02336,13.71957 -0.19962,21.5591 -0.98852,0.14812 -0.44595,-1.0013 -0.59886,-1.19773 z"
     fill="#f2f9fa"
     id="path12845"
     style="stroke-width:0.399243" />
  <path
     d="m 185.51444,173.89018 c 1.17737,-0.72422 3.36722,1.17258 2.59508,2.19584 -0.88712,1.17577 -3.70617,-1.51233 -2.59508,-2.19584 z"
     fill="#fdfbf9"
     id="path12847"
     style="stroke-width:0.399243" />
  <path
     d="m 33.802267,176.68488 c 4.4288,-0.5278 3.62512,7.58042 -1.19773,5.98864 -2.62502,-0.86636 -0.96457,-5.73073 1.19773,-5.98864 z"
     fill="#eeb336"
     id="path12849"
     style="stroke-width:0.399243" />
  <path
     d="m 256.97886,177.08412 c 5.04084,-1.09153 4.18886,8.05273 -0.39924,5.5894 -1.95749,-1.05081 -1.898,-5.09194 0.39924,-5.5894 z"
     fill="#efb437"
     id="path12851"
     style="stroke-width:0.399243" />
  <path
     d="m 141.997,177.48337 c 3.72494,0.0707 -1.57022,4.61963 -2.39545,3.99242 -1.07995,-0.82044 1.41691,-3.75448 2.39545,-3.99242 z"
     fill="#fdfbfa"
     id="path12853"
     style="stroke-width:0.399243" />
  <path
     d="m 183.91747,177.48337 c 0.67951,-0.1102 4.10661,3.25502 1.99622,3.99242 -0.90948,0.3178 -3.55326,-3.7397 -1.99622,-3.99242 z"
     fill="#fefcf7"
     id="path12855"
     style="stroke-width:0.399243" />
  <path
     d="m 151.17958,179.08034 c 2.50964,-0.2148 -0.3665,3.91816 -1.59697,3.59318 -1.6828,-0.44476 1.24085,-3.56284 1.59697,-3.59318 z"
     fill="#fdfcf9"
     id="path12857"
     style="stroke-width:0.399243" />
  <path
     d="m 163.95535,179.47958 c 0,0 0.59886,0.9981 0.59886,0.9981 0,0 -0.59886,1.39735 -0.59886,1.39735 -0.21041,-0.93263 -1.05201,-1.72592 0,-2.39545 z"
     fill="#fcf9f1"
     id="path12859"
     style="stroke-width:0.399243" />
  <path
     d="m 297.70161,180.27806 c 5.2153,-1.74748 5.77943,6.15513 0.39924,4.79091 -2.19783,-0.55734 -2.3751,-4.12896 -0.39924,-4.79091 z"
     fill="#efb335"
     id="path12861"
     style="stroke-width:0.399243" />
  <path
     d="m 46.178787,181.47579 c 2.91527,-0.88312 3.98843,3.3756 1.59697,3.99243 -3.04263,0.78491 -3.64988,-3.37041 -1.59697,-3.99243 z"
     fill="#024774"
     id="path12863"
     style="stroke-width:0.399243" />
  <path
     d="m 195.49551,181.47579 c 0.30342,-0.0491 4.77853,2.75597 3.59318,4.39167 -1.19094,1.64328 -5.589,-4.06828 -3.59318,-4.39167 z"
     fill="#fdfcf9"
     id="path12865"
     style="stroke-width:0.399243" />
  <path
     d="m 169.94398,182.27428 c 1.51713,-0.54577 2.01738,4.35254 0.79849,4.79091 -1.51712,0.54576 -2.01737,-4.35255 -0.79849,-4.79091 z"
     fill="#fefcf9"
     id="path12867"
     style="stroke-width:0.399243" />
  <path
     d="m 287.72054,182.27428 c 2.93244,-0.65636 3.29295,3.4235 1.19773,3.99242 -2.97755,0.80887 -3.61714,-3.45065 -1.19773,-3.99242 z"
     fill="#024974"
     id="path12869"
     style="stroke-width:0.399243" />
  <path
     d="m 81.711376,184.27049 c 2.67732,-0.61643 3.02506,3.66584 0.79848,3.99242 -2.35234,0.34495 -2.86536,-3.51652 -0.79848,-3.99242 z"
     fill="#5eaab5"
     id="path12871"
     style="stroke-width:0.399243" />
  <path
     d="m 132.01594,184.27049 c 3.27978,-0.48348 -0.48388,2.43298 -1.59697,2.7947 -1.57022,-0.75178 0.97655,-2.70327 1.59697,-2.7947 z"
     fill="#fdfcfa"
     id="path12873"
     style="stroke-width:0.399243" />
  <path
     d="m 145.19094,185.46822 c 3.2187,-0.71185 -1.27278,4.83642 -1.59697,4.79091 -1.76305,-0.24753 0.83322,-4.62203 1.59697,-4.79091 z"
     fill="#fefbf8"
     id="path12875"
     style="stroke-width:0.399243" />
  <path
     d="m 188.70838,187.06519 c 1.3179,-0.80528 3.75967,2.5815 2.7947,3.19394 -1.43008,0.90787 -3.41432,-2.81546 -2.7947,-3.19394 z"
     fill="#fefcf8"
     id="path12877"
     style="stroke-width:0.399243" />
  <path
     d="m 209.469,189.0614 c 1.69398,-0.46911 4.36013,3.40155 2.7947,3.99243 -1.91118,0.72143 -3.60796,-3.39636 -2.7947,-3.99243 z"
     fill="#fffdf9"
     id="path12879"
     style="stroke-width:0.399243" />
  <path
     d="m 123.2326,190.65837 c 1.57661,-0.2124 -0.81445,2.60466 -1.59697,1.99621 0,0 1.59697,-1.99621 1.59697,-1.99621 z"
     fill="#fcfbf7"
     id="path12881"
     style="stroke-width:0.399243" />
  <path
     d="m 136.40761,190.65837 c 3.07177,-0.65196 -0.006,3.50854 -1.19773,3.19394 -1.4744,-0.38966 0.67113,-3.08215 1.19773,-3.19394 z"
     fill="#fdfbf8"
     id="path12883"
     style="stroke-width:0.399243" />
  <path
     d="m 164.35459,192.65458 c 1.65007,0.0172 1.75746,4.86677 0.79848,5.19016 -2.01857,0.6807 -1.3702,-4.2208 -0.79848,-5.19016 z"
     fill="#fefbf5"
     id="path12885"
     style="stroke-width:0.399243" />
  <path
     d="m 172.73868,193.05383 c 1.52191,0.38606 2.95001,5.50795 1.59697,5.98863 -1.50115,0.53299 -2.28207,-4.90988 -1.59697,-5.98863 z"
     fill="#fefdf9"
     id="path12887"
     style="stroke-width:0.399243" />
  <path
     d="m 44.382197,194.6508 c 0,0 13.174999,9.98106 13.174999,9.98106 -10.094049,1.03643 -13.886849,-2.11918 -19.562879,-10.18069 0.21838,-0.96736 5.29435,0.0355 6.38788,0.19963 z"
     fill="#5aa8b4"
     id="path12889"
     style="stroke-width:0.399243" />
  <path
     d="m 71.530686,217.80686 c -0.4236,-4.51942 -1.27518,-9.20334 -0.79848,-13.77386 0.23036,-2.20901 2.17028,-4.73462 1.59697,-6.98675 0.55095,-0.81765 1.72592,-2.95998 2.79469,-2.99432 3.65587,9.00931 4.49068,17.00215 -3.59318,23.75493 z"
     fill="#5ba9b6"
     id="path12891"
     style="stroke-width:0.399243" />
  <path
     d="m 277.53986,205.0311 c 0,0 13.57424,-10.3803 13.57424,-10.3803 0.92026,-0.13694 5.70478,-0.99412 5.98864,-0.59887 -1.64248,3.99163 -6.85739,9.46405 -10.97917,10.57993 -2.51802,0.68191 -5.61415,0.0667 -8.58371,0.39924 z"
     fill="#5aa8b5"
     id="path12893"
     style="stroke-width:0.399243" />
  <path
     d="m 127.62427,194.25155 c 3.27818,-0.69747 -0.23994,3.55406 -1.59697,3.19394 -1.75307,-0.46511 1.24165,-2.78391 1.59697,-3.19394 z"
     fill="#fefcfa"
     id="path12895"
     style="stroke-width:0.399243" />
  <path
     d="m 262.36864,196.64701 c 3.81716,8.32461 1.11908,13.1247 1.59697,20.76061 -8.09025,-5.1099 -7.37681,-14.74482 -3.99243,-22.5572 0,0 0.99811,-0.59887 0.99811,-0.59887 1.02765,0.61803 1.01088,1.55226 1.39735,2.39546 z"
     fill="#5aa9b5"
     id="path12897"
     style="stroke-width:0.399243" />
  <path
     d="m 57.557196,204.63186 c 0,0 -13.174999,-9.98106 -13.174999,-9.98106 7.24785,1.08673 9.89083,3.46582 13.973489,9.3822 0,0 -0.19962,0.9981 -0.19962,0.9981 -0.19204,-0.16688 -0.28466,-0.43158 -0.59887,-0.39924 z"
     fill="#f7fbfc"
     id="path12899"
     style="stroke-width:0.399243" />
  <path
     d="m 186.31293,194.6508 c 0.63519,-0.3174 2.25093,2.06887 1.59697,2.39545 -0.79609,0.16529 -2.2146,-2.08724 -1.59697,-2.39545 z"
     fill="#fcfdf0"
     id="path12901"
     style="stroke-width:0.399243" />
  <path
     d="m 194.29778,194.6508 c 0.90269,-0.57332 4.64958,3.50774 2.7947,3.99242 -1.53908,0.40204 -3.56244,-3.50495 -2.7947,-3.99242 z"
     fill="#fefcf6"
     id="path12903"
     style="stroke-width:0.399243" />
  <path
     d="m 204.67809,194.6508 c 0.66913,-0.49187 4.01997,2.08005 3.7928,2.99431 -1.29434,2.847 -5.12388,-2.01617 -3.7928,-2.99431 z"
     fill="#fefdf9"
     id="path12905"
     style="stroke-width:0.399243" />
  <path
     d="m 291.1141,194.6508 c 0,0 -13.57424,10.3803 -13.57424,10.3803 -0.41761,0.0467 -0.51543,0.54497 -0.99811,0.39924 3.37879,-6.88374 6.98076,-9.64849 14.57235,-10.77954 z"
     fill="#fafcfb"
     id="path12907"
     style="stroke-width:0.399243" />
  <path
     d="m 143.99322,196.24777 c 1.77822,-0.65157 0.7386,2.55794 -0.39925,2.39545 -0.98573,-0.39126 0.28506,-2.35353 0.39925,-2.39545 z"
     fill="#fefbf6"
     id="path12909"
     style="stroke-width:0.399243" />
  <path
     d="m 263.96561,217.40762 c -0.47789,-7.63591 2.22019,-12.436 -1.59697,-20.76061 2.316,2.1607 3.7928,6.71127 3.99242,9.78144 0.0631,0.96816 -1.08154,14.48492 -1.99621,13.17501 0.2124,-0.8448 -0.35093,-1.4241 -0.39924,-2.19584 z"
     fill="#f8fafb"
     id="path12911"
     style="stroke-width:0.399243" />
  <path
     d="m 71.530686,217.80686 c -0.28586,0.23875 -0.35253,1.4808 -0.99811,1.19773 -1.73989,-7.3796 -2.71524,-15.26224 1.7966,-21.95834 0.57331,2.25213 -1.36661,4.77774 -1.59697,6.98675 -0.4767,4.57052 0.37488,9.25444 0.79848,13.77386 z"
     fill="#f3f9fa"
     id="path12913"
     style="stroke-width:0.399243" />
  <path
     d="m 246.9978,197.04625 c 2.69888,-0.74139 3.38997,3.97486 0.79848,3.99243 -1.71634,0.0116 -2.85897,-3.4263 -0.79848,-3.99243 z"
     fill="#60abb5"
     id="path12915"
     style="stroke-width:0.399243" />
  <path
     d="m 88.099259,197.44549 c 1.96307,-0.39924 3.66704,2.83782 1.59697,3.59319 -3.31372,1.2089 -3.7413,-3.15721 -1.59697,-3.59319 z"
     fill="#5fa9b4"
     id="path12917"
     style="stroke-width:0.399243" />
  <path
     d="m 157.96671,197.44549 c 1.67242,-0.43876 0.7869,5.20892 0.9981,6.18826 -4.002,3.08136 -2.02615,-5.91877 -0.9981,-6.18826 z"
     fill="#fdfcfa"
     id="path12919"
     style="stroke-width:0.399243" />
  <path
     d="m 138.40382,201.43792 c 3.64748,-0.72423 -1.03084,4.94781 -1.99621,4.79091 -1.60536,-0.26071 1.51792,-4.69589 1.99621,-4.79091 z"
     fill="#fefcfa"
     id="path12921"
     style="stroke-width:0.399243" />
  <path
     d="m 170.74247,201.43792 c 0.48827,0 1.46043,3.04742 0.79848,3.59318 -1.22926,1.01328 -2.17307,-2.77194 -0.79848,-3.59318 z"
     fill="#fdfcf6"
     id="path12923"
     style="stroke-width:0.399243" />
  <path
     d="m 199.88718,201.83716 c 1.05559,-0.67312 3.26979,2.93803 1.99621,3.19394 -1.47919,0.29704 -2.56513,-2.83103 -1.99621,-3.19394 z"
     fill="#fefcf7"
     id="path12925"
     style="stroke-width:0.399243" />
  <path
     d="m 241.00916,203.43413 c 2.81266,-0.91506 4.02037,3.77963 1.99621,4.39167 -2.18864,0.66155 -4.35254,-3.62512 -1.99621,-4.39167 z"
     fill="#f1b635"
     id="path12927"
     style="stroke-width:0.399243" />
  <path
     d="m 131.6167,203.83337 c 1.96547,-0.23235 -0.14373,3.07737 -1.19773,2.39546 -0.86835,-0.56173 0.96417,-2.36791 1.19773,-2.39546 z"
     fill="#fdfbf8"
     id="path12929"
     style="stroke-width:0.399243" />
  <path
     d="m 93.289409,206.62807 c 4.305431,-1.43527 5.674441,3.42111 2.395461,3.99243 -2.881741,0.50185 -5.313521,-3.01987 -2.395461,-3.99243 z"
     fill="#61abb6"
     id="path12931"
     style="stroke-width:0.399243" />
  <path
     d="m 161.16065,207.02732 c 1.06238,2.40583 0.57571,4.94861 0.19962,7.38598 -4.64439,3.08814 -0.70706,-7.49019 -0.19962,-7.38598 z"
     fill="#fdfcf9"
     id="path12933"
     style="stroke-width:0.399243" />
  <path
     d="m 177.92884,208.62429 c 0.30861,-0.18765 2.78232,4.71505 1.19772,4.79091 -0.81605,-0.42919 -1.86566,-4.38488 -1.19772,-4.79091 z"
     fill="#fefbf3"
     id="path12935"
     style="stroke-width:0.399243" />
  <path
     d="m 163.95535,211.41898 c 0.8919,0.64638 0.8919,2.14833 0,2.7947 -0.33018,-0.77054 -0.33138,-2.01298 0,-2.7947 z"
     fill="#fdfdf0"
     id="path12937"
     style="stroke-width:0.399243" />
  <path
     d="m 171.14171,212.61671 c 1.61693,-0.49466 2.46253,5.04283 1.19773,5.5894 -2.03574,0.87993 -2.39586,-5.22289 -1.19773,-5.5894 z"
     fill="#fefcf9"
     id="path12939"
     style="stroke-width:0.399243" />
  <path
     d="m 88.099259,213.81444 c 2.04532,-0.52101 6.13875,6.40704 6.98674,8.18447 4.496271,9.42332 1.049611,14.61028 -4.99053,22.15796 -0.94541,0.0347 -6.937243,-15.41236 -7.385993,-17.36705 -1.64288,-2.86297 2.973163,-12.35975 5.389783,-12.97538 z m -1.39735,6.38788 c -2.651373,4.83922 -0.0228,10.91489 1.59697,15.9697 0.51502,1.60695 1.20411,3.25303 1.19773,4.99053 0.66913,1.24844 4.68551,-8.43439 4.79091,-9.18257 0.75097,-5.33428 -3.11449,-9.9639 -5.78902,-14.17312 -0.97056,0.65995 -1.2664,1.4277 -1.79659,2.39546 z"
     fill="#146187"
     id="path12941"
     style="stroke-width:0.399243" />
  <path
     d="m 231.0281,215.41141 c 3.40594,-1.30153 5.89202,5.08755 0.79848,3.99242 -1.84649,-0.39724 -2.62103,-3.29614 -0.79848,-3.99242 z"
     fill="#64acb8"
     id="path12943"
     style="stroke-width:0.399243" />
  <path
     d="m 101.27426,216.60914 c 2.88812,-1.14663 5.37061,3.76845 2.7947,4.79091 -2.88812,1.14662 -5.37061,-3.76845 -2.7947,-4.79091 z"
     fill="#5fabb7"
     id="path12945"
     style="stroke-width:0.399243" />
  <path
     d="m 53.564777,218.20611 c 0,0 12.775759,6.78712 12.775759,6.78712 -9.24965,4.43798 -13.638129,1.08993 -19.163649,-6.5875 2.2669,-0.88353 4.10222,-0.45314 6.38789,-0.19962 z"
     fill="#5ba9b5"
     id="path12947"
     style="stroke-width:0.399243" />
  <path
     d="m 88.298879,236.17202 c 0,0 -1.59697,-15.9697 -1.59697,-15.9697 0.53019,-0.96776 0.82603,-1.73551 1.79659,-2.39546 2.67453,4.20922 6.53999,8.83884 5.78902,14.17312 -0.1054,0.74818 -4.12178,10.43101 -4.79091,9.18257 0.006,-1.7375 -0.68271,-3.38358 -1.19773,-4.99053 z"
     fill="#5baab6"
     id="path12949"
     style="stroke-width:0.399243" />
  <path
     d="m 248.39515,219.80308 c 0,0 -1.19773,15.9697 -1.19773,15.9697 -0.32299,1.09193 -1.33866,6.91648 -2.39545,5.38977 -5.19175,-9.41414 -4.88234,-15.31254 2.19583,-23.35569 0.80208,0.51503 0.9482,1.31032 1.39735,1.99622 z"
     fill="#5caab6"
     id="path12951"
     style="stroke-width:0.399243" />
  <path
     d="m 268.75652,224.99323 c -0.19882,-0.12217 -1.04881,0.2132 -1.19773,-0.19962 3.40714,-2.94801 9.78184,-6.52881 14.37273,-6.98675 -4.27628,2.72563 -9.34906,3.67663 -13.175,7.18637 z"
     fill="#f0f7f7"
     id="path12953"
     style="stroke-width:0.399243" />
  <path
     d="m 268.75652,224.99323 c 3.82594,-3.50974 8.89872,-4.46074 13.175,-7.18637 2.09802,-0.2092 4.36013,-0.0279 6.38789,0.59887 -4.87476,7.05941 -11.13049,11.77925 -19.56289,6.5875 z"
     fill="#5ba9b5"
     id="path12955"
     style="stroke-width:0.399243" />
  <path
     d="m 66.340536,224.99323 c 0,0 -12.775759,-6.78712 -12.775759,-6.78712 5.555459,0.61643 10.096839,3.055 14.372729,6.5875 -0.30183,0.45474 -1.25722,0.0367 -1.59697,0.19962 z"
     fill="#eff7f7"
     id="path12957"
     style="stroke-width:0.399243" />
  <path
     d="m 247.19742,235.77278 c 0,0 1.19773,-15.9697 1.19773,-15.9697 3.04342,4.64798 0.3158,10.85341 -1.19773,15.9697 z"
     fill="#f6fafb"
     id="path12959"
     style="stroke-width:0.399243" />
  <path
     d="m 88.298879,236.17202 c -1.61973,-5.05481 -4.248343,-11.13048 -1.59697,-15.9697 0,0 1.59697,15.9697 1.59697,15.9697 z"
     fill="#f7fafb"
     id="path12961"
     style="stroke-width:0.399243" />
  <path
     d="m 225.03946,222.99702 c 1.20491,-0.40683 2.72163,1.17138 2.19583,1.79659 -1.02805,1.22248 -4.07227,-1.16299 -2.19583,-1.79659 z"
     fill="#68b5bc"
     id="path12963"
     style="stroke-width:0.399243" />
  <path
     d="m 219.05082,228.18717 c 1.81496,-0.32738 2.4749,2.60626 1.19773,3.19394 -3.04942,1.40294 -3.17997,-2.83622 -1.19773,-3.19394 z"
     fill="#60acb6"
     id="path12965"
     style="stroke-width:0.399243" />
  <path
     d="m 115.24775,228.58641 c 2.75997,-1.03324 3.72893,3.5341 1.19773,3.99243 -2.8474,0.51542 -2.89251,-3.35803 -1.19773,-3.99243 z"
     fill="#5ca8b4"
     id="path12967"
     style="stroke-width:0.399243" />
  <path
     d="m 202.68187,232.97808 c 4.08905,-1.02046 5.12788,3.93134 2.7947,4.79091 -3.07137,1.13146 -6.6426,-3.83073 -2.7947,-4.79091 z"
     fill="#61adb9"
     id="path12969"
     style="stroke-width:0.399243" />
  <path
     d="m 108.26101,254.13794 c -0.89071,-5.72035 -3.90739,-10.84103 -2.7947,-16.76819 0.26909,-0.5262 0.22996,-1.56902 0.99811,-1.99621 0.40722,2.00579 5.15182,6.72803 5.38977,7.78523 0.20441,0.90788 -0.75058,12.68753 -1.19773,13.175 -1.57102,0.90628 -1.86406,-1.43168 -2.39545,-2.19583 z"
     fill="#5caab7"
     id="path12971"
     style="stroke-width:0.399243" />
  <path
     d="m 230.02999,237.36975 c 0.51462,5.99622 -1.80577,11.44748 -3.19394,17.16743 -0.56134,0.80288 -0.82643,1.77663 -1.79659,2.39546 -0.85997,-0.2655 -1.7926,-12.61727 -1.39735,-14.17312 0.30782,-1.2109 4.92306,-5.03245 4.99053,-7.38598 0.58769,-0.13894 1.19973,1.56543 1.39735,1.99621 z"
     fill="#5caab6"
     id="path12973"
     style="stroke-width:0.399243" />
  <path
     d="m 108.26101,254.13794 c -3.01748,-4.33937 -5.27559,-11.91979 -2.7947,-16.76819 -1.11269,5.92716 1.90399,11.04784 2.7947,16.76819 z"
     fill="#f4fbf9"
     id="path12975"
     style="stroke-width:0.399243" />
  <path
     d="m 226.83605,254.53718 c 1.38817,-5.71995 3.70856,-11.17121 3.19394,-17.16743 2.26411,4.93424 -0.21799,12.90991 -3.19394,17.16743 z"
     fill="#ebf5f6"
     id="path12977"
     style="stroke-width:0.399243" />
  <path
     d="m 82.310236,244.15687 c 0,0 -18.7644,-4.39166 -18.7644,-4.39166 6.41703,-2.35074 13.37263,0.33256 18.7644,4.39166 z"
     fill="#f8fcfc"
     id="path12979"
     style="stroke-width:0.399243" />
  <path
     d="m 272.74895,240.16445 c 0,0 -18.36516,3.59318 -18.36516,3.59318 5.86168,-3.88902 11.5405,-7.09773 18.36516,-3.59318 z"
     fill="#f8fcfc"
     id="path12981"
     style="stroke-width:0.399243" />
  <path
     d="m 63.545836,239.76521 c 0,0 18.7644,4.39166 18.7644,4.39166 0.40443,0.30463 1.19533,0.46792 0.59886,1.19773 -8.30544,4.10741 -16.20884,1.81616 -23.75493,-2.59508 -0.38966,-1.07715 3.60396,-2.70566 4.39167,-2.99431 z"
     fill="#5aa8b4"
     id="path12983"
     style="stroke-width:0.399243" />
  <path
     d="m 192.30157,239.76521 c 4.31781,-1.11549 3.28976,5.9527 -0.39924,3.59318 -1.43568,-0.91826 -0.97096,-3.23906 0.39924,-3.59318 z"
     fill="#f2b734"
     id="path12985"
     style="stroke-width:0.399243" />
  <path
     d="m 272.74895,240.16445 c 1.24563,0.63958 2.72083,1.02206 3.19394,2.59507 -0.1617,0.51543 -8.87916,4.44837 -9.78145,4.59129 -1.61493,0.25632 -14.8634,-0.0124 -13.57424,-2.79469 0.29903,-0.58449 1.53309,-0.62362 1.79659,-0.79849 0,0 18.36516,-3.59318 18.36516,-3.59318 z"
     fill="#5aa8b4"
     id="path12987"
     style="stroke-width:0.399243" />
  <path
     d="m 125.42844,243.75763 c 0,0 5.98864,20.76061 5.98864,20.76061 -4.21121,-4.19883 -7.71257,-15.9154 -7.18637,-21.75872 0.93263,-0.68909 0.8432,0.72263 1.19773,0.99811 z"
     fill="#f6fafb"
     id="path12989"
     style="stroke-width:0.399243" />
  <path
     d="m 204.07922,264.51824 c 0,0 5.5894,-20.76061 5.5894,-20.76061 0.49746,-0.38207 0.49426,-0.83561 0.99811,-1.19773 1.60415,5.80739 -2.69769,17.40658 -6.58751,21.95834 z"
     fill="#f5fafb"
     id="path12991"
     style="stroke-width:0.399243" />
  <path
     d="m 131.41708,264.51824 c 0,0 -5.98864,-20.76061 -5.98864,-20.76061 7.52293,5.84811 10.24696,12.40407 6.5875,21.5591 -0.32219,-0.12057 -0.51462,-0.71464 -0.59886,-0.79849 z"
     fill="#5caab7"
     id="path12993"
     style="stroke-width:0.399243" />
  <path
     d="m 204.07922,264.51824 c -0.18045,0.2112 -0.75097,1.20053 -0.9981,1.19773 -2.87814,-9.21971 -1.05919,-16.08348 6.5875,-21.95834 0,0 -5.5894,20.76061 -5.5894,20.76061 z"
     fill="#5baab6"
     id="path12995"
     style="stroke-width:0.399243" />
  <path
     d="m 140.79928,244.95536 c 3.67103,-1.45324 5.01967,3.84111 2.39545,4.39167 -1.93632,0.40603 -4.58809,-3.52372 -2.39545,-4.39167 z"
     fill="#61acb7"
     id="path12997"
     style="stroke-width:0.399243" />
  <path
     d="m 167.94777,245.3546 c 8.71706,-0.97854 3.76127,5.86128 3.79281,7.78523 0.006,0.35692 3.68421,3.83433 -2.19584,4.59129 -9.19975,1.18415 -9.1187,-11.53212 -1.59697,-12.37652 z m -0.39924,2.39546 c -6.07048,0.58369 -4.26311,7.97207 1.59697,6.38788 0.53139,-3.09892 3.35803,-6.86418 -1.59697,-6.38788 z"
     fill="#f27852"
     id="path12999"
     style="stroke-width:0.399243" />
  <path
     d="m 167.54853,247.75006 c 4.955,-0.4763 2.12836,3.28896 1.59697,6.38788 -5.86008,1.58419 -7.66745,-5.80419 -1.59697,-6.38788 z"
     fill="#fefdfd"
     id="path13001"
     style="stroke-width:0.399243" />
  <path
     d="m 148.58451,256.13415 c -1.93952,6.85899 1.66085,11.99405 3.99242,17.96592 -4.56733,-4.32819 -8.04034,-13.06202 -4.59129,-18.7644 0.32578,0.11578 0.55615,0.77293 0.59887,0.79848 z"
     fill="#f7fcfb"
     id="path13003"
     style="stroke-width:0.399243" />
  <path
     d="m 182.91937,273.70082 c 1.793,-5.72474 6.09563,-11.44947 3.59318,-17.56667 0.35732,-0.16089 0.69548,-0.54976 0.99811,-0.39924 3.40234,6.12677 -0.95699,13.59541 -4.39167,18.7644 -0.30622,0.0499 -0.16329,-0.77892 -0.19962,-0.79849 z"
     fill="#f7fafc"
     id="path13005"
     style="stroke-width:0.399243" />
  <path
     d="m 152.57693,274.10007 c -2.33157,-5.97187 -5.93194,-11.10693 -3.99242,-17.96592 4.16809,2.49048 8.5398,14.08648 3.99242,17.96592 z"
     fill="#5aa8b6"
     id="path13007"
     style="stroke-width:0.399243" />
  <path
     d="m 182.91937,273.70082 c -2.28008,-1.22328 -2.38428,-4.51343 -1.99622,-7.38598 0.25512,-1.88922 3.89621,-9.41853 5.5894,-10.18069 2.50245,6.1172 -1.80018,11.84193 -3.59318,17.56667 z"
     fill="#5aa8b5"
     id="path13009"
     style="stroke-width:0.399243" />
  <path
     d="m 99.47767,259.32809 c 0,0 -15.969704,0 -15.969704,0 5.414933,-0.72782 10.636223,-1.07755 16.169324,-0.79848 0,0 0.59887,0.59886 0.59887,0.59886 -0.14932,0.34455 -0.78931,0.1597 -0.79849,0.19962 z"
     fill="#f4fafa"
     id="path13011"
     style="stroke-width:0.399243" />
  <path
     d="m 251.98833,259.32809 c -4.61165,0.74539 -11.62035,1.64528 -15.9697,0 -0.28306,-0.107 -1.33148,0.0104 -0.99811,-0.79848 5.7994,-0.27428 11.28659,0.0591 16.96781,0.79848 z"
     fill="#f1f8fa"
     id="path13013"
     style="stroke-width:0.399243" />
  <path
     d="m 83.507966,259.32809 c 0,0 15.969704,0 15.969704,0 -2.03494,8.8017 -17.953144,7.61995 -22.756834,0.99811 0.17966,-0.63081 5.70718,-0.85278 6.78713,-0.99811 z"
     fill="#5aa8b5"
     id="path13015"
     style="stroke-width:0.399243" />
  <path
     d="m 251.98833,259.32809 c 2.19224,0.28506 4.35654,0.56054 6.5875,0.39924 -3.8447,7.56645 -19.95174,8.53821 -22.5572,-0.39924 4.34935,1.64528 11.35805,0.74539 15.9697,0 z"
     fill="#5ba9b5"
     id="path13017"
     style="stroke-width:0.399243" />
  <path
     d="m 111.65457,267.71219 c 4.38448,-0.41242 8.6975,0.61283 12.97538,1.39734 -2.24813,5.86647 -5.0069,12.58493 -11.77765,14.17312 -7.4886,1.75626 -11.94255,-2.30164 -18.964031,-3.39357 1.309121,-6.71007 11.332111,-11.57164 17.766301,-12.17689 z m -10.97917,7.5856 c -1.03244,0.40803 -2.78113,1.40534 -2.59508,2.7947 6.05172,0.79569 11.35406,4.70028 17.16743,0.79849 2.81027,-1.88602 4.56334,-6.84302 7.38599,-8.98296 -0.33337,-0.43557 -2.15351,-0.11059 -2.7947,-0.19962 -6.54678,-0.90748 -13.95512,1.75507 -19.16364,5.58939 z"
     fill="#166287"
     id="path13019"
     style="stroke-width:0.399243" />
  <path
     d="m 217.85309,267.71219 c 8.92228,-0.60406 20.16375,2.93163 23.75493,11.77765 -0.90588,1.72912 -2.20302,0.47031 -2.59507,0.59887 -6.96199,2.28047 -10.94324,5.56104 -18.7644,2.39545 -5.57183,-2.25532 -6.9061,-8.36134 -9.78145,-12.97538 0.11499,-0.36212 6.60986,-1.74389 7.38599,-1.79659 z m -2.59507,1.99621 c -0.58889,0.0783 -2.06968,-0.22278 -2.39546,0.19962 2.8985,2.66175 6.01179,9.71277 10.18069,10.57993 5.04682,1.05001 9.47602,-1.87844 14.37273,-2.39546 0.024,-1.65566 -2.25452,-2.843 -3.39356,-3.59318 -5.12867,-3.37839 -12.67875,-5.59778 -18.7644,-4.79091 z"
     fill="#166187"
     id="path13021"
     style="stroke-width:0.399243" />
  <path
     d="m 119.83904,269.7084 c -4.27549,1.16579 -8.3805,3.03783 -12.57614,4.39167 -1.82334,0.58848 -4.73941,0.46751 -6.5875,1.19772 5.20852,-3.83432 12.61686,-6.49687 19.16364,-5.58939 z"
     fill="#f9fcfc"
     id="path13023"
     style="stroke-width:0.399243" />
  <path
     d="m 234.02242,274.49931 c 0,0 -18.7644,-4.79091 -18.7644,-4.79091 6.08565,-0.80687 13.63573,1.41252 18.7644,4.79091 z"
     fill="#f8fbfc"
     id="path13025"
     style="stroke-width:0.399243" />
  <path
     d="m 100.6754,275.29779 c 1.84809,-0.73021 4.76416,-0.60924 6.5875,-1.19772 4.19564,-1.35384 8.30065,-3.22588 12.57614,-4.39167 0.64119,0.089 2.46133,-0.23595 2.7947,0.19962 -2.82265,2.13994 -4.57572,7.09694 -7.38599,8.98296 -5.81337,3.90179 -11.11571,-0.003 -17.16743,-0.79849 -0.18605,-1.38936 1.56264,-2.38667 2.59508,-2.7947 z"
     fill="#5aa8b5"
     id="path13027"
     style="stroke-width:0.399243" />
  <path
     d="m 215.25802,269.7084 c 0,0 18.7644,4.79091 18.7644,4.79091 1.13904,0.75018 3.41751,1.93752 3.39356,3.59318 -4.89671,0.51702 -9.32591,3.44547 -14.37273,2.39546 -4.1689,-0.86716 -7.28219,-7.91818 -10.18069,-10.57993 0.32578,-0.4224 1.80657,-0.12137 2.39546,-0.19962 z"
     fill="#5aa8b4"
     id="path13029"
     style="stroke-width:0.399243" />
  <path
     d="m 145.78981,276.09628 c -2.98634,6.11999 -12.72905,13.79942 -19.56289,8.98296 -0.17766,-0.7394 1.03284,-1.1586 1.19773,-1.39735 3.35563,-1.43688 5.99982,-4.17528 9.3822,-5.5894 2.51283,-1.05041 3.52651,-0.29743 5.78902,-1.99621 0.12137,-0.091 0.83761,0.23036 0.79848,-0.39924 0.80248,0.13654 1.5842,0.34814 2.39546,0.39924 z"
     fill="#5aa8b4"
     id="path13031"
     style="stroke-width:0.399243" />
  <path
     d="m 142.59587,276.09628 c -2.26251,1.69878 -3.27619,0.9458 -5.78902,1.99621 -3.38238,1.41412 -6.02657,4.15252 -9.3822,5.5894 3.43149,-4.96977 9.42612,-7.21232 15.17122,-7.58561 z"
     fill="#f3f9f8"
     id="path13033"
     style="stroke-width:0.399243" />
  <path
     d="m 207.67241,283.28265 c 0.17886,0.23794 1.62731,1.66763 1.59697,1.79659 -6.39228,4.94701 -17.609,-3.26541 -19.56289,-8.98296 7.22869,0.95419 11.88905,3.5856 17.96592,7.18637 z"
     fill="#59a7b4"
     id="path13035"
     style="stroke-width:0.399243" />
  <path
     d="m 181.52202,283.28265 c 0.58768,-0.0543 4.37011,1.38537 4.59129,2.19583 0.70466,2.5839 -2.98075,6.4845 -5.78902,4.99053 -2.57831,-1.3718 -1.33946,-6.95121 1.19773,-7.18636 z"
     fill="#f17d4f"
     id="path13037"
     style="stroke-width:0.399243" />
  <path
     d="m 153.1758,285.6781 c 5.25762,-1.21969 4.75777,7.62993 -0.39925,4.79091 -1.88402,-1.03723 -1.78222,-4.28467 0.39925,-4.79091 z"
     fill="#eeb337"
     id="path13039"
     style="stroke-width:0.399243" />
  <path
     d="m 117.64321,286.87583 c 2.08923,-0.48987 1.70636,3.22149 0.39924,3.59318 -1.99182,0.56613 -1.7387,-3.27898 -0.39924,-3.59318 z"
     fill="#034c78"
     id="path13041"
     style="stroke-width:0.399243" />
  <path
     d="m 217.85309,286.87583 c 2.44097,-1.16739 3.60277,3.09493 1.59697,3.59318 -1.61693,0.40164 -3.19234,-2.83023 -1.59697,-3.59318 z"
     fill="#014a76"
     id="path13043"
     style="stroke-width:0.399243" />
  <path
     d="m 145.19094,288.07356 c 2.61664,-0.7382 0.50305,4.82764 0.99811,6.18826 0.64318,1.76864 5.6908,0.90747 5.98864,3.59318 -1.7926,2.63979 -4.01359,-0.39286 -5.38977,-0.59886 -3.39556,-0.50784 -8.26952,3.32129 -11.97728,3.19394 0.83601,-3.82754 5.82175,-4.0104 7.78523,-6.58751 0.71943,-0.9446 1.80178,-5.56504 2.59507,-5.78901 z"
     fill="#efb336"
     id="path13045"
     style="stroke-width:0.399243" />
  <path
     d="m 190.7046,288.07356 c -0.38527,2.54038 1.262,7.66905 3.99242,8.38409 1.65526,0.43358 8.28748,-1.13185 7.78523,1.39735 -0.42399,2.13635 -9.47283,1.1598 -11.37841,1.39735 -2.84061,0.35413 -5.76945,3.06538 -8.78334,1.59697 -4.21121,-5.26601 6.73283,-1.7407 7.78523,-4.59129 0.65835,-1.78382 -0.89031,-6.14155 0.59887,-8.18447 z m 0.79848,7.58561 c 0,0 0,0.79848 0,0.79848 0,0 0.39925,0 0.39925,0 0,0 0,-0.39924 0,-0.39924 0,0 -0.39925,-0.39924 -0.39925,-0.39924 z"
     fill="#f0b436"
     id="path13047"
     style="stroke-width:0.399243" />
  <path
     d="m 191.50308,295.65917 c 0,0 0.39925,0.39924 0.39925,0.39924 0,0 0,0.39924 0,0.39924 0,0 -0.39925,0 -0.39925,0 0,0 0,-0.79848 0,-0.79848 z"
     fill="#fcf8e1"
     id="path13049"
     style="stroke-width:0.399243" />
  <path
     style="fill:none;stroke:none;"
     d="M 47.427077,135.93447 C 53.953507,100.487 86.585659,68.878597 111.15575,61.072467"
     id="path14413"
     sodipodi:nodetypes="cc" />
  <path
     style="fill:none;stroke:none"
     d="m 224.79243,61.840287 c 40.18234,12.79692 50.41988,32.120283 58.35397,60.273513"
     id="path14415"
     sodipodi:nodetypes="cc" />
  <text
     xml:space="preserve"
     style="font-style:normal;font-variant:normal;font-weight:normal;font-stretch:normal;font-size:37.3333px;line-height:1.25;font-family:Calibri;-inkscape-font-specification:'Calibri, Normal';font-variant-ligatures:normal;font-variant-caps:normal;font-variant-numeric:normal;font-variant-east-asian:normal;fill:#000000;fill-opacity:1;stroke:none"
     id="text16550"><textPath
       xlink:href="#path14413"
       id="textPath21206"><tspan
         id="tspan16548">Lemon</tspan></textPath></text>
  <text
     xml:space="preserve"
     style="font-style:normal;font-weight:normal;font-size:37.3333px;line-height:1.25;font-family:Calibri;fill:#000000;fill-opacity:1;stroke:none;-inkscape-font-specification:'Calibri, Normal';font-stretch:normal;font-variant:normal;font-variant-ligatures:normal;font-variant-caps:normal;font-variant-numeric:normal;font-variant-east-asian:normal"
     id="text22751"><textPath
       xlink:href="#path14415" startOffset="20"
       id="textPath27705"><tspan
         id="tspan22749"
         style="-inkscape-font-specification:'Calibri, Normal';font-family:Calibri;font-weight:normal;font-style:normal;font-stretch:normal;font-variant:normal;font-size:37.33333333px;font-variant-ligatures:normal;font-variant-caps:normal;font-variant-numeric:normal;font-variant-east-asian:normal">Inc.</tspan></textPath></text>
</svg>
