<?xml version="1.0" encoding="UTF-8" standalone="no"?>
<svg
  viewBox="-10 10 330 330"
   version="1.1"
   id="svg29222"
   sodipodi:docname="Sweet_Eat_plc1v0.svg"
   inkscape:version="1.1 (c68e22c387, 2021-05-23)"
   xmlns:inkscape="http://www.inkscape.org/namespaces/inkscape"
   xmlns:sodipodi="http://sodipodi.sourceforge.net/DTD/sodipodi-0.dtd"
   xmlns:xlink="http://www.w3.org/1999/xlink"
   xmlns="http://www.w3.org/2000/svg"
   xmlns:svg="http://www.w3.org/2000/svg"
   xmlns:c2pa="http://c2pa.org/manifest"><sodipodi:namedview
   id="namedview29224"
   pagecolor="#ffffff"
   bordercolor="#666666"
   borderopacity="1.0"
   inkscape:pageshadow="2"
   inkscape:pageopacity="0.0"
   inkscape:pagecheckerboard="0"
   showgrid="false"
   inkscape:zoom="2.0798883"
   inkscape:cx="22.837765"
   inkscape:cy="753.16545"
   inkscape:window-width="1920"
   inkscape:window-height="1129"
   inkscape:window-x="-8"
   inkscape:window-y="-8"
   inkscape:window-maximized="1"
   inkscape:current-layer="svg29222" />
<metadata
   id="metadata28907">
</metadata>
<defs
   id="defs28914">
  <linearGradient
     id="grad13"
     x1="514.279"
     y1="245.221"
     x2="507.463"
     y2="439.101"
     gradientUnits="userSpaceOnUse"
     gradientTransform="matrix(0.32775715,0,0,0.32775715,-5.2049873,7.7324381)">
    <stop
       offset="0%"
       style="stop-color: rgb(247, 143, 50);"
       id="stop28909" />
    <stop
       offset="100%"
       style="stop-color: rgb(253, 173, 46);"
       id="stop28911" />
  </linearGradient>
</defs>
<defs
   id="defs28921">
  <linearGradient
     id="grad39"
     x1="393.4"
     y1="460.764"
     x2="593.246"
     y2="559.712"
     gradientUnits="userSpaceOnUse"
     gradientTransform="matrix(0.32775715,0,0,0.32775715,-5.2049873,7.7324381)">
    <stop
       offset="0%"
       style="stop-color: rgb(161, 82, 132);"
       id="stop28916" />
    <stop
       offset="100%"
       style="stop-color: rgb(90, 31, 96);"
       id="stop28918" />
  </linearGradient>
</defs>
<defs
   id="defs28928">
  <linearGradient
     id="grad64"
     x1="90.1047"
     y1="481.328"
     x2="320.49"
     y2="541.049"
     gradientUnits="userSpaceOnUse"
     gradientTransform="matrix(0.32775715,0,0,0.32775715,-5.2049873,7.7324381)">
    <stop
       offset="0%"
       style="stop-color: rgb(248, 144, 46);"
       id="stop28923" />
    <stop
       offset="100%"
       style="stop-color: rgb(252, 168, 46);"
       id="stop28925" />
  </linearGradient>
</defs>
<defs
   id="defs28930" />
<path
   d="m 160.47625,25.759082 c 5.4601,-1.587918 6.41453,7.200267 1.63878,7.538414 -4.58532,0.324644 -4.62432,-6.67012 -1.63878,-7.538414 z"
   fill="#fcb124"
   id="path28934"
   style="stroke-width:0.327757" />
<path
   d="m 181.12495,33.95301 c 8.66688,-1.49372 8.75832,9.956935 2.62205,11.143743 -7.69246,1.488018 -8.72424,-10.092003 -2.62205,-11.143743 z"
   fill="#fdb024"
   id="path28936"
   style="stroke-width:0.327757" />
<path
   d="m 160.804,34.608525 c 0.31924,-0.144869 0.63225,2.212328 2.45818,0.163878 -4.3218,6.234925 4.05174,5.27925 6.8829,9.504958 3.36738,5.026155 0.80825,11.665204 -3.44145,15.240707 -4.18283,3.519129 -7.10053,2.601736 -10.6521,-1.474907 -4.33459,-4.975681 -4.95799,-12.792689 1.14715,-16.551736 3.83869,-2.363457 5.37718,0.311041 3.60532,-6.8829 z"
   fill="#78256b"
   id="path28938"
   style="stroke-width:0.327757" />
<path
   d="m 208.9843,50.013111 c 8.91238,-1.554225 8.44303,12.824809 -0.98327,9.504957 -4.19889,-1.47884 -3.47094,-8.728173 0.98327,-9.504957 z"
   fill="#905490"
   id="path28940"
   style="stroke-width:0.327757" />
<path
   d="m 126.71726,50.668625 c 9.53085,-1.81643 6.28507,14.736617 -1.31103,8.521686 -2.68531,-2.197284 -2.39459,-7.815369 1.31103,-8.521686 z"
   fill="#fb9e29"
   id="path28942"
   style="stroke-width:0.327757" />
<path
   d="m 195.2185,51.979654 c 5.12809,-0.957707 3.821,7.716058 -0.65551,5.244114 -1.83478,-1.013097 -1.40673,-4.859 0.65551,-5.244114 z"
   fill="#fdae28"
   id="path28944"
   style="stroke-width:0.327757" />
<path
   d="m 114.26249,52.962925 c 3.79215,-0.687962 5.01501,5.315565 1.96654,6.227386 -4.90193,1.466058 -5.51517,-5.583671 -1.96654,-6.227386 z"
   fill="#fca827"
   id="path28946"
   style="stroke-width:0.327757" />
<path
   d="m 93.613795,59.845825 c 6.850115,-1.489656 7.266695,8.053977 1.96654,8.521686 -5.0881,0.449027 -6.49221,-7.537431 -1.96654,-8.521686 z"
   fill="#8d5391"
   id="path28948"
   style="stroke-width:0.327757" />
<path
   d="m 227.66646,65.08994 c 5.63448,-1.682378 5.19102,7.535467 0,5.571871 -2.2943,-0.867901 -1.79217,-5.036972 0,-5.571871 z"
   fill="#4659a1"
   id="path28950"
   style="stroke-width:0.327757" />
<path
   d="m 157.52643,69.67854 c 51.11373,-2.037994 96.3547,32.3611 107.66823,82.10317 0,0 -8.19393,0.32776 -8.19393,0.32776 -5.60039,-22.81846 -19.55498,-43.49338 -38.83922,-56.865873 -56.1058,-38.906412 -134.568235,-9.50823 -150.276655,56.538113 0,0 -8.03005,0.49163 -8.03005,0.49163 2.67352,-16.76215 11.64652,-33.61608 22.77912,-46.37763 C 101.17613,84.640657 129.14201,70.810285 157.52643,69.67854 Z"
   fill="#228f91"
   id="path28952"
   style="stroke-width:0.327757" />
<path
   d="m 242.41553,80.166767 c 6.1271,-0.9092 4.84196,9.54363 -0.98327,7.21066 -3.2248,-1.29136 -2.17958,-6.74131 0.98327,-7.21066 z"
   fill="#915390"
   id="path28954"
   style="stroke-width:0.327757" />
<path
   d="m 80.503505,81.150037 c 7.50204,-1.42279 7.92288,11.67111 0,9.1772 -4.25691,-1.33987 -4.57975,-8.30864 0,-9.1772 z"
   fill="#4b5aa1"
   id="path28956"
   style="stroke-width:0.327757" />
<path
   d="m 192.10481,129.00259 c 1.70041,-4.57189 1.76661,-9.43449 1.63879,-14.25744 -0.83906,1.80201 -1.27727,4.01863 -2.2943,5.73575 -0.24025,0.40576 -1.36216,1.2953 -1.63879,1.63879 0,0 -8.19393,-3.27758 -8.19393,-3.27758 0.83087,-4.63514 1.12683,-9.53937 -0.16388,-14.09355 0.0675,1.39428 -0.10881,2.919 -0.49163,4.26084 -0.83513,2.92687 -2.16353,5.72198 -3.93309,8.19393 0,0 -13.43804,-1.96654 -13.43804,-1.96654 -0.45591,-2.33396 -2.74529,-12.30204 -5.73575,-11.4715 -1.61355,0.72139 0.48967,3.96258 0.81939,5.40799 0.46017,2.01702 0.65355,4.03502 0.98327,6.06351 0,0 -12.78252,1.63878 -12.78252,1.63878 -2.47883,-3.45489 -4.09599,-6.48107 -4.75248,-10.81598 -0.76892,4.26936 -0.61881,8.55511 0.16388,12.78252 0,0 -8.84945,2.94982 -8.84945,2.94982 -1.58995,-1.9908 -2.7879,-3.87212 -3.76921,-6.22739 -0.27171,0.13209 -0.19436,3.32772 -0.16387,3.93309 0.12684,2.5175 1.04587,7.51547 1.96654,9.83271 -9.6023,4.79116 -15.78446,13.78449 -20.81258,22.943 0,0 -35.397765,0 -35.397765,0 -0.56833,-0.2232 -0.22386,-1.31889 -0.16388,-1.80266 0.9836,-7.92713 11.21814,-25.34054 16.38786,-31.79244 37.368245,-46.638863 110.452515,-44.707393 144.868655,4.26084 5.85079,8.3247 11.32499,19.33505 12.9464,29.33426 0,0 -35.72553,0 -35.72553,0 -5.13562,-9.39515 -11.74681,-18.27541 -21.46809,-23.27075 z"
   fill="url(#grad13)"
   id="path28958"
   style="fill:url(#grad13);stroke-width:0.327757" />

/&gt;
<path
   d="m 56.577235,88.688457 c 15.91327,-2.08519 15.65729,20.683443 1.31103,19.993183 -11.907418,-0.57292 -13.131591,-18.444203 -1.31103,-19.993183 z m -2.2943,2.62205 c -2.1196,-0.24221 -4.40932,4.27265 -2.62206,4.91636 0.21501,0.0774 4.32968,-0.93935 4.42472,-1.14715 0.27991,-0.61225 -0.61618,-3.63384 -1.80266,-3.76921 z"
   fill="#445aa2"
   id="path28960"
   style="stroke-width:0.327757" />
<path
   d="m 264.04751,88.688457 c 14.8297,-1.94393 15.46423,18.615953 3.27757,19.993183 -13.45706,1.5208 -16.0306,-18.321623 -3.27757,-19.993183 z m -2.94982,2.62205 c -2.99898,0.26418 -4.15399,6.48468 1.63879,4.26085 1.28841,-0.49459 0.61946,-4.45979 -1.63879,-4.26085 z"
   fill="#90528d"
   id="path28962"
   style="stroke-width:0.327757" />
<path
   d="m 54.282935,91.310507 c 1.18648,0.13537 2.08257,3.15696 1.80266,3.76921 -0.095,0.2078 -4.20971,1.2245 -4.42472,1.14715 -1.78726,-0.64371 0.50246,-5.15857 2.62206,-4.91636 z"
   fill="#fbfbfe"
   id="path28964"
   style="stroke-width:0.327757" />
<path
   d="m 261.09769,91.310507 c 2.25825,-0.19894 2.9272,3.76626 1.63879,4.26085 -5.79278,2.22383 -4.63777,-3.99667 -1.63879,-4.26085 z"
   fill="#fefcfd"
   id="path28966"
   style="stroke-width:0.327757" />
<path
   d="m 163.58994,115.23679 c 1.13306,5.79933 0.64634,7.37289 0.32776,12.9464 -0.061,1.06521 0.23041,1.03178 0.65551,0.16388 -0.69026,1.26449 -1.62502,6.38766 -2.2943,8.19393 -0.28843,0.77842 -0.51491,1.6909 -1.14715,2.2943 -0.28908,-0.55751 -0.16978,-1.34151 -0.16388,-1.96654 0.0233,-2.43917 0.0941,-4.75477 0,-7.21066 -0.19632,-5.1176 -0.49589,-9.40827 -1.31103,-14.42131 -0.32972,-2.02849 -0.5231,-4.04649 -0.98327,-6.06351 -0.32972,-1.44541 -2.43294,-4.6866 -0.81939,-5.40799 2.99046,-0.83054 5.27984,9.13754 5.73575,11.4715 z"
   fill="#1f624b"
   id="path28968"
   style="stroke-width:0.327757" />
<path
   d="m 181.61658,118.84211 c -0.52474,2.92819 -1.76759,6.45027 -2.94981,9.17721 -0.49491,1.14125 0.45525,0.54997 0.32776,0.81939 -0.16061,0.33955 -0.81186,-0.0128 -0.98328,0.32776 -1.10093,2.18515 -2.08715,3.44538 -3.27757,5.40799 -0.27761,0.45787 -0.91051,0.85184 -0.81939,1.31103 0,0 7.37454,-0.98327 7.37454,-0.98327 -2.91639,3.38868 -3.17433,6.94746 -8.84945,6.55514 -1.32938,0.037 -4.02944,-0.25991 -5.08023,0 -1.76498,0.43657 -0.85807,1.74334 -4.75248,1.96654 5.06975,-4.92553 10.32795,-10.36663 12.12701,-17.37113 1.52112,-1.35232 6.52106,-7.58397 6.8829,-9.34108 0.28613,-1.38969 0.29498,-6.53547 -0.65551,-7.70229 0.38282,-1.34184 0.55915,-2.86656 0.49163,-4.26084 1.29071,4.55418 0.99475,9.45841 0.16388,14.09355 z"
   fill="#2a8166"
   id="path28970"
   style="stroke-width:0.327757" />
<path
   d="m 146.87433,116.87557 c 4.20315,5.85866 9.53019,7.41584 14.09355,12.78253 0.0941,2.45589 0.0233,4.77149 0,7.21066 -2.56568,-3.98127 -5.35031,-7.87371 -10.16047,-9.34108 1.25302,6.20674 5.66069,10.90841 9.1772,15.89622 -1.24744,-0.33792 -3.16875,-1.87248 -3.76921,-1.96654 -1.69614,-0.26614 -6.29097,0.49688 -8.68556,0.32776 -1.37429,-2.37493 -3.97045,-4.16318 -4.5886,-6.8829 0.96361,0.43296 4.06583,0.87675 5.24411,0.98327 0.63192,0.057 2.17139,0.79219 2.2943,-0.16388 -1.78365,-2.45458 -3.60139,-4.9688 -4.91635,-7.70229 -1.32086,-2.7453 -2.72334,-6.18413 -3.27757,-9.17721 -0.78269,-4.22741 -0.9328,-8.51316 -0.16388,-12.78252 0.65649,4.33491 2.27365,7.36109 4.75248,10.81598 z"
   fill="#287e65"
   id="path28972"
   style="stroke-width:0.327757" />
<path
   d="m 174.73368,126.05277 c -4.34966,3.86688 -10.62916,5.54664 -11.63538,12.78253 0,0 -0.81939,-2.2943 -0.81939,-2.2943 0.66928,-1.80627 1.60404,-6.92944 2.2943,-8.19393 1.87084,-3.42735 9.21719,-6.62168 12.45477,-11.14374 1.76956,-2.47195 3.09796,-5.26706 3.93309,-8.19393 0.95049,1.16682 0.94164,6.3126 0.65551,7.70229 -0.36184,1.75711 -5.36178,7.98876 -6.8829,9.34108 z"
   fill="#24765d"
   id="path28974"
   style="stroke-width:0.327757" />
<path
   d="m 43.139193,110.32043 c 4.01863,-0.87478 5.088102,5.15988 1.966542,5.89963 -4.506005,1.06783 -4.994363,-5.24051 -1.966542,-5.89963 z"
   fill="#fba728"
   id="path28976"
   style="stroke-width:0.327757" />
<path
   d="m 192.10481,129.00259 c -0.56309,1.51456 -3.19399,5.96977 -4.26084,7.21065 -5.24575,6.1012 -8.35879,5.04681 -15.40459,5.24412 5.67512,0.39232 5.93306,-3.16646 8.84945,-6.55514 0.80267,-0.9328 1.49883,-1.99998 2.2943,-2.94982 2.70563,-3.23168 7.99793,-6.74688 7.86617,-11.4715 1.01703,-1.71712 1.45524,-3.93374 2.2943,-5.73575 0.12782,4.82295 0.0616,9.68555 -1.63879,14.25744 z"
   fill="#257058"
   id="path28978"
   style="stroke-width:0.327757" />
<path
   d="m 279.45209,114.58127 c 4.04584,-0.8325 5.60268,5.37686 1.96654,6.22739 -4.71839,1.10388 -5.51353,-5.49747 -1.96654,-6.22739 z"
   fill="#fdb125"
   id="path28980"
   style="stroke-width:0.327757" />
<path
   d="m 159.65685,115.23679 c 0.81514,5.01304 1.11471,9.30371 1.31103,14.42131 -4.56336,-5.36669 -9.8904,-6.92387 -14.09355,-12.78253 0,0 12.78252,-1.63878 12.78252,-1.63878 z"
   fill="#fdfdfd"
   id="path28982"
   style="stroke-width:0.327757" />
<path
   d="m 177.02798,117.20333 c -3.23758,4.52206 -10.58393,7.71639 -12.45477,11.14374 -0.4251,0.8679 -0.71648,0.90133 -0.65551,-0.16388 0.31858,-5.57351 0.8053,-7.14707 -0.32776,-12.9464 0,0 13.43804,1.96654 13.43804,1.96654 z"
   fill="#fdfefd"
   id="path28984"
   style="stroke-width:0.327757" />
<path
   d="m 133.43628,121.79193 c 3.10517,3.88818 6.91764,6.46534 12.12702,6.22739 1.31496,2.73349 3.1327,5.24771 4.91635,7.70229 -0.12291,0.95607 -1.66238,0.22091 -2.2943,0.16388 0.96197,-2.01571 -5.90946,-3.49979 -7.21065,-3.27757 -3.82952,-3.40049 -7.32275,-7.78883 -10.16048,-11.63538 -0.0708,-0.096 -0.18452,-2.23203 -1.31102,-1.47491 -0.0305,-0.60537 -0.10784,-3.801 0.16387,-3.93309 0.98131,2.35527 2.17926,4.23659 3.76921,6.22739 z"
   fill="#2d8f75"
   id="path28986"
   style="stroke-width:0.327757" />
<path
   d="m 142.28573,118.84211 c 0.55423,2.99308 1.95671,6.43191 3.27757,9.17721 -5.20938,0.23795 -9.02185,-2.33921 -12.12702,-6.22739 0,0 8.84945,-2.94982 8.84945,-2.94982 z"
   fill="#fdfdfc"
   id="path28988"
   style="stroke-width:0.327757" />
<path
   d="m 189.81051,122.11969 c -3.06223,3.80526 -6.10939,5.83014 -11.14374,5.89963 1.18222,-2.72694 2.42507,-6.24902 2.94981,-9.17721 0,0 8.19393,3.27758 8.19393,3.27758 z"
   fill="#fdfefe"
   id="path28990"
   style="stroke-width:0.327757" />
<path
   d="m 140.9747,132.60792 c 0.38511,0.34217 0.77154,1.7571 1.96654,2.2943 0.61815,2.71972 3.21431,4.50797 4.5886,6.8829 -5.41946,-0.38315 -7.90091,-1.47327 -11.4715,-5.57188 -1.17173,-1.34478 -3.98487,-5.36276 -4.5886,-6.8829 -0.92067,-2.31724 -1.8397,-7.31521 -1.96654,-9.83271 1.1265,-0.75712 1.24023,1.37887 1.31102,1.47491 2.83773,3.84655 6.33096,8.23489 10.16048,11.63538 z"
   fill="#26735a"
   id="path28992"
   style="stroke-width:0.327757" />
<path
   d="m 183.58313,131.9524 c 0,0 -8.84945,2.62206 -8.84945,2.62206 1.19042,-1.96261 2.17664,-3.22284 3.27757,-5.40799 0.17142,-0.34054 0.82267,0.0118 0.98328,-0.32776 0.12749,-0.26942 -0.82267,0.32186 -0.32776,-0.81939 5.03435,-0.0695 8.08151,-2.09437 11.14374,-5.89963 0.27663,-0.34349 1.39854,-1.23303 1.63879,-1.63879 0.13176,4.72462 -5.16054,8.23982 -7.86617,11.4715 z"
   fill="#2c8d72"
   id="path28994"
   style="stroke-width:0.327757" />
<path
   d="m 35.928535,125.72502 c 12.64913,-2.30774 17.63432,15.27086 4.5886,16.38785 -12.629466,1.08127 -13.004191,-14.85264 -4.5886,-16.38785 z m -0.327757,2.62205 c -2.105512,-0.02 -2.995045,3.68563 -1.311028,4.26085 3.810504,1.30119 3.893099,-4.23659 1.311028,-4.26085 z"
   fill="#f89b2c"
   id="path28996"
   style="stroke-width:0.327757" />
<path
   d="m 162.60667,143.4239 c -1.20189,0.0688 -0.99147,0.44182 -2.62206,0 -3.51651,-4.98781 -7.92418,-9.68948 -9.1772,-15.89622 4.81016,1.46737 7.59479,5.35981 10.16047,9.34108 -0.006,0.62503 -0.1252,1.40903 0.16388,1.96654 0.63224,-0.6034 0.85872,-1.51588 1.14715,-2.2943 0,0 0.81939,2.2943 0.81939,2.2943 1.00622,-7.23589 7.28572,-8.91565 11.63538,-12.78253 -1.79906,7.0045 -7.05726,12.4456 -12.12701,17.37113 z"
   fill="#369e82"
   id="path28998"
   style="stroke-width:0.327757" />
<path
   d="m 282.40191,128.01932 c 14.37903,-0.92625 13.89231,18.57399 1.96654,19.33767 -13.07915,0.83774 -15.89295,-18.4406 -1.96654,-19.33767 z m -3.60533,2.94981 c -3.80854,-0.4782 -4.90915,8.07462 1.4749,3.76921 0.10718,-0.98295 -0.27269,-3.61811 -1.4749,-3.76921 z"
   fill="#fdb423"
   id="path29000"
   style="stroke-width:0.327757" />
<path
   d="m 35.600778,128.34707 c 2.582071,0.0243 2.499476,5.56204 -1.311028,4.26085 -1.684017,-0.57522 -0.794484,-4.28084 1.311028,-4.26085 z"
   fill="#fefdfa"
   id="path29002"
   style="stroke-width:0.327757" />
<path
   d="m 278.79658,130.96913 c 1.20221,0.1511 1.58208,2.78626 1.4749,3.76921 -6.38405,4.30541 -5.28344,-4.24741 -1.4749,-3.76921 z"
   fill="#fefdfa"
   id="path29004"
   style="stroke-width:0.327757" />
<path
   d="m 183.58313,131.9524 c -0.79547,0.94984 -1.49163,2.01702 -2.2943,2.94982 0,0 -7.37454,0.98327 -7.37454,0.98327 -0.0911,-0.45919 0.54178,-0.85316 0.81939,-1.31103 0,0 8.84945,-2.62206 8.84945,-2.62206 z"
   fill="#369f80"
   id="path29006"
   style="stroke-width:0.327757" />
<path
   d="m 148.18535,135.88549 c -1.17828,-0.10652 -4.2805,-0.55031 -5.24411,-0.98327 -1.195,-0.5372 -1.58143,-1.95213 -1.96654,-2.2943 1.30119,-0.22222 8.17262,1.26186 7.21065,3.27757 z"
   fill="#369d7e"
   id="path29008"
   style="stroke-width:0.327757" />
<path
   d="m 147.52984,141.78512 c 2.39459,0.16912 6.98942,-0.5939 8.68556,-0.32776 0.60046,0.0941 2.52177,1.62862 3.76921,1.96654 1.63059,0.44182 1.42017,0.0688 2.62206,0 3.89441,-0.2232 2.9875,-1.52997 4.75248,-1.96654 1.05079,-0.25991 3.75085,0.037 5.08023,0 7.0458,-0.19731 10.15884,0.85708 15.40459,-5.24412 19.04367,9.30962 16.78051,28.39 10.48823,45.39437 -4.41161,11.92217 -12.09785,23.26027 -21.63197,31.62856 -6.75639,2.25825 -8.33356,6.12218 -17.53501,5.24412 -6.05532,-0.57784 -8.70785,-3.9675 -13.27417,-5.89963 -18.17085,-16.13417 -41.73954,-62.13489 -9.83271,-76.36742 3.57059,4.09861 6.05204,5.18873 11.4715,5.57188 z m -8.35781,0.32775 c -1.10192,0.24287 -5.35129,4.17825 -4.91636,5.89963 0,0 6.06351,-5.73575 6.06351,-5.73575 -0.1665,-0.23795 -0.86921,-0.22517 -1.14715,-0.16388 z m 44.24722,0 c -0.20157,0.99147 3.99011,5.10384 4.26084,4.91636 0.26647,-2.38542 -2.11469,-4.44242 -4.26084,-4.91636 z m -53.75218,5.24412 c -2.33002,-0.41429 -5.07695,11.19585 -2.94981,11.79925 2.06651,0.58636 1.20451,-5.44371 1.47491,-6.39126 0.0908,-0.31792 4.66103,-4.84163 1.4749,-5.40799 z m 34.74226,0 c -0.39986,0.30514 0.63126,4.5945 0.98327,4.5886 1.09832,-0.91182 0.43264,-5.66856 -0.98327,-4.5886 z m -6.8829,0.32775 c 0,0 -0.32775,4.5886 -0.32775,4.5886 1.45327,-0.46312 1.51981,-4.82983 0.32775,-4.5886 z m -7.86617,0.98328 c 0.1039,0.6542 -1.17829,6.37586 0.32776,5.89962 0.56145,-0.17764 1.65026,-5.79048 -0.32776,-5.89962 z m 21.95973,0.98327 c -0.53392,0.68337 0.43624,5.49419 0.98327,5.57187 1.69418,-1.19271 0.0731,-4.32541 -0.98327,-5.57187 z m -29.49814,0.32775 c -0.53916,0.14356 -2.03603,5.96256 -0.65552,6.55515 1.82954,-1.46377 0.69026,-3.82067 1.47491,-5.73575 0.0652,-0.43199 -0.42543,-0.92428 -0.81939,-0.8194 z m -7.86618,0.98328 c -1.58994,0.59324 -2.60534,6.70558 -0.98327,6.55514 0.87512,-0.0813 1.29989,-5.50665 0.98327,-6.55514 z m 45.23049,0.65551 c 0,0 0.98327,6.55514 0.98327,6.55514 1.86134,-0.61028 0.27794,-7.27719 -0.98327,-6.55514 z m 9.34108,5.24411 c 0.92886,3.23235 2.35526,-0.93148 0.98327,-3.60532 -0.21697,-0.42248 -0.33955,-1.63224 -1.31103,-1.14715 0.10095,1.47392 -0.0764,3.3464 0.32776,4.75247 z m 7.04678,-2.94981 c -1.02195,1.60798 -1.60962,4.47225 0.65551,5.24411 1.07472,-0.38413 0.21534,-5.45289 -0.65551,-5.24411 z m -34.4145,0.65551 c 0.14847,0.77286 -1.21959,5.48568 0.32776,4.91636 0.81939,-0.30154 0.37987,-4.29034 -0.32776,-4.91636 z m -7.53842,1.31103 c -0.63847,0.23894 -0.53358,3.26315 0.32776,3.60533 0.23205,-0.6129 1.19959,-4.17661 -0.32776,-3.60533 z m 14.74908,0.32776 c 0,0 0,4.26084 0,4.26084 1.25236,-1.24384 0.46312,-2.82952 0,-4.26084 z m -22.943,1.63879 c -0.35005,0.28809 -0.31269,3.62925 0.32775,4.26084 0.74729,0.007 0.85381,-5.23297 -0.32775,-4.26084 z m 30.48141,0.98327 c 0,0 -0.32776,4.26084 -0.32776,4.26084 1.11405,0.61159 1.65682,-3.78625 0.32776,-4.26084 z m -39.98637,0.98327 c 0.10619,1.73023 -1.25695,4.11597 0.32775,5.24411 0.66797,-0.0957 0.97312,-4.98977 -0.32775,-5.24411 z m 50.4746,0.98327 c 0,0 -0.32776,4.26084 -0.32776,4.26084 1.70008,-0.88625 1.41427,-2.76987 0.32776,-4.26084 z m -56.04647,2.62206 c -0.85643,0.12225 -1.02228,4.11958 0.65551,4.26084 0.18944,-1.38641 0.64863,-3.34116 -0.65551,-4.26084 z m 61.61834,0.32775 c -0.42641,0.13406 -0.9505,3.26971 -0.65551,3.93309 0.99507,0.56505 2.018,-4.36146 0.65551,-3.93309 z m -35.07001,0.98328 c -0.79252,0.005 -0.77286,6.02352 0.32775,5.89962 0.96361,-0.80071 0.40708,-5.90421 -0.32775,-5.89962 z m 8.52168,0 c 0,0 0.32776,5.57187 0.32776,5.57187 0.85971,-0.0239 0.86593,-4.85146 -0.32776,-5.57187 z m -16.38786,0.98327 c -0.63879,0.0701 -0.90493,5.47256 0.32776,5.89963 0.67387,-0.0488 0.84725,-6.02844 -0.32776,-5.89963 z m -8.84944,0.98327 c -0.006,1.88985 -1.24253,4.0927 0.32776,5.57187 0.89183,-0.0452 0.57357,-5.02157 -0.32776,-5.57187 z m -13.7658,0.32776 c -1.07209,-0.008 -0.12389,5.75377 1.31103,5.89962 0,0 -1.31103,-5.89962 -1.31103,-5.89962 z m 55.71872,0 c 0,0 -0.65552,6.22738 -0.65552,6.22738 0.69649,0.41986 1.98785,-5.43323 0.65552,-6.22738 z m 13.7658,0.32775 c 0,0 -0.98328,5.57187 -0.98328,5.57187 0.63094,0.21042 2.70793,-5.19036 0.98328,-5.57187 z m -23.59852,0.98327 c -0.25139,0.76761 -0.10226,5.24707 0.65552,5.24412 1.48736,-0.68403 0.39855,-5.5899 -0.65552,-5.24412 z m -9.83271,2.94982 c -0.58439,-0.009 -1.10356,4.85244 -0.32776,5.24411 1.28087,0.64667 0.93607,-5.23526 0.32776,-5.24411 z m -27.85936,0.65551 c -0.67813,2.74104 -0.87937,4.83114 1.31103,6.8829 0.0259,-1.97375 -0.041,-5.45584 -1.31103,-6.8829 z m 10.16047,0.32776 c -0.19239,1.88559 -1.3874,4.38932 0.65552,5.57187 0.42542,-0.33202 0.25138,-4.94127 -0.65552,-5.57187 z m 32.77572,0.32776 c 0,0 -0.32776,5.89963 -0.32776,5.89963 1.21467,-1.43755 1.88985,-4.58434 0.32776,-5.89963 z m 9.83271,0 c 0,0 -0.98327,5.89963 -0.98327,5.89963 0.58505,0.3484 2.61681,-5.07991 0.98327,-5.89963 z m -34.08674,0.98327 c -0.36971,2.18778 -0.25336,4.52534 0.65551,6.55514 1.11569,0.0993 0.81251,-6.2087 -0.65551,-6.55514 z m 15.07683,1.96654 c -0.4746,-0.0118 -1.19173,4.91275 -0.32776,4.91636 0.84332,-0.52507 1.07406,-4.898 0.32776,-4.91636 z m -38.01983,2.2943 c -0.34579,1.79185 -0.14586,4.70463 1.63878,5.57187 0.51458,-0.41461 -0.82857,-5.08253 -1.63878,-5.57187 z m 61.29058,0.65552 c 0,0 -1.31103,5.57187 -1.31103,5.57187 0.627,0.411 2.93605,-4.62892 1.31103,-5.57187 z m -41.62515,1.96654 c -0.16061,1.82921 -0.68534,4.16448 0.65551,5.57187 1.19336,0.11865 0.7604,-5.36047 -0.65551,-5.57187 z m 11.14374,0.32776 c 0,0 -0.32776,5.57187 -0.32776,5.57187 1.05636,-1.33037 1.26777,-3.97373 0.32776,-5.57187 z m 10.81598,0.65551 c -0.52473,0.25467 -0.68402,4.16776 -0.32775,4.91636 1.10061,-0.36512 1.68893,-5.57712 0.32775,-4.91636 z m -30.48141,0.32776 c -1.35626,0.48409 0.64535,4.8449 1.96654,4.91635 0.5703,-0.41821 -0.85675,-5.31228 -1.96654,-4.91635 z m 39.0031,0.65551 c 0,0 -1.31103,5.24412 -1.31103,5.24412 1.59651,0.099 2.24022,-5.25035 1.31103,-5.24412 z m -22.45136,9.50496 c 1.2045,-0.0111 0.98556,-3.78658 0.65551,-4.5886 -0.0973,-0.23664 -0.68534,-1.14945 -0.98327,-0.81939 -0.0521,2.19761 -2.18155,3.66072 0.32776,5.40799 z m -20.81258,-4.26084 c -0.52015,1.98293 0.70402,4.6902 2.62205,5.57187 1.10455,-0.18125 -1.66795,-5.34441 -2.62205,-5.57187 z m 47.52478,0 c 0,0 -2.2943,5.57187 -2.2943,5.57187 2.35461,-0.5054 3.66957,-3.42769 2.2943,-5.57187 z m -20.32094,1.96654 c 0.0387,0.66862 -0.87708,4.46045 -0.65551,4.5886 1.36248,0.78858 1.97932,-3.98422 0.65551,-4.5886 z m -18.02664,1.96654 c -0.93018,0.0452 -0.41691,5.74624 1.31103,5.57187 1.59683,-0.16093 -0.19109,-4.82917 -1.31103,-5.57187 z m 6.22738,0.32776 c -0.039,1.19402 1.15207,7.25654 1.96655,7.21066 1.4513,-2.3651 -0.31301,-5.43127 -1.96655,-7.21066 z m 20.81258,3.60533 c -0.6719,3.68727 3.13893,2.05897 1.96654,-1.31103 0.59521,-0.87905 0.92002,-0.83906 0.16388,-1.96654 -1.01834,0.90919 -1.87411,1.87083 -2.13042,3.27757 z m -5.73575,-0.98327 c -0.23828,0.009 -1.85642,4.23265 -1.31103,4.5886 1.16649,-0.28319 2.7961,-4.64629 1.31103,-4.5886 z m -25.89281,5.24411 c 0.13667,1.72368 0.95082,3.54896 2.62205,4.26084 0.83185,-0.47688 -2.07765,-4.55254 -2.62205,-4.26084 z m 38.34758,0.32776 c -0.55423,0.33038 -3.75741,4.15334 -2.2943,4.26084 0.8974,-0.18715 3.21596,-3.65449 2.2943,-4.26084 z m -20.97645,0.65551 c -0.69321,0.42838 2.52864,3.50405 1.4749,5.73575 0,0 -1.31103,0 -1.31103,0 0,0 1.47491,1.14715 1.47491,1.14715 1.88362,-0.91378 0.22222,-8.033 -1.63878,-6.8829 z m -8.52169,0.65552 c -0.6742,0.37167 1.66075,4.79967 2.94981,4.5886 1.35823,-0.23959 -2.14681,-4.54305 -2.94981,-4.5886 z m 19.66543,0.65551 c -0.45362,-0.0347 -3.20907,3.84 -1.96654,3.93309 1.02391,0.13962 3.37884,-3.82526 1.96654,-3.93309 z m -9.1772,7.86617 c 0,0 0.32776,4.26085 0.32776,4.26085 0.49983,-0.009 0.99965,-3.88852 -0.32776,-4.26085 z"
   fill="url(#grad39)"
   id="path29010"
   style="fill:url(#grad39);stroke-width:0.327757" />

/&gt;
<path
   d="m 139.17203,142.11287 c 0.27794,-0.0613 0.98065,-0.0741 1.14715,0.16388 0,0 -6.06351,5.73575 -6.06351,5.73575 -0.43493,-1.72138 3.81444,-5.65676 4.91636,-5.89963 z"
   fill="#d0809e"
   id="path29012"
   style="stroke-width:0.327757" />
<path
   d="m 183.41925,142.11287 c 2.14615,0.47394 4.52731,2.53094 4.26084,4.91636 -0.27073,0.18748 -4.46241,-3.92489 -4.26084,-4.91636 z"
   fill="#ac5e8b"
   id="path29014"
   style="stroke-width:0.327757" />
<path
   d="m 129.66707,147.35699 c 3.18613,0.56636 -1.38411,5.09007 -1.4749,5.40799 -0.2704,0.94755 0.5916,6.97762 -1.47491,6.39126 -2.12714,-0.6034 0.61979,-12.21354 2.94981,-11.79925 z"
   fill="#c26994"
   id="path29016"
   style="stroke-width:0.327757" />
<path
   d="m 164.40933,147.35699 c 1.41591,-1.07996 2.08159,3.67678 0.98327,4.5886 -0.35201,0.006 -1.38313,-4.28346 -0.98327,-4.5886 z"
   fill="#c87f9f"
   id="path29018"
   style="stroke-width:0.327757" />
<path
   d="m 157.52643,147.68474 c 1.19206,-0.24123 1.12552,4.12548 -0.32775,4.5886 0,0 0.32775,-4.5886 0.32775,-4.5886 z"
   fill="#c97f9b"
   id="path29020"
   style="stroke-width:0.327757" />
<path
   d="m 28.717878,148.0125 c 4.07271,-0.98196 4.559758,5.07827 1.638786,5.57187 -3.530994,0.59652 -4.420887,-4.90095 -1.638786,-5.57187 z"
   fill="#2b5aa5"
   id="path29022"
   style="stroke-width:0.327757" />
<path
   d="m 149.66026,148.66802 c 1.97802,0.10914 0.88921,5.72198 0.32776,5.89962 -1.50605,0.47624 -0.22386,-5.24542 -0.32776,-5.89962 z"
   fill="#cb7c99"
   id="path29024"
   style="stroke-width:0.327757" />
<path
   d="m 171.61999,149.65129 c 1.05636,1.24646 2.67745,4.37916 0.98327,5.57187 -0.54703,-0.0777 -1.51719,-4.8885 -0.98327,-5.57187 z"
   fill="#c37698"
   id="path29026"
   style="stroke-width:0.327757" />
<path
   d="m 142.12185,149.97904 c 0.39396,-0.10488 0.88461,0.38741 0.81939,0.8194 -0.78465,1.91508 0.35463,4.27198 -1.47491,5.73575 -1.38051,-0.59259 0.11636,-6.41159 0.65552,-6.55515 z"
   fill="#cc7e9b"
   id="path29028"
   style="stroke-width:0.327757" />
<path
   d="m 279.94373,162.10606 c -0.98,-0.003 -1.96982,0.003 -2.94982,0 -6.31031,-0.60799 -6.71935,-11.06476 -0.49163,-12.12702 7.33192,-1.25039 10.28502,9.44302 3.44145,12.12702 z"
   fill="#feb523"
   id="path29030"
   style="stroke-width:0.327757" />
<path
   d="m 134.25567,150.96232 c 0.31662,1.04849 -0.10815,6.47385 -0.98327,6.55514 -1.62207,0.15044 -0.60667,-5.9619 0.98327,-6.55514 z"
   fill="#cf7c9d"
   id="path29032"
   style="stroke-width:0.327757" />
<path
   d="m 291.25135,150.96232 c 4.48634,-0.92297 5.4211,6.08972 1.31103,6.55514 -4.35524,0.49327 -4.79378,-5.83867 -1.31103,-6.55514 z"
   fill="#fdb323"
   id="path29034"
   style="stroke-width:0.327757" />
<path
   d="m 179.48616,151.61783 c 1.26121,-0.72205 2.84461,5.94486 0.98327,6.55514 0,0 -0.98327,-6.55514 -0.98327,-6.55514 z"
   fill="#a85e8d"
   id="path29036"
   style="stroke-width:0.327757" />
<path
   d="m 189.81051,153.25662 c -0.87183,1.08684 1.13273,3.44046 -0.98327,3.60532 -0.40412,-1.40607 -0.22681,-3.27855 -0.32776,-4.75247 0.97148,-0.48509 1.09406,0.72467 1.31103,1.14715 z"
   fill="#974c82"
   id="path29038"
   style="stroke-width:0.327757" />
<path
   d="m 188.82724,156.86194 c 2.116,-0.16486 0.11144,-2.51848 0.98327,-3.60532 1.37199,2.67384 -0.0544,6.83767 -0.98327,3.60532 z"
   fill="#c47d9d"
   id="path29040"
   style="stroke-width:0.327757" />
<path
   d="m 195.87402,153.91213 c 0.87085,-0.20878 1.73023,4.85998 0.65551,5.24411 -2.26513,-0.77186 -1.67746,-3.63613 -0.65551,-5.24411 z"
   fill="#873c7a"
   id="path29042"
   style="stroke-width:0.327757" />
<path
   d="m 161.45952,154.56764 c 0.70763,0.62602 1.14715,4.61482 0.32776,4.91636 -1.54735,0.56932 -0.17929,-4.1435 -0.32776,-4.91636 z"
   fill="#c3799c"
   id="path29044"
   style="stroke-width:0.327757" />
<path
   d="m 153.9211,155.87867 c 1.52735,-0.57128 0.55981,2.99243 0.32776,3.60533 -0.86134,-0.34218 -0.96623,-3.36639 -0.32776,-3.60533 z"
   fill="#cc819d"
   id="path29046"
   style="stroke-width:0.327757" />
<path
   d="m 168.67018,156.20643 c 0.46312,1.43132 1.25236,3.017 0,4.26084 0,0 0,-4.26084 0,-4.26084 z"
   fill="#bc6d92"
   id="path29048"
   style="stroke-width:0.327757" />
<path
   d="m 145.72718,157.84522 c 1.18156,-0.97213 1.07504,4.26739 0.32775,4.26084 -0.64044,-0.63159 -0.6778,-3.97275 -0.32775,-4.26084 z"
   fill="#c67a98"
   id="path29050"
   style="stroke-width:0.327757" />
<path
   d="m 176.20859,158.82849 c 1.32906,0.47459 0.78629,4.87243 -0.32776,4.26084 0,0 0.32776,-4.26084 0.32776,-4.26084 z"
   fill="#bd7799"
   id="path29052"
   style="stroke-width:0.327757" />
<path
   d="m 136.22222,159.81176 c 1.30087,0.25434 0.99572,5.14841 0.32775,5.24411 -1.5847,-1.12814 -0.22156,-3.51388 -0.32775,-5.24411 z"
   fill="#d4879f"
   id="path29054"
   style="stroke-width:0.327757" />
<path
   d="m 186.69682,160.79503 c 1.08651,1.49097 1.37232,3.37459 -0.32776,4.26084 0,0 0.32776,-4.26084 0.32776,-4.26084 z"
   fill="#b46a92"
   id="path29056"
   style="stroke-width:0.327757" />
<path
   d="m 279.94373,162.10606 c 9.09198,0.0246 18.25214,0.66272 27.36772,0.32776 0,0 -9.01332,12.61865 -9.01332,12.61865 0,0 8.84944,12.78252 8.84944,12.78252 0,0 -30.97305,0.49164 -30.97305,0.49164 0,0 -1.80266,-0.81939 -1.80266,-0.81939 0,0 -0.16388,-9.9966 -0.16388,-9.9966 0,0 -55.71872,0 -55.71872,0 0,0 -1.4749,-14.58519 -1.4749,-14.58519 19.94631,-0.50868 40.03127,-0.86954 59.97955,-0.81939 0.98,0.003 1.96982,-0.003 2.94982,0 z"
   fill="#ffbf25"
   id="path29058"
   style="stroke-width:0.327757" />
<path
   d="m 17.574135,162.43382 c 0,0 89.641575,0.49163 89.641575,0.49163 0,0 -1.47491,14.58519 -1.47491,14.58519 0,0 -55.063195,0 -55.063195,0 0,0 -0.65551,10.48823 -0.65551,10.48823 0,0 -32.44796,0 -32.44796,0 0,0 8.685564,-12.9464 8.685564,-12.9464 0,0 -8.685564,-12.61865 -8.685564,-12.61865 z"
   fill="url(#grad64)"
   id="path29060"
   style="fill:url(#grad64);stroke-width:0.327757" />

/&gt;
<path
   d="m 130.65035,163.41709 c 1.30414,0.91968 0.84495,2.87443 0.65551,4.26084 -1.67779,-0.14126 -1.51194,-4.13859 -0.65551,-4.26084 z"
   fill="#cb7899"
   id="path29062"
   style="stroke-width:0.327757" />
<path
   d="m 192.26869,163.74484 c 1.36249,-0.42837 0.33956,4.49814 -0.65551,3.93309 -0.29499,-0.66338 0.2291,-3.79903 0.65551,-3.93309 z"
   fill="#975383"
   id="path29064"
   style="stroke-width:0.327757" />
<path
   d="m 157.19868,164.72812 c 0.73483,-0.005 1.29136,5.09891 0.32775,5.89962 -1.10061,0.1239 -1.12027,-5.89471 -0.32775,-5.89962 z"
   fill="#c77b9a"
   id="path29066"
   style="stroke-width:0.327757" />
<path
   d="m 165.72036,164.72812 c 1.19369,0.72041 1.18747,5.54794 0.32776,5.57187 0,0 -0.32776,-5.57187 -0.32776,-5.57187 z"
   fill="#c27a97"
   id="path29068"
   style="stroke-width:0.327757" />
<path
   d="m 149.3325,165.71139 c 1.17501,-0.12881 1.00163,5.85079 0.32776,5.89963 -1.23269,-0.42707 -0.96655,-5.82949 -0.32776,-5.89963 z"
   fill="#c67b9b"
   id="path29070"
   style="stroke-width:0.327757" />
<path
   d="m 140.48306,166.69466 c 0.90133,0.5503 1.21959,5.52664 0.32776,5.57187 -1.57029,-1.47917 -0.33399,-3.68202 -0.32776,-5.57187 z"
   fill="#c97a99"
   id="path29072"
   style="stroke-width:0.327757" />
<path
   d="m 126.71726,167.02242 c 0,0 1.31103,5.89962 1.31103,5.89962 -1.43492,-0.14585 -2.38312,-5.90749 -1.31103,-5.89962 z"
   fill="#cb7c9d"
   id="path29074"
   style="stroke-width:0.327757" />
<path
   d="m 182.43598,167.02242 c 1.33233,0.79415 0.041,6.64724 -0.65552,6.22738 0,0 0.65552,-6.22738 0.65552,-6.22738 z"
   fill="#b46c95"
   id="path29076"
   style="stroke-width:0.327757" />
<path
   d="m 196.20178,167.35017 c 1.72465,0.38151 -0.35234,5.78229 -0.98328,5.57187 0,0 0.98328,-5.57187 0.98328,-5.57187 z"
   fill="#b06b96"
   id="path29078"
   style="stroke-width:0.327757" />
<path
   d="m 172.60326,168.33344 c 1.05407,-0.34578 2.14288,4.56009 0.65552,5.24412 -0.75778,0.003 -0.90691,-4.47651 -0.65552,-5.24412 z"
   fill="#b97095"
   id="path29080"
   style="stroke-width:0.327757" />
<path
   d="m 162.77055,171.28326 c 0.60831,0.009 0.95311,5.89078 -0.32776,5.24411 -0.7758,-0.39167 -0.25663,-5.25263 0.32776,-5.24411 z"
   fill="#bc7097"
   id="path29082"
   style="stroke-width:0.327757" />
<path
   d="m 134.91119,171.93877 c 1.27006,1.42706 1.33692,4.90915 1.31103,6.8829 -2.1904,-2.05176 -1.98916,-4.14186 -1.31103,-6.8829 z"
   fill="#c47497"
   id="path29084"
   style="stroke-width:0.327757" />
<path
   d="m 145.07166,172.26653 c 0.9069,0.6306 1.08094,5.23985 0.65552,5.57187 -2.04292,-1.18255 -0.84791,-3.68628 -0.65552,-5.57187 z"
   fill="#cb7e9c"
   id="path29086"
   style="stroke-width:0.327757" />
<path
   d="m 177.84738,172.59429 c 1.56209,1.31529 0.88691,4.46208 -0.32776,5.89963 0,0 0.32776,-5.89963 0.32776,-5.89963 z"
   fill="#b46e95"
   id="path29088"
   style="stroke-width:0.327757" />
<path
   d="m 187.68009,172.59429 c 1.63354,0.81972 -0.39822,6.24803 -0.98327,5.89963 0,0 0.98327,-5.89963 0.98327,-5.89963 z"
   fill="#a9608e"
   id="path29090"
   style="stroke-width:0.327757" />
<path
   d="m 153.59335,173.57756 c 1.46802,0.34644 1.7712,6.65445 0.65551,6.55514 -0.90887,-2.0298 -1.02522,-4.36736 -0.65551,-6.55514 z"
   fill="#c57899"
   id="path29092"
   style="stroke-width:0.327757" />
<path
   d="m 168.67018,175.5441 c 0.7463,0.0184 0.51556,4.39129 -0.32776,4.91636 -0.86397,-0.004 -0.14684,-4.92816 0.32776,-4.91636 z"
   fill="#bd7698"
   id="path29094"
   style="stroke-width:0.327757" />
<path
   d="m 130.65035,177.8384 c 0.81021,0.48934 2.15336,5.15726 1.63878,5.57187 -1.78464,-0.86724 -1.98457,-3.78002 -1.63878,-5.57187 z"
   fill="#c87b99"
   id="path29096"
   style="stroke-width:0.327757" />
<path
   d="m 191.94093,178.49392 c 1.62502,0.94295 -0.68403,5.98287 -1.31103,5.57187 0,0 1.31103,-5.57187 1.31103,-5.57187 z"
   fill="#a45b8b"
   id="path29098"
   style="stroke-width:0.327757" />
<path
   d="m 150.31578,180.46046 c 1.41591,0.2114 1.84887,5.69052 0.65551,5.57187 -1.34085,-1.40739 -0.81612,-3.74266 -0.65551,-5.57187 z"
   fill="#c47597"
   id="path29100"
   style="stroke-width:0.327757" />
<path
   d="m 161.45952,180.78822 c 0.94001,1.59814 0.7286,4.2415 -0.32776,5.57187 0,0 0.32776,-5.57187 0.32776,-5.57187 z"
   fill="#c47c9d"
   id="path29102"
   style="stroke-width:0.327757" />
<path
   d="m 172.2755,181.44373 c 1.36118,-0.66076 0.77286,4.55124 -0.32775,4.91636 -0.35627,-0.7486 -0.19698,-4.66169 0.32775,-4.91636 z"
   fill="#ae6190"
   id="path29104"
   style="stroke-width:0.327757" />
<path
   d="m 141.79409,181.77149 c 1.10979,-0.39593 2.53684,4.49814 1.96654,4.91635 -1.32119,-0.0714 -3.3228,-4.43226 -1.96654,-4.91635 z"
   fill="#c87799"
   id="path29106"
   style="stroke-width:0.327757" />
<path
   d="m 180.79719,182.427 c 0.92919,-0.006 0.28548,5.3431 -1.31103,5.24412 0,0 1.31103,-5.24412 1.31103,-5.24412 z"
   fill="#b16794"
   id="path29108"
   style="stroke-width:0.327757" />
<path
   d="m 57.232745,183.41027 c 1.313,0.255 7.08906,-0.54604 7.7023,0.49164 0.26712,0.45165 0.70959,6.88487 0.98327,8.19393 22.35468,106.94781 170.307855,107.17134 192.721195,0 0.27368,-1.30906 0.71648,-7.74261 0.98327,-8.19393 0.46739,-0.79055 7.93861,-0.74696 8.19393,0 -6.20805,62.3948 -62.02279,105.63088 -124.38383,95.21345 -37.86513,-6.32538 -70.746385,-35.86778 -82.103165,-72.27045 -0.81054,-2.5978 -5.72887,-22.75782 -4.09697,-23.43464 z"
   fill="#218f91"
   id="path29110"
   style="stroke-width:0.327757" />
<path
   d="m 358,575 c 53.126,115.356 214.786,127.33 289,27 15.426,-20.854 25.207,-40.191 30.5,-66 L 787,536.5 C 768.547,703.282 614.133,816.405 448.5,780 355.458,759.55 275.782,685.004 247,594.5 244.863,587.78 232.308,537.732 236.5,536 h 107 c 4.214,14.117 8.393,25.739 14.5,39 z"
   fill="#1b5ea1"
   id="path29112"
   sodipodi:nodetypes="ccccssccc"
   style="display:none" />
<path
   d="m 72.509796,183.76553 c 5.972589,53.98151 55.951034,90.5955 109.560674,78.81247 30.11444,-6.61896 54.81348,-31.21376 65.21853,-60.03989 0.77491,-2.14679 4.75528,-18.37383 3.39848,-18.93442"
   fill="#1b5ea1"
   id="path29112-9"
   sodipodi:nodetypes="cssc"
   style="display:inline;fill:none;stroke:none;stroke-width:0.323665;stroke-opacity:1" />
<path
   d="m 159.00134,187.34336 c -1.90492,0.51687 0.13733,3.10091 -0.65551,4.5886 -2.50931,-1.74727 -0.37988,-3.21038 -0.32776,-5.40799 0.29793,-0.33006 0.88593,0.58275 0.98327,0.81939 z"
   fill="#a45788"
   id="path29114"
   style="stroke-width:0.327757" />
<path
   d="m 159.00134,187.34336 c 0.33005,0.80202 0.54899,4.57746 -0.65551,4.5886 0.79284,-1.48769 -1.24941,-4.07173 0.65551,-4.5886 z"
   fill="#c77b9c"
   id="path29116"
   style="stroke-width:0.327757" />
<path
   d="m 137.53325,187.67112 c 0.9541,0.22746 3.7266,5.39062 2.62205,5.57187 -1.91803,-0.88167 -3.1422,-3.58894 -2.62205,-5.57187 z"
   fill="#c97b9c"
   id="path29118"
   style="stroke-width:0.327757" />
<path
   d="m 185.05803,187.67112 c 1.37527,2.14418 0.0603,5.06647 -2.2943,5.57187 0,0 2.2943,-5.57187 2.2943,-5.57187 z"
   fill="#90487c"
   id="path29120"
   style="stroke-width:0.327757" />
<path
   d="m 164.73709,189.63766 c 1.32381,0.60438 0.70697,5.37718 -0.65551,4.5886 -0.22157,-0.12815 0.69419,-3.91998 0.65551,-4.5886 z"
   fill="#be739a"
   id="path29122"
   style="stroke-width:0.327757" />
<path
   d="m 146.71045,191.6042 c 1.11994,0.7427 2.90786,5.41094 1.31103,5.57187 -1.72794,0.17437 -2.24121,-5.52664 -1.31103,-5.57187 z"
   fill="#c07296"
   id="path29126"
   style="stroke-width:0.327757" />
<path
   d="m 152.93783,191.93196 c 1.65354,1.77939 3.41785,4.84556 1.96655,7.21066 -0.81448,0.0459 -2.00555,-6.01664 -1.96655,-7.21066 z"
   fill="#c07398"
   id="path29128"
   style="stroke-width:0.327757" />
<path
   d="m 175.71695,194.22626 c -0.15568,0.22976 -1.50112,1.37592 -1.96654,1.31103 0.25631,-1.40674 1.11208,-2.36838 2.13042,-3.27757 0.75614,1.12748 0.43133,1.08749 -0.16388,1.96654 z"
   fill="#b56a94"
   id="path29130"
   style="stroke-width:0.327757" />
<path
   d="m 173.75041,195.53729 c 0.46542,0.0649 1.81086,-1.08127 1.96654,-1.31103 1.17239,3.37 -2.63844,4.9983 -1.96654,1.31103 z"
   fill="#8a3f7a"
   id="path29134"
   style="stroke-width:0.327757" />
<path
   d="m 168.01466,194.55402 c 1.48507,-0.0577 -0.14454,4.30541 -1.31103,4.5886 -0.54539,-0.35595 1.07275,-4.57943 1.31103,-4.5886 z"
   fill="#ad6491"
   id="path29136"
   style="stroke-width:0.327757" />
<path
   d="m 284.36845,197.83159 c 13.6288,-0.63847 13.99261,19.57726 0.98327,19.99318 -13.0254,0.41658 -14.80708,-19.34553 -0.98327,-19.99318 z m -3.93309,2.94981 c -3.55223,-0.29269 -4.87965,7.33062 1.80267,3.76921 0.041,-1.15666 -0.34349,-3.64892 -1.80267,-3.76921 z"
   fill="#405ba2"
   id="path29140"
   style="stroke-width:0.327757" />
<path
   d="m 35.928535,198.15934 c 16.6481,-2.63844 16.41375,22.28847 0,19.66543 -9.867161,-1.57684 -11.07629,-17.90996 0,-19.66543 z m -2.949814,2.94982 c -1.850189,0.38479 -3.050108,4.07828 -1.638786,4.5886 0.242868,0.0878 4.311318,-0.59947 4.424722,-1.47491 0.174039,-1.34446 -0.849875,-3.51618 -2.785936,-3.11369 z"
   fill="#435ba2"
   id="path29142"
   style="stroke-width:0.327757" />
<path
   d="m 142.12185,199.79813 c 0.5444,-0.2917 3.4539,3.78396 2.62205,4.26084 -1.67123,-0.71188 -2.48538,-2.53716 -2.62205,-4.26084 z"
   fill="#c07696"
   id="path29144"
   style="stroke-width:0.327757" />
<path
   d="m 180.46943,200.12589 c 0.92166,0.60635 -1.3969,4.07369 -2.2943,4.26084 -1.46311,-0.1075 1.74007,-3.93046 2.2943,-4.26084 z"
   fill="#9c5986"
   id="path29146"
   style="stroke-width:0.327757" />
<path
   d="m 159.49298,200.7814 c 1.861,-1.1501 3.5224,5.96912 1.63878,6.8829 0,0 -1.47491,-1.14715 -1.47491,-1.14715 0,0 1.31103,0 1.31103,0 1.05374,-2.2317 -2.16811,-5.30737 -1.4749,-5.73575 z"
   fill="#ac628f"
   id="path29148"
   style="stroke-width:0.327757" />
<path
   d="m 280.43536,200.7814 c 1.45918,0.12029 1.84364,2.61255 1.80267,3.76921 -6.68232,3.56141 -5.3549,-4.0619 -1.80267,-3.76921 z"
   fill="#fbfbfe"
   id="path29150"
   style="stroke-width:0.327757" />
<path
   d="m 32.978721,201.10916 c 1.936061,-0.40249 2.959975,1.76923 2.785936,3.11369 -0.113404,0.87544 -4.181854,1.56275 -4.424722,1.47491 -1.411322,-0.51032 -0.211403,-4.20381 1.638786,-4.5886 z"
   fill="#fbfbfe"
   id="path29152"
   style="stroke-width:0.327757" />
<path
   d="m 150.97129,201.43692 c 0.803,0.0456 4.30804,4.34901 2.94981,4.5886 -1.28906,0.21107 -3.62401,-4.21693 -2.94981,-4.5886 z"
   fill="#b66b92"
   id="path29154"
   style="stroke-width:0.327757" />
<path
   d="m 170.63672,202.09243 c 1.4123,0.10783 -0.94263,4.07271 -1.96654,3.93309 -1.24253,-0.0931 1.51292,-3.96783 1.96654,-3.93309 z"
   fill="#954e84"
   id="path29158"
   style="stroke-width:0.327757" />
<path
   d="m 161.45952,209.9586 c 1.32741,0.37233 0.82759,4.25232 0.32776,4.26085 0,0 -0.32776,-4.26085 -0.32776,-4.26085 z"
   fill="#b26d98"
   id="path29164"
   style="stroke-width:0.327757" />
<path
   d="m 48.05555,215.20272 c 6.594805,-0.39495 7.416165,9.48463 2.294295,10.81598 -8.028079,2.0865 -9.618356,-10.37744 -2.294295,-10.81598 z"
   fill="#fa962c"
   id="path29168"
   style="stroke-width:0.327757" />
<path
   d="m 277.48555,226.67422 c 7.01302,-0.67748 8.52595,9.63212 1.63878,10.48823 -8.00448,0.99474 -8.13722,-9.86058 -1.63878,-10.48823 z"
   fill="#fdb124"
   id="path29178"
   style="stroke-width:0.327757" />
<path
   d="m 43.46695,235.52366 c 4.633175,-0.84037 4.228722,6.84029 -0.327757,5.57187 -2.381484,-0.66305 -2.266769,-5.10121 0.327757,-5.57187 z"
   fill="#fcaa29"
   id="path29186"
   style="stroke-width:0.327757" />
<path
   d="m 57.560505,241.75105 c 13.38331,-1.00163 15.145,18.83227 2.62206,20.32094 -14.431803,1.71548 -16.21808,-19.30326 -2.62206,-20.32094 z m -3.27757,2.94981 c -1.959,-0.19797 -3.91834,2.79872 -2.2943,4.5886 0,0 4.09696,-0.81939 4.09696,-0.81939 -0.30678,-1.35528 -0.10947,-3.59812 -1.80266,-3.76921 z"
   fill="#f9932d"
   id="path29194"
   style="stroke-width:0.327757" />
<path
   d="m 264.70302,241.75105 c 13.82054,-1.12421 14.86215,18.77163 3.27757,20.32094 -14.96867,2.00161 -16.45505,-19.24885 -3.27757,-20.32094 z m -2.94981,2.94981 c -1.92066,-0.26974 -4.26511,2.70301 -2.62206,4.5886 0,0 4.09696,-0.49164 4.09696,-0.49164 0.0797,-1.24383 0.057,-3.88195 -1.4749,-4.09696 z"
   fill="#fba529"
   id="path29196"
   style="stroke-width:0.327757" />
<path
   d="m 54.282935,244.70086 c 1.69319,0.17109 1.49588,2.41393 1.80266,3.76921 0,0 -4.09696,0.81939 -4.09696,0.81939 -1.62404,-1.78988 0.3353,-4.78657 2.2943,-4.5886 z"
   fill="#fefcf9"
   id="path29198"
   style="stroke-width:0.327757" />
<path
   d="m 261.75321,244.70086 c 1.53193,0.21501 1.55455,2.85313 1.4749,4.09696 0,0 -4.09696,0.49164 -4.09696,0.49164 -1.64305,-1.88559 0.7014,-4.85834 2.62206,-4.5886 z"
   fill="#fefdfa"
   id="path29200"
   style="stroke-width:0.327757" />
<path
   d="m 77.553695,265.0218 c 6.02712,-1.08618 7.0553,7.7082 2.2943,8.84945 -6.16774,1.47851 -7.20869,-7.96385 -2.2943,-8.84945 z"
   fill="#8d5391"
   id="path29202"
   style="stroke-width:0.327757" />
<path
   d="m 244.38208,265.0218 c 6.57513,-1.53816 7.61052,7.59512 2.62205,8.52169 -6.24508,1.15993 -7.08381,-7.47811 -2.62205,-8.52169 z"
   fill="#8c5391"
   id="path29204"
   style="stroke-width:0.327757" />
<path
   d="m 94.597065,281.40966 c 5.743285,-0.50442 6.396835,8.61543 0.98327,8.84944 -5.8462,0.25303 -5.63316,-8.44105 -0.98327,-8.84944 z"
   fill="#8d5391"
   id="path29206"
   style="stroke-width:0.327757" />
<path
   d="m 227.99422,281.40966 c 5.26017,-0.5562 6.36406,7.69017 1.63879,8.52169 -5.47617,0.9636 -6.85013,-7.9704 -1.63879,-8.52169 z"
   fill="#8c5291"
   id="path29208"
   style="stroke-width:0.327757" />
<path
   d="m 212.91739,283.04845 c 7.61118,-0.75122 9.05298,10.64719 2.2943,11.79925 -8.36272,1.42542 -9.267,-11.11096 -2.2943,-11.79925 z"
   fill="#f9932c"
   id="path29210"
   style="stroke-width:0.327757" />
<path
   d="m 162.11503,288.29256 c 1.31169,-0.0475 5.80491,3.59943 6.71902,4.75248 4.31001,5.43585 4.06485,11.9356 -1.80266,15.89622 -1.18156,0.79776 -4.37654,0.70894 -4.75248,2.78594 -0.30776,1.7004 3.67285,7.62559 -0.16388,2.78593 0,0 -1.4749,1.14715 -1.4749,1.14715 3.01634,-6.48992 -0.44182,-4.88489 -3.76921,-7.04678 -6.47911,-4.20971 -4.88194,-12.80088 0.32776,-17.37112 0.49622,-0.43527 4.58401,-2.93769 4.91635,-2.94982 z"
   fill="#79256b"
   id="path29212"
   style="stroke-width:0.327757" />
<path
   d="m 114.26249,290.58686 c 4.67742,-1.39624 5.80753,4.54271 2.94981,5.89963 -4.38801,2.08355 -6.23295,-4.91964 -2.94981,-5.89963 z"
   fill="#fba627"
   id="path29214"
   style="stroke-width:0.327757" />
<path
   d="m 127.04502,290.58686 c 6.51745,-0.91084 7.68099,8.83174 1.63878,9.50496 -6.59873,0.73516 -6.47812,-8.82847 -1.63878,-9.50496 z"
   fill="#1f5ba1"
   id="path29216"
   style="stroke-width:0.327757" />
<path
   d="m 195.54626,292.88116 c 3.61123,-0.69976 4.68037,4.84425 1.63879,5.57187 -4.13138,0.98819 -4.53321,-5.01108 -1.63879,-5.57187 z"
   fill="#fcac29"
   id="path29218"
   style="stroke-width:0.327757" />
<path
   d="m 161.78728,316.80743 c 5.40209,-0.49983 5.69773,7.77768 0.98327,8.19393 -5.35195,0.47263 -5.19889,-7.8039 -0.98327,-8.19393 z"
   fill="#26589f"
   id="path29220"
   style="stroke-width:0.327757" />
<text
   xml:space="preserve"
   style="font-style:normal;font-weight:normal;font-size:33.33333333px;line-height:1.25;font-family:sans-serif;fill:#000000;fill-opacity:1;stroke:none;-inkscape-font-specification:'sans-serif, Normal';font-stretch:normal;font-variant:normal;font-variant-ligatures:normal;font-variant-caps:normal;font-variant-numeric:normal;font-variant-east-asian:normal"
   id="text35638"><textPath startOffset="20" textLength="70%"
     xlink:href="#path29112-9"
     id="textPath38839"><tspan
       id="tspan35636"
       style="-inkscape-font-specification:'sans-serif, Normal';font-family:sans-serif;font-weight:normal;font-style:normal;font-stretch:normal;font-variant:normal;font-size:33.33333333px;font-variant-ligatures:normal;font-variant-caps:normal;font-variant-numeric:normal;font-variant-east-asian:normal">Sweet Eat plc</tspan></textPath></text>
</svg>
